<svg id="Layer_1" data-name="Layer 1" xmlns="http://www.w3.org/2000/svg" viewBox="0 0 750.86 983.89"><path d="M277.64,129c-43.12,33.87-76.39,78.79-118.12,114.36C118.68,278.11,68.79,305,41.16,351,16,392.87,13.35,444.06,11.43,493L.84,761.45c-2.6,66-1.76,140.89,46.56,186C77.86,975.92,122,986,163.69,983.54s81.76-16,121.26-29.45L597.72,847.61c31.11-10.59,63-21.6,88.27-42.55,61.77-51.19,65.77-142.71,64.78-222.82l-4.77-386c-.79-64.13-6.46-138.13-58.69-175.52C650-6,598.17-4.73,555.52,12.32c-44.89,18-78.87,64.93-125.43,74.4C371.52,98.64,330,88,277.64,129Z" transform="translate(-0.03 0)" fill="#ececec"/><ellipse cx="116.76" cy="371.7" rx="19.35" ry="18.52" transform="translate(-1.58 0.49) rotate(-0.24)" fill="#f9f5f2"/></svg>