<svg id="Layer_1" data-name="Layer 1" xmlns="http://www.w3.org/2000/svg" viewBox="0 0 750.88 983.87"><path d="M551.12,153C508,186.87,474.73,231.79,433,267.36c-40.84,34.8-90.73,61.69-118.36,107.64-25.21,41.92-27.81,93.11-29.73,142l-10.59,268.5c-2.6,66-1.76,140.89,46.56,186,30.46,28.47,74.62,38.52,116.29,36.09s81.76-16,121.26-29.45L871.2,871.66c31.11-10.59,63-21.6,88.27-42.55,61.77-51.19,65.77-142.71,64.78-222.82l-4.77-386c-.79-64.13-6.46-138.13-58.69-175.52C923.47,18.06,871.65,19.32,829,36.37c-44.89,18-78.87,64.93-125.43,74.4C645,122.69,603.47,112,551.12,153Z" transform="translate(-273.48 -24.05)" fill="#cbcbcb"/><ellipse cx="390.23" cy="395.77" rx="19.35" ry="18.52" transform="translate(-275.12 -22.43) rotate(-0.24)" fill="#f9f5f2"/></svg>