<svg id="Layer_1" data-name="Layer 1" xmlns="http://www.w3.org/2000/svg" viewBox="0 0 1251 987.06"><path d="M127.5,524.59c6.08-2.9,7.6-8.39,3.6-13s-11.87-6.09-17.61-3.18-7.08,8.53-3.24,13C114.25,526.13,121.5,527.46,127.5,524.59Z" transform="translate(0 0)" fill="#ef6101"/><path d="M145.56,557.73c5.38-2.49,7.21-8.62,3.79-12.78-3.8-4.63-10.58-5.77-16.77-2.8-6.47,2.3-7.69,8.6-4.06,12.77S141.12,559.78,145.56,557.73Z" transform="translate(0 0)" fill="#ef6101"/><path d="M879.88,767.14c-6,2.91-7.53,7.93-3.8,12.38,3.51,4.16,11.64,5.56,17.08,2.92s7-8.76,3.38-12.85C892.65,765.23,885.87,764.23,879.88,767.14Z" transform="translate(0 0)" fill="#ef6101"/><path d="M637.89,786.58c5.21-2.69,6.72-8.35,3.28-12.3s-11.51-5.27-16.83-2.51-6.72,8.35-3.28,12.3S632.57,789.34,637.89,786.58Z" transform="translate(0 0)" fill="#ef6101"/><path d="M743.23,791.4c5.44-2.61,7.13-8.47,3.63-12.54s-11.31-5.34-16.77-2.72-7.13,8.46-3.63,12.54S737.78,794,743.23,791.4Z" transform="translate(0 0)" fill="#ef6101"/><path d="M163.93,589.37c5.42-2.39,7-8.89,3.13-12.76-4.22-4.18-9.36-5.31-16-2.21-5.62,2.75-7.49,7.7-4.68,11.32C149.89,590.22,157.69,592.12,163.93,589.37Z" transform="translate(0 0)" fill="#ef6101"/><path d="M849.9,795.62c5.81-2.84,7-7.21,3.19-11.65-4.22-4.91-10.1-6-16.12-3.05-5.73,2.82-7,7.21-3.23,11.54C838.13,797.55,843.71,798.64,849.9,795.62Z" transform="translate(0 0)" fill="#ef6101"/><path d="M1000,786.52c5.31-2.71,6.47-7.56,2.8-11.68a13.77,13.77,0,0,0-15.78-3c-5.66,2.54-6.82,8.09-2.64,12.63C988.07,788.42,994.61,789.29,1000,786.52Z" transform="translate(0 0)" fill="#ef6101"/><path d="M1042.42,772.88c5.57-2.68,7-7.28,3.54-11.44a13.23,13.23,0,0,0-16.23-3.4c-5.33,2.51-6.75,7.59-3.28,11.74C1030.44,774.53,1036.5,775.72,1042.42,772.88Z" transform="translate(0 0)" fill="#ef6101"/><path d="M247.59,670.1c4,4.76,10.09,6,16,3.16,5.59-2.68,7-7.27,3.61-11.42-4-4.85-10.27-6.19-16.21-3.46C245.65,660.82,244.17,666,247.59,670.1Z" transform="translate(0 0)" fill="#ef6101"/><path d="M1114.55,742c3.86,4.56,9.87,5.78,15.54,3.17,5.92-2.73,7.42-7.38,3.8-11.7a13.26,13.26,0,0,0-16.27-3.24C1112.26,732.93,1111,737.81,1114.55,742Z" transform="translate(0 0)" fill="#ef6101"/><path d="M806.25,809.88c5.43-2.67,6.75-7.49,3.18-11.62a13.8,13.8,0,0,0-16.17-3.08c-5.4,2.72-6.48,7.94-2.55,12.35C794.32,811.58,800.8,812.57,806.25,809.88Z" transform="translate(0 0)" fill="#ef6101"/><path d="M699.8,804.72c5.63-2.67,7.15-7.26,3.77-11.4-4-4.92-10.07-6.25-16.18-3.57-5.25,2.31-6.86,7.66-3.51,11.7C687.85,806.23,694,807.49,699.8,804.72Z" transform="translate(0 0)" fill="#ef6101"/><path d="M1070.67,756.1c4,4.79,10.08,6,15.92,3.27,5.63-2.66,7.15-7.26,3.77-11.4-4-4.91-10.07-6.25-16.18-3.57C1068.93,746.71,1067.32,752.06,1070.67,756.1Z" transform="translate(0 0)" fill="#ef6101"/><path d="M468.71,762.29c6-2.71,7.53-7.37,4-11.67a13.24,13.24,0,0,0-16.23-3.37c-5.34,2.54-6.73,7.59-3.24,11.75A12.75,12.75,0,0,0,468.71,762.29Z" transform="translate(0 0)" fill="#ef6101"/><path d="M531.07,781c5.38-2.58,6.9-7.6,3.51-11.63s-10.1-5.25-15.51-2.77-7.15,7.52-3.89,11.57C518.61,782.46,525.5,783.69,531.07,781Z" transform="translate(0 0)" fill="#ef6101"/><path d="M66.85,534.53c3.53,4.13,10.32,5.41,15.64,3s6.74-7.89,3.32-11.92-11.68-5.6-16-2.77S62.4,530.87,66.85,534.53Z" transform="translate(0 0)" fill="#ef6101"/><path d="M344.5,724.82c5.12-2.4,6.6-8,3.17-11.94-3.24-3.78-10.48-5.15-15.62-3s-6.59,8.13-3.23,12S339.2,727.29,344.5,724.82Z" transform="translate(0 0)" fill="#ef6101"/><path d="M390.81,741.21c3.48,4,10.19,5.12,15.57,2.56s7-7.58,3.61-11.61c-3.5-4.22-10.44-5.36-15.95-2.62C388.71,732.18,387.33,737.2,390.81,741.21Z" transform="translate(0 0)" fill="#ef6101"/><path d="M167.14,619.27c3.51,4,10.2,5.07,15.59,2.49s6.9-7.6,3.52-11.63c-3.53-4.2-10.48-5.31-16-2.55C165,610.23,163.63,615.27,167.14,619.27Z" transform="translate(0 0)" fill="#ef6101"/><path d="M593.7,800.36c4.92-2.53,6.22-8,2.8-11.79-3.61-4-9.86-4.81-15.37-2S574.5,794,578,798C581.41,801.72,588.85,802.86,593.7,800.36Z" transform="translate(0 0)" fill="#ef6101"/><path d="M956,800.93c5-2.39,6.48-7.91,3.19-11.73-3.49-4-9.76-5-15.29-2.32s-7,7.32-3.5,11.37C943.67,802.1,951,803.35,956,800.93Z" transform="translate(0 0)" fill="#ef6101"/><path d="M86.5,567.65c3.24,3.49,10.84,4.62,15.43,2.29s6.08-8,3-11.55c-3.7-4.23-9.63-5.09-15.37-2.22S82.59,563.5,86.5,567.65Z" transform="translate(0 0)" fill="#ef6101"/><path d="M184.78,651.21c3.79,4.48,11.09,6,16.17,3.33,4.67-2.44,6.1-7.86,2.78-11.48a11.8,11.8,0,0,0-15-2.15C183.34,643.53,181.77,647.66,184.78,651.21Z" transform="translate(0 0)" fill="#ef6101"/><path d="M265.73,702.8a13.86,13.86,0,0,0,15.77,3.51c4.95-2.21,6.63-8,3.19-11.72a11.92,11.92,0,0,0-14.61-2.36C264.35,695.14,262.59,699.11,265.73,702.8Z" transform="translate(0 0)" fill="#ef6101"/><path d="M911.71,814.3c4.71-2.38,6.21-7.78,2.91-11.45a11.74,11.74,0,0,0-15-2.26c-5.57,2.71-7.09,7-3.79,10.65A14,14,0,0,0,911.71,814.3Z" transform="translate(0 0)" fill="#ef6101"/><path d="M761.81,823.3c4.72-2.36,6.26-7.77,3-11.45a11.73,11.73,0,0,0-15-2.3c-5.6,2.71-7.13,7-3.85,10.63A14,14,0,0,0,761.81,823.3Z" transform="translate(0 0)" fill="#ef6101"/><path d="M655.81,818.84c5.06-2.23,6.74-7.6,3.57-11.35s-10.39-4.85-15.26-2.38-6.16,7.52-3.1,11.13S650.88,821,655.81,818.84Z" transform="translate(0 0)" fill="#ef6101"/><path d="M867.5,828.06c5.37-2.63,6.34-6.49,2.67-10.69s-9.13-5.23-14.42-2.62-6.11,6.74-2.43,11S862.05,830.72,867.5,828.06Z" transform="translate(0 0)" fill="#ef6101"/><path d="M410.41,772.78c3.94,4.64,8.66,5.61,14.28,2.94s6.77-6.31,3.22-10.49c-4-4.66-9-5.69-14.63-3C408.07,764.81,407,768.75,410.41,772.78Z" transform="translate(0 0)" fill="#ef6101"/><path d="M105.24,600.17c3.72,4.24,8.52,5.05,14,2.38q8.58-4.14,2.65-10.88c-3.73-4.24-9-5.13-14.38-2.41S101.4,595.78,105.24,600.17Z" transform="translate(0 0)" fill="#ef6101"/><path d="M486.73,794.81c5.11-2.37,6.56-7.06,3.34-10.84s-9.5-4.81-14.52-2.36c-4.84,2.37-6.24,6.88-3.26,10.55C475.4,796,481.66,797.16,486.73,794.81Z" transform="translate(0 0)" fill="#ef6101"/><path d="M219.42,686.74c5-2.48,6.07-6.86,2.54-10.81-3.12-3.48-10-4.67-14.3-2.48-4.52,2.28-5.55,7.47-2.22,11.17S214.5,689.16,219.42,686.74Z" transform="translate(0 0)" fill="#ef6101"/><path d="M535.62,811c3.29,3.54,9.4,4.37,14.23,1.92s6-7,2.76-10.61-9.25-4.58-14.15-2.21C533.39,802.55,532.16,807.27,535.62,811Z" transform="translate(0 0)" fill="#ef6101"/><path d="M362.32,757.28c4.85-2.4,6.11-6.92,2.95-10.58s-9.58-4.72-14.57-2.13c-4.74,2.46-5.84,7-2.57,10.65S357.5,759.69,362.32,757.28Z" transform="translate(0 0)" fill="#ef6101"/><path d="M141.38,624.79c-3.15-3.93-9.91-5.25-14.62-2.87-4.24,2.15-5.74,6.93-3.16,10.07a12.48,12.48,0,0,0,14.6,3.33C142.81,633.2,144.27,628.38,141.38,624.79Z" transform="translate(0 0)" fill="#ef6101"/><path d="M1089.89,787.38a12.49,12.49,0,0,0,14.63,3.24c4.6-2.16,6-7,3.06-10.55-3.08-3.79-9.08-5.06-14.17-3C1089,778.87,1087.16,784.09,1089.89,787.38Z" transform="translate(0 0)" fill="#ef6101"/><path d="M1060.85,804.88c4.6-2.17,6-7,3-10.56-3.09-3.78-9.12-5-14.18-3-4.46,1.84-6.21,7-3.47,10.33A12.5,12.5,0,0,0,1060.85,804.88Z" transform="translate(0 0)" fill="#ef6101"/><path d="M717.64,837.08c4.83-2.37,6.07-7,2.82-10.62s-9.48-4.43-14.25-2c-4.55,2.36-5.73,6.84-2.73,10.34S712.81,839.46,717.64,837.08Z" transform="translate(0 0)" fill="#ef6101"/><path d="M611.18,831.85c4.57-2.09,6-7.09,3.11-10.58-3.39-4-8.23-4.82-13.7-2.25s-6.74,6.16-3.46,10.17C600,832.71,606.59,834,611.18,831.85Z" transform="translate(0 0)" fill="#ef6101"/><path d="M823,841.68c4.56-2.16,5.92-7.12,2.9-10.61-3.42-4-8.31-4.7-13.73-2.1s-6.63,6.21-3.26,10.2C811.87,842.67,818.5,843.84,823,841.68Z" transform="translate(0 0)" fill="#ef6101"/><path d="M1017.5,819c4.44-2.29,5.59-7.28,2.45-10.69-3.56-3.87-8.41-4.49-13.83-1.76s-6.35,6.33-2.81,10.27C1006.34,820.25,1013,821.28,1017.5,819Z" transform="translate(0 0)" fill="#ef6101"/><path d="M972.78,832.55c4-1.83,5.44-7.1,2.89-10.31-2.71-3.41-8.21-4.52-12.56-2.54-6.53,3-7.84,5.89-4.49,10C960.58,834,969.32,834.14,972.78,832.55Z" transform="translate(0 0)" fill="#ef6101"/><path d="M240.24,708c-3.27-3.57-8.17-4.24-13.21-1.8-5.76,2.78-6.43,5.69-3.39,10,2.59,3.65,10.42,4.09,14,2.48C241.87,716.73,243.16,711.19,240.24,708Z" transform="translate(0 0)" fill="#ef6101"/><path d="M160.26,657.66c-2.7-3.2-8.85-4.3-13.26-2.37s-6.08,6.86-3.26,10.2,8.84,4.31,13.26,2.38S163.08,661,160.26,657.66Z" transform="translate(0 0)" fill="#ef6101"/><path d="M286.22,736c2.9,3.45,9,4.56,13.7,2.49s6.34-6.63,3.7-10.17c-2.75-3.7-9.13-5-14-2.85S283.21,732.44,286.22,736Z" transform="translate(0 0)" fill="#ef6101"/><path d="M383.8,779.75c-2.78-3.31-8.75-4.32-13.18-2.24s-5.79,6.54-3,9.86,8.74,4.32,13.18,2.24S386.58,783.07,383.8,779.75Z" transform="translate(0 0)" fill="#ef6101"/><path d="M59.75,572.94c-2.8-3.08-8.49-3.89-12.84-1.83-4.72,2.25-6.26,6.38-3.58,9.63,2.87,3.5,9.28,4.77,13.75,2.74S62.82,576.32,59.75,572.94Z" transform="translate(0 0)" fill="#ef6101"/><path d="M659.81,848.56c3,3.48,9.43,4.65,13.82,2.5,4.21-2,5.45-6.83,2.67-10.23-2.64-3.21-8.75-4.11-13.21-2C658.42,841.14,657,845.29,659.81,848.56Z" transform="translate(0 0)" fill="#ef6101"/><path d="M780,855.26c4.25-2,5.59-6.73,2.87-10.19s-8.61-4.29-13.16-2.11-6.19,6.39-3.49,9.64C769.13,856.1,775.5,857.34,780,855.26Z" transform="translate(0 0)" fill="#ef6101"/><path d="M428.92,805.87c2.9,3.5,9.29,4.75,13.77,2.69s5.7-7.18,2.61-10.54c-2.78-3-8.56-3.84-12.85-1.79C427.76,798.46,426.24,802.63,428.92,805.87Z" transform="translate(0 0)" fill="#ef6101"/><path d="M930.07,846.06c4.18-2.14,5.39-6.44,2.73-9.66s-8.8-4.39-13.3-2.24-5.72,6.65-2.81,10S925.72,848.29,930.07,846.06Z" transform="translate(0 0)" fill="#ef6101"/><path d="M505.5,826.86c4.46-2.11,5.76-6.63,2.86-9.94-2.79-3.16-8.51-4.15-12.86-2.21-4.53,2-6,6.51-3.25,9.87S501,829,505.5,826.86Z" transform="translate(0 0)" fill="#ef6101"/><path d="M320.77,760.32a10.43,10.43,0,0,0-12.86-2.74c-4.75,2.21-5.68,6-2.4,9.82s7.89,4.55,12.7,2.18C322.78,767.33,323.75,763.83,320.77,760.32Z" transform="translate(0 0)" fill="#ef6101"/><path d="M554.41,843.07c3.22,3.77,7.88,4.6,12.67,2.27,4.61-2.24,5.62-5.75,2.67-9.24a10.41,10.41,0,0,0-12.84-2.83C552.16,835.45,551.17,839.3,554.41,843.07Z" transform="translate(0 0)" fill="#ef6101"/><path d="M78.74,606.53a10.33,10.33,0,0,0-13.24-2.81c-4.41,2.19-5.34,6-2.32,9.53,3.22,3.82,7.87,4.73,12.61,2.48S81.6,610,78.74,606.53Z" transform="translate(0 0)" fill="#ef6101"/><path d="M177,690.27c-3.18-4-7.38-4.58-12.89-2.5-4.62,1.73-5.44,6-2.52,9.4a10.41,10.41,0,0,0,12.92,2.43C178.8,697.46,179.74,693.72,177,690.27Z" transform="translate(0 0)" fill="#ef6101"/><path d="M885.92,860c4.32-2.12,5.34-5.88,2.54-9.3a10.66,10.66,0,0,0-12.91-2.65c-4.37,2.07-5.44,6.06-2.55,9.47A10.44,10.44,0,0,0,885.92,860Z" transform="translate(0 0)" fill="#ef6101"/><path d="M735.89,869.11c4.35-2,5.49-6,2.68-9.45s-8.49-4.5-12.79-2.61c-3.81,1.68-5.17,6.34-2.72,9.37A10.7,10.7,0,0,0,735.89,869.11Z" transform="translate(0 0)" fill="#ef6101"/><path d="M257.89,741.8c-2.74-3.31-8.53-4.48-12.79-2.58-3.74,1.66-5.1,6.4-2.7,9.37a10.73,10.73,0,0,0,12.85,2.67C259.59,749.22,260.71,745.21,257.89,741.8Z" transform="translate(0 0)" fill="#ef6101"/><path d="M829.17,871.62c2.73,3,8.27,4,12.32,2s5.27-6.09,2.7-9.22c-2.82-3.44-7.7-4.24-12.33-2S826.13,868.23,829.17,871.62Z" transform="translate(0 0)" fill="#ef6101"/><path d="M96,638.67c-3-3.39-7.81-4-12.42-1.7-4.4,2.24-5.37,5.63-2.58,8.94s8.6,4.19,12.72,2.05C97.63,645.9,98.65,641.74,96,638.67Z" transform="translate(0 0)" fill="#ef6101"/><path d="M463.3,830.84c-2.49-2.83-8.11-3.73-11.94-1.92-4,1.89-5.18,6.39-2.45,9.25s8.33,3.53,12,1.63S465.78,833.65,463.3,830.84Z" transform="translate(0 0)" fill="#ef6101"/><path d="M632.55,854.55c-2.7-3.21-8.54-4.1-12.7-1.92-4,2.08-5,6.22-2.3,9.24s8.24,3.85,12.31,1.86S635.14,857.63,632.55,854.55Z" transform="translate(0 0)" fill="#ef6101"/><path d="M1079.55,836.62c3.54-1.88,4.6-6.47,2.14-9.3-2.64-3-7.54-3.77-11.76-1.75-4.67,2.25-6,5.51-3.32,8.5C1069.58,837.45,1075.69,838.65,1079.55,836.62Z" transform="translate(0 0)" fill="#ef6101"/><path d="M1035.08,850.27c3.6-1.78,4.79-6.36,2.41-9.26-2.6-3.15-7.77-3.88-12.19-1.71s-5.53,5.35-3.08,8.22A11.42,11.42,0,0,0,1035.08,850.27Z" transform="translate(0 0)" fill="#ef6101"/><path d="M401.34,811.69c-2.63-3-7.56-3.78-11.77-1.76-4.68,2.24-5.95,5.5-3.33,8.49,3,3.39,9.06,4.59,12.93,2.56C402.72,819.11,403.79,814.52,401.34,811.69Z" transform="translate(0 0)" fill="#ef6101"/><path d="M526.3,849.7c-2.83-2.71-6.08-4.42-11.72-1.54-4.06,2-5.44,5.32-3.3,7.91,2.9,3.5,8.84,4.81,12.86,2.83C527.87,857.06,529.19,852.48,526.3,849.7Z" transform="translate(0 0)" fill="#ef6101"/><path d="M338.25,793.26c-3.82-3.64-7.36-3.74-11.75-1.47-4.05,2-5.39,5.33-3.21,7.92,3,3.51,8.89,4.78,12.87,2.77C339.86,800.61,341.13,796,338.25,793.26Z" transform="translate(0 0)" fill="#ef6101"/><path d="M195.5,722.84c-3.82-3.65-7.36-3.74-11.75-1.48-4,2-5.4,5.33-3.23,7.92,2.95,3.51,8.89,4.79,12.88,2.77C197.08,730.19,198.36,725.58,195.5,722.84Z" transform="translate(0 0)" fill="#ef6101"/><path d="M991,864.42c4-1.82,5.18-5.87,2.66-8.81s-7.48-3.72-11.35-2.07-5.43,5.75-3,8.75S987,866.25,991,864.42Z" transform="translate(0 0)" fill="#ef6101"/><path d="M797.1,887.29c4.75-2.26,5.44-4.76,2.32-8.36-3.34-3.85-6.77-4.52-11.41-2.23s-5,4.92-1.66,8.74C789.35,888.84,792.66,889.41,797.1,887.29Z" transform="translate(0 0)" fill="#ef6101"/><path d="M679.83,879.72c3.18,3.78,6.46,4.47,11,2.32,4.8-2.26,5.55-4.77,2.47-8.34-3.29-3.82-6.82-4.55-11.37-2.34S676.82,876.17,679.83,879.72Z" transform="translate(0 0)" fill="#ef6101"/><path d="M114.27,672c-3.32-3.9-6.74-4.65-11.33-2.5-4.76,2.24-5.36,4.84-2,8.69,3.15,3.63,6.46,4.19,11.14,1.89C116.5,677.85,117.16,675.34,114.27,672Z" transform="translate(0 0)" fill="#ef6101"/><path d="M276.06,775a9.46,9.46,0,0,0-11.56-2.31c-3.36,1.73-4.32,5.46-2.09,8.17,2.92,3.54,6.75,4.4,11,2.48S278.83,778.34,276.06,775Z" transform="translate(0 0)" fill="#ef6101"/><path d="M947.15,878.21c4.25-2.08,4.93-5.06,2-8.47a9.57,9.57,0,0,0-11.19-2c-3.62,1.79-4.48,5.57-1.92,8.49C939,879.61,942.87,880.31,947.15,878.21Z" transform="translate(0 0)" fill="#ef6101"/><path d="M587.5,868.77a9.85,9.85,0,0,0-11.22-1.93c-3.57,1.84-4.36,5.6-1.78,8.51,3,3.38,6.93,4,11.19,1.91S590.5,872.17,587.5,868.77Z" transform="translate(0 0)" fill="#ef6101"/><path d="M892.25,888.84c2.29,3,7.26,4.24,11,2.77s5.1-5.5,2.88-8.36-7.83-4.1-11.42-2.46C891.62,882.19,890.36,886.38,892.25,888.84Z" transform="translate(0 0)" fill="#ef6101"/><path d="M132.29,704.94c-2.24-2.7-7.36-3.81-11-2.39-3.18,1.23-4.56,5.81-2.51,8.34,2.35,2.92,7.43,4.06,11.06,2.48S134.64,707.78,132.29,704.94Z" transform="translate(0 0)" fill="#ef6101"/><path d="M755.93,891.91c-2.29-2.66-7.63-3.7-11.09-2.16-3.23,1.44-4.38,5.81-2.2,8.4,2.41,2.88,7.56,3.91,11.14,2.23S758.38,894.74,755.93,891.91Z" transform="translate(0 0)" fill="#ef6101"/><path d="M649.1,887.55c-2.58-2.81-6.05-3.19-10.28-1.11-4.54,2.22-5.25,4.59-2.35,7.82,2.36,2.63,7.75,3.51,11,1.79a5.29,5.29,0,0,0,2.7-7l0,0A5.41,5.41,0,0,0,649.1,887.55Z" transform="translate(0 0)" fill="#ef6101"/><path d="M418.34,845q-3.85-4.26-10.27-1.16c-4.57,2.23-5.3,4.59-2.42,7.81,2.36,2.64,7.72,3.54,11,1.84a5.28,5.28,0,0,0,2.73-7l0,0A5.26,5.26,0,0,0,418.34,845Z" transform="translate(0 0)" fill="#ef6101"/><path d="M357,826.77c-2.06-2.47-6.89-3.37-10.32-1.91s-4.84,5.38-2.64,8,7.39,3.43,10.79,1.69C358,832.89,359.05,829.27,357,826.77Z" transform="translate(0 0)" fill="#ef6101"/><path d="M481,863.55c-2.82-2.89-6.28-3-10.07-1.2s-4.82,5-2.32,7.73,7.58,3.43,10.84,1.67S483.55,866.11,481,863.55Z" transform="translate(0 0)" fill="#ef6101"/><path d="M213.32,756.71c-2.25-2.62-7.24-3.44-10.75-1.76s-4.6,5.41-2.36,8,7.24,3.44,10.75,1.76S215.56,759.34,213.32,756.71Z" transform="translate(0 0)" fill="#ef6101"/><path d="M860.11,905.36c3.34-1.77,4.11-5.62,1.61-8.19-2.8-2.88-6.26-3-10.06-1.24s-4.86,5-2.38,7.73S856.82,907.11,860.11,905.36Z" transform="translate(0 0)" fill="#ef6101"/><path d="M293.5,808.17c-2.48-2.43-5.61-3.89-9.85-1.37-4.14,2-5,4.43-2.32,7.44,2.4,2.71,7,3.44,10.47,1.65S296.16,810.74,293.5,808.17Z" transform="translate(0 0)" fill="#ef6101"/><path d="M150.8,737.8c-2.43-2.46-5.54-3.93-9.91-1.42-4,1.92-4.92,4.42-2.34,7.38A9,9,0,0,0,149,745.5C152.42,743.76,153.39,740.42,150.8,737.8Z" transform="translate(0 0)" fill="#ef6101"/><path d="M542.88,882.83c-2.4-2.46-5.49-4-10.27-1.31-3.71,1.75-4.62,4.22-2.06,7.18A8.94,8.94,0,0,0,541,890.52C544.4,888.82,545.43,885.45,542.88,882.83Z" transform="translate(0 0)" fill="#ef6101"/><path d="M711.38,906.73c-2.42-2.78-6.7-3.84-9.72-1.88-2.81,1.82-4.83,4.21-1.82,7.08a7.63,7.63,0,0,0,9.76,1.93C713.25,912,713.83,909.56,711.38,906.73Z" transform="translate(0 0)" fill="#ef6101"/><path d="M817.76,912.22c-2.26-3.32-6.23-3.61-9.58-2.15-3,1.3-5.1,3.91-2.41,6.89a7.81,7.81,0,0,0,9.67,2.36C819.15,917.55,819.76,915.18,817.76,912.22Z" transform="translate(0 0)" fill="#ef6101"/><path d="M605.93,902.2c-2.37-3.27-6.3-3.5-9.63-1.94-3,1.39-4.94,4-2.13,6.94a7.73,7.73,0,0,0,9.74,2.14C607.57,907.49,608,905.1,605.93,902.2Z" transform="translate(0 0)" fill="#ef6101"/><path d="M231.57,789.73c-2.29-2.58-5.58-3.19-9.13-1.62-3.76,1.66-4.71,4.23-2.44,7.06s5.67,3.22,9.87,1.66C232.79,794.92,234.07,792.55,231.57,789.73Z" transform="translate(0 0)" fill="#ef6101"/><path d="M375,859.73c-2.14-2.35-5.53-2.9-8.76-1.42-3.49,1.6-4.31,4.22-2.17,6.8s5.57,2.86,9.21,1.58C376.26,864.69,377.28,862.28,375,859.73Z" transform="translate(0 0)" fill="#ef6101"/><path d="M436.91,878.65a7.16,7.16,0,0,0-8.75-1.54c-3.52,1.6-4.76,3.9-2.47,6.61a7.48,7.48,0,0,0,9.15,1.74C438.31,883.85,438.58,881.22,436.91,878.65Z" transform="translate(0 0)" fill="#ef6101"/><path d="M667.31,920.91c-2.47-2.62-5.79-2.63-9.11-.84s-3.56,4-1.41,6.73a8,8,0,0,0,9.13,1.1C669.17,926.14,669.68,923.43,667.31,920.91Z" transform="translate(0 0)" fill="#ef6101"/><path d="M498.66,897.41c-2.8-2.68-5.93-2.89-9.31-1.11s-3.9,4-1.69,6.43a7.51,7.51,0,0,0,9.21,1.51C500.23,902.54,500.44,899.91,498.66,897.41Z" transform="translate(0 0)" fill="#ef6101"/><path d="M169.41,770.83c-2.81-2.68-5.93-2.89-9.31-1.11-3.23,1.71-3.91,4-1.7,6.43a7.52,7.52,0,0,0,9.22,1.51C171,776,171.18,773.33,169.41,770.83Z" transform="translate(0 0)" fill="#ef6101"/><path d="M773.06,925.74c-2-2.5-5.15-3-8.54-1.46s-4.58,3.8-2.45,6.8a7.88,7.88,0,0,0,9.09,1.57C774.59,931,775.2,928.34,773.06,925.74Z" transform="translate(0 0)" fill="#ef6101"/><path d="M311.89,841c-2.47-2.62-5.79-2.64-9.11-.84s-3.57,4-1.52,6.59A7.94,7.94,0,0,0,310.5,848C313.75,846.29,314.25,843.57,311.89,841Z" transform="translate(0 0)" fill="#ef6101"/><path d="M88.36,719.14c-2.84-2.58-6-2.72-9.29-.91s-3.78,4.08-1.53,6.45A7.54,7.54,0,0,0,86.79,726C90.08,724.31,90.27,721.67,88.36,719.14Z" transform="translate(0 0)" fill="#ef6101"/><path d="M249.26,821.7c-1.68-1.92-4.34-3.44-8.33-1.23-2.77,1-4.78,2.85-2.83,5.56a7.63,7.63,0,0,0,9.28,2.47C250.85,827.07,251.4,824.14,249.26,821.7Z" transform="translate(0 0)" fill="#ef6101"/><path d="M560.84,916.38c-2.14-2.82-5.17-3.48-8.44-1.82-2.55,1.29-4.28,3.41-1.64,5.71,2,2.65,4.44,3.76,8.18,2C562.2,920.74,562.78,919,560.84,916.38Z" transform="translate(0 0)" fill="#ef6101"/><path d="M878.11,931c-1.77-2.77-5.1-2.62-8-1.19s-3.68,3.7-1.15,6.24c2.28,2.29,4.55,3,7.9,1.38C880.5,935.68,880.66,933.61,878.11,931Z" transform="translate(0 0)" fill="#ef6101"/><path d="M727.88,939.41c-1.33-1.84-4.67-2-7.58-.63s-3.33,3.66-1.27,6,4.65,3.16,8,1.58S730.61,942.7,727.88,939.41Z" transform="translate(0 0)" fill="#ef6101"/><path d="M105.14,752c-2-2.52-5.11-2.86-7.86-1.68-3.1,1.34-3.92,3.74-1.65,6.26,2,2.34,4.66,3.13,8,1.51S107.1,754.46,105.14,752Z" transform="translate(0 0)" fill="#ef6101"/><path d="M186,803.45a6.3,6.3,0,0,0-7.88-1.52c-2.85,1.45-3.87,3.73-1.46,6.3,2.25,2.38,4.82,2.83,8.19,1.36C187.8,807.84,188.09,805.84,186,803.45Z" transform="translate(0 0)" fill="#ef6101"/><path d="M622.61,935.33c-1.83-2.21-4.7-2.7-7.66-1.34s-3.32,3.47-1.9,5.78a6.58,6.58,0,0,0,7.78,1.29C623.78,939.68,624.5,937.54,622.61,935.33Z" transform="translate(0 0)" fill="#ef6101"/><path d="M835.09,944.58c-1.81-2.44-4.48-2.32-7.35-1.29-2.67,1.46-4.32,3.1-2.23,5.51a6.47,6.47,0,0,0,8,1.57C836.34,949,836.74,946.8,835.09,944.58Z" transform="translate(0 0)" fill="#ef6101"/><path d="M391.82,892.8c-2.05-2-4.53-1.89-7.12-.65-2.89,1.38-3.74,3.18-1.54,6a6.81,6.81,0,0,0,7.73.83C393.67,897.39,394.09,895.06,391.82,892.8Z" transform="translate(0 0)" fill="#ef6101"/><path d="M329.39,873.25c-2-2.07-4.51-1.93-7.12-.69-2.89,1.37-3.77,3.16-1.79,5.74a6.67,6.67,0,0,0,7.92,1.11C331.22,877.86,331.63,875.52,329.39,873.25Z" transform="translate(0 0)" fill="#ef6101"/><path d="M266.5,855c-2-2.19-4.51-2-7.55-.43-2.49,1.11-3.09,2.94-1.19,5a6.24,6.24,0,0,0,7.68,1.28C268.16,859.46,268.5,857.2,266.5,855Z" transform="translate(0 0)" fill="#ef6101"/><path d="M516.39,930.29c-2-2.2-4.52-1.95-7.62-.37-2.43,1.08-3,2.93-1.08,5a6.22,6.22,0,0,0,7.69,1.25C518,934.7,518.38,932.45,516.39,930.29Z" transform="translate(0 0)" fill="#ef6101"/><path d="M454.94,911.79a6.11,6.11,0,0,0-7.36-1.09c-2.86,1.44-3.44,3.73-1.36,5.81,1.9,1.88,4.68,2,7.61.85C455.88,915.73,456.82,913.78,454.94,911.79Z" transform="translate(0 0)" fill="#ef6101"/><path d="M124.05,785.31c-1.47-1.93-4.09-2.49-6.71-1.43-2.87,1.16-3.41,3.11-2,5.38a5.93,5.93,0,0,0,6.73,1.34C124.91,789.44,125.66,787.4,124.05,785.31Z" transform="translate(0 0)" fill="#ef6101"/><path d="M684.29,954c-1.4-2.17-3.74-2.86-6.57-1.54s-2.84,3.12-1,5.19,3.48,2.65,6.4,1.22S686.5,956,684.29,954Z" transform="translate(0 0)" fill="#ef6101"/><path d="M790.39,959.08c-1.85-2.15-4.07-2.69-6.82-1.23s-2.27,3.3-.53,5.28c1.9,2.16,3.92,2.32,6.39.85C792.66,962.61,792,961,790.39,959.08Z" transform="translate(0 0)" fill="#ef6101"/><path d="M577.59,949.53a5.1,5.1,0,0,0-6.17-1.31c-2.66,1.15-3,3-1.41,5a5.05,5.05,0,0,0,6.57,1.39C579.2,953.31,579.33,951.48,577.59,949.53Z" transform="translate(0 0)" fill="#ef6101"/><path d="M204.42,837a5.17,5.17,0,0,0-6.39-1.89c-2.9,1-3,2.91-1.94,4.61,1.8,2.26,4,3.07,6.76,1.92C205.33,840.63,205.74,838.91,204.42,837Z" transform="translate(0 0)" fill="#ef6101"/><path d="M409.5,925.34c-1.67-2-3.58-1.45-5.64-.53-2.21,1.1-3.71,2.29-1.66,4.36a5.22,5.22,0,0,0,6.3,1.24C411.05,929.18,411.13,927.33,409.5,925.34Z" transform="translate(0 0)" fill="#ef6101"/><path d="M142.07,817.62c-1.69-2-3.59-1.41-5.64-.51-2.21,1.1-3.7,2.31-1.62,4.37a5.23,5.23,0,0,0,6.26,1.21C143.64,821.45,143.72,819.6,142.07,817.62Z" transform="translate(0 0)" fill="#ef6101"/><path d="M639.84,967.35c-1.15-1.72-3.37-.83-5.49.2s-3.26,2.21-1.46,4.09a5.26,5.26,0,0,0,6.67,1.2C641.81,971.64,641.89,969.81,639.84,967.35Z" transform="translate(0 0)" fill="#ef6101"/><path d="M347,907.19c-1.63-2.24-3.7-1.85-7.12-.19-1.3.55-2.34,1.88-.33,3.85a5.24,5.24,0,0,0,6.29,1.1C348.11,910.81,348.3,909.06,347,907.19Z" transform="translate(0 0)" fill="#ef6101"/><path d="M285.21,889c-1.18-1.74-3.4-2.11-5.66-1.32-2.44.85-2.9,2.55-1.6,4.13s3.45,1.85,6.09,1C285.5,891.91,286.24,890.51,285.21,889Z" transform="translate(0 0)" fill="#ef6101"/><path d="M471.7,945.16c-1.17-1.75-3.38-2.12-5.64-1.35-2.45.83-2.93,2.54-1.65,4.12s3.43,1.87,6.11,1.08C471.91,948.09,472.72,946.7,471.7,945.16Z" transform="translate(0 0)" fill="#ef6101"/><path d="M533.88,963.78a3.7,3.7,0,0,0-5-.91c-2.3,1.19-1.66,2.47-.45,3.9,1.34,1.59,2.91,2,5.62.6C535.64,966.5,535.17,965.23,533.88,963.78Z" transform="translate(0 0)" fill="#ef6101"/><path d="M595.91,983c-1.07-1.28-2.49-1.49-4.19-.69s-2.81,1.8-1.39,3.38a3.8,3.8,0,0,0,4.71.9C596.87,985.68,597.07,984.35,595.91,983Z" transform="translate(0 0)" fill="#ef6101"/><path d="M365.09,940.35c-1.34-1.53-2.95-1.29-4.68-.4s-2,1.89-.86,3.15a4.26,4.26,0,0,0,4.79.92C365.93,942.94,366.3,941.73,365.09,940.35Z" transform="translate(0 0)" fill="#ef6101"/><path d="M159.5,851.51c-1.34-1.53-3-1.29-4.68-.4s-2,1.89-.86,3.15a4.26,4.26,0,0,0,4.79.92C160.37,854.1,160.74,852.89,159.5,851.51Z" transform="translate(0 0)" fill="#ef6101"/><path d="M222.77,869.94A4,4,0,0,0,218,869c-2.07.87-2.71,2.26-1.48,3.83s3,1.84,5.24,1C223.6,872.79,224.11,871.46,222.77,869.94Z" transform="translate(0 0)" fill="#ef6101"/><path d="M426.13,958.5c-.68-.91-2.07-.15-3.24.4s-2.86,1.18-1.68,2.5a3.86,3.86,0,0,0,4.74,1.09C427.5,961.68,427.28,960.33,426.13,958.5Z" transform="translate(0 0)" fill="#ef6101"/><path d="M302.61,921.09c-1.16-1.26-2.64-.37-3.77.25s-2.65,1.27-1.11,2.56c1.26,1,2.82,1.71,4.42.9C304,923.85,303.69,922.28,302.61,921.09Z" transform="translate(0 0)" fill="#ef6101"/><path d="M240.14,903.11c-.86-1.75-2.37-.94-3.53-.44-1.31.56-3.32,1.15-1.68,2.76a4.35,4.35,0,0,0,4.46,1C240.81,905.52,240.77,904.39,240.14,903.11Z" transform="translate(0 0)" fill="#ef6101"/><path d="M489.37,977.62c-.92-1.67-2.4-.88-3.55-.36-1.31.58-3.29,1.18-1.58,2.77a4.31,4.31,0,0,0,4.44,1,2.32,2.32,0,0,0,.69-3.41Z" transform="translate(0 0)" fill="#ef6101"/><path d="M750.68,86.52c-85.68,37.88-184.85,55-284.17,50.22C206.84,124.25,44.84,260.28,16.05,328.29-17.34,407.3,3.71,495.63,57.61,568s138.07,130.1,230.6,175.64c72.35,35.57,152.56,64.92,238.63,71.85,84.08,6.77,168.34-8.15,250.16-24.19,105.25-20.61,211.52-43.78,303.23-87.57C1155,668,1223.55,607.81,1208.11,542.46c-13.18-55.71-83.63-96.72-95.54-152.58-16.66-78.24,85.55-143.56,99.22-222.14,16-91.63-72-167.21-156-167.74C968.24-.54,845.64,44.54,750.68,86.52Z" transform="translate(0 0)" fill="#deb887"/><path d="M461.37,753.09C600.11,727,795,798.46,898.07,801.68c94.35,2.93,216.9-40,288.86-87.55s87.56-124,16.51-168c-30.94-19.12-74.18-30.74-105.64-49.61-100.69-60.39-44-163.43-88.67-243.49C957.61,160.75,777.58,113.51,606.3,104.18c-108.93-5.94-226,.44-320.36,35.24S128.69,243.06,162.11,301.6c30.1,52.75,130.54,99.51,90.28,152-28.14,36.76-108.81,48.52-163.89,73.92-86.36,39.8-101.86,116-50.18,168.8S154.32,787,263,782.45C313.62,780.34,412.56,762.26,461.37,753.09Z" transform="translate(0 0)" fill="none" stroke="#b8d6f2" stroke-miterlimit="10" stroke-width="3.03"/><g id="SvgjsG1313"><ellipse cx="481.39" cy="731.3" rx="130.17" ry="15.71" fill="#d2d6d8"/><rect x="441.9" y="580.33" width="17.55" height="135.27" fill="#5b627e"/><path d="M377.5,551.35H547.19c9.69,0,17.55,6.49,17.55,14.5v9.61c0,8-7.86,14.5-17.55,14.5H377.5c-9.69,0-17.55-6.49-17.55-14.5v-9.61C360,557.84,367.84,551.35,377.5,551.35Z" transform="translate(0 0)" fill="#167fc6"/><path d="M370,552.83s33.46,16.73,33.46,25.67c-.35,8.92-5.63,9.61-11.15,11.32-10.78.18-29.29,2.81-31.71-10.23-1.14-6.63-2.33-17,1.86-21.35C366.5,553.26,370,552.83,370,552.83Z" transform="translate(0 0)" fill="#fff" opacity="0.2" style="isolation:isolate"/><rect x="380.46" y="708.35" width="137.48" height="12.07" fill="#5b627e"/><path d="M573.82,314.4s-.51,35.83,0,48.27c-.51,24.29-34.92,16.58-38.53,11.27v24.28s-34.43,15.11-48-2.36-6.82-23.4-6.82-26.65,15.06,2.65,29.4-6.54,5.38-30.49,7.17-40.87,3.22-16.88,25.82-17.17S573.82,314.4,573.82,314.4Z" transform="translate(0 0)" fill="#938175"/><path d="M494.27,367s-8.4-11.54-45.21-9.23-61.54,27.7-73.2,37.72-39.23,28.76-38.77,48.89c-.56,18.67,2.8,54.27,14,58.52,8.85,5,.47-18.09,10.74-28.49,8.7-8.53,22-12.87,35.43-11.53,9.31,1.15-9.31,30.41,15.83,37.35s56.88,7.31,63.86,0,31.23-26.18,40.1-37.35c7,12.32,21,26.18,37.25,28.83s54.08,3.85,57.81,0,25.61-23.85,27.49-31.18-30.26,9.61-60.53,6.56c-30.27-3.85-9.31-50.82-15.83-60.45-8.85-12.32-20.7-16.38-29.1-16.76-18-.91-35.56.88-39.93-22.9" transform="translate(0 0)" fill="#457c99"/><path d="M533,671.15s-7.45,11.17-8.4,20.8.93,16.17,8.4,15.38c16.79-2.31,16.79-32.68,22.38-40C557.67,663.44,533,671.15,533,671.15Z" transform="translate(0 0)" fill="#a09792"/><path d="M497.5,690s12.62,30.55,24.17,26.45c23.63-6.86-3.64-43.78-3.64-43.78Z" transform="translate(0 0)" fill="#938175"/><path d="M363.38,502.87s-7.87,31.87,11,44.87c22.36,17.3,65.8,32.78,76.07,51S479.2,690.87,502,699.31s23.65-9.11,22-22.78c0-5.77-28.38-93.67-41-108.66-27.56-32.53,48.06,9.76,58.21,26.66s3.14,52.7-11,78.08c-5.49,9.11,16.55,10.42,22,7.8s41.77-63.1,40.18-91.72c-3.14-39-71.71-52-103.21-74.83C479.11,502.87,363.38,502.87,363.38,502.87Z" transform="translate(0 0)" fill="#d85a4c"/><path d="M517.34,716.69s13.79-.23,14-17.76c16.83-4.12,44.24,16.4,40.28,36.68-2.21,10.25-33.39,6.36-54.36-18.92" transform="translate(0 0)" fill="#457c99"/><path d="M389.38,429c-6,3.65-9,9.72-7.93,15.79,1.86,10.4,5.12,16.55,36.83,26.18" transform="translate(0 0)" fill="none" stroke="#18669b" stroke-width="1.5"/><path d="M499.25,311.4s-6.66,19.53,23.66,35.53c12.57,6.69,7.94-23.8,7.94-23.8s57.18,7.55,61.46-9.62c3.59-15.7-9.48-25.22-17.48-26.41-19.45-3.23-21.4,6.88-26,6.88-5.24-.13-6.13-5.27-20.72-5.27s-26.8,12.69-28.9,22.71" transform="translate(0 0)" fill="#5e5d43"/><path d="M356.16,495.91c-2.14-23.32,14.86-32.59,32-33.15,17.39-1.56,17.37,7.36,40.32,5.9s44-11.2,64-10.34C520.18,459.51,532,482,523.4,487s-23.29-13-34.79-14.8c-19.72-3.25-61.74,23.07-70.7,23.69S356.16,495.91,356.16,495.91Z" transform="translate(0 0)" fill="#938175"/><path d="M646.74,256.57H790.07c6.43,0,11.64,4.3,11.64,9.61v48.45c0,5.31-5.21,9.61-11.64,9.61H646.74c-6.43,0-11.64-4.3-11.64-9.61V266.32c-.09-5.31,5-9.68,11.48-9.75Z" transform="translate(0 0)" fill="#609374"/><path d="M700.73,322.84l18.84,20.74,17.2-20.74Z" transform="translate(0 0)" fill="#609374"/><path d="M655.5,266.32H787.09a2.71,2.71,0,0,1,2.93,2.42h0a2.71,2.71,0,0,1-2.93,2.42H655.5a2.71,2.71,0,0,1-2.93-2.42h0A2.71,2.71,0,0,1,655.5,266.32Zm0,7.24h61.44a2.73,2.73,0,0,1,2.94,2.43h0a2.73,2.73,0,0,1-2.94,2.42H655.5a2.72,2.72,0,0,1-3-2.4h0a2.71,2.71,0,0,1,2.91-2.45Zm0,14.5h79a2.71,2.71,0,0,1,2.93,2.42h0a2.71,2.71,0,0,1-2.93,2.42h-79a2.71,2.71,0,0,1-2.93-2.42h0a2.71,2.71,0,0,1,2.91-2.44h0Zm0,7.25h61.44a2.72,2.72,0,0,1,2.94,2.42h0a2.72,2.72,0,0,1-2.94,2.42H655.5a2.71,2.71,0,0,1-2.93-2.42h0a2.71,2.71,0,0,1,2.91-2.44h0Zm0,7.25h114a2.74,2.74,0,0,1,2.94,2.38h0a2.72,2.72,0,0,1-2.94,2.42h-114a2.71,2.71,0,0,1-2.93-2.42h0a2.71,2.71,0,0,1,2.93-2.4Zm0,7.24H763.69a2.72,2.72,0,0,1,2.93,2.43h0a2.72,2.72,0,0,1-2.93,2.42H655.5a2.72,2.72,0,0,1-2.93-2.42h0a2.71,2.71,0,0,1,2.91-2.45h0Zm0-29H784.11a2.72,2.72,0,0,1,2.93,2.42h0a2.73,2.73,0,0,1-2.93,2.39H655.5a2.72,2.72,0,0,1-3-2.4h0a2.72,2.72,0,0,1,2.93-2.42Z" transform="translate(0 0)" fill="#fff" opacity="0.2" style="isolation:isolate"/><path d="M506.84,494.41v-5.77h84.31l53.54-93.71H784.11l-51.22,99.55h-226Z" transform="translate(0 0)" fill="#609374"/><ellipse cx="696.4" cy="442.65" rx="14.62" ry="12.07" fill="#fff" opacity="0.4" style="isolation:isolate"/><path d="M595.06,481.74s85.12-75.21,182.83-75.21c11-18.21,5.49-10.42,5.49-10.42H644.74Z" transform="translate(0 0)" fill="#325a6e"/><rect x="222.5" y="495.77" width="561.65" height="24.15" fill="#5b627e"/><path d="M243,520h23.28V737.32c0,5.31-5.21,9.61-11.64,9.61h0c-6.43,0-11.64-4.3-11.64-9.61Z" transform="translate(0 0)" fill="#5b627e"/><path d="M257.61,520h5.89V742.17c0,2.66-2.62,4.81-5.84,4.82h0Z" transform="translate(0 0)" fill="#494c56"/><path d="M743.22,520H766.5V737.32c0,5.31-5.22,9.61-11.65,9.61h0c-6.42,0-11.64-4.3-11.64-9.61Z" transform="translate(0 0)" fill="#5b627e"/><path d="M757.84,520h5.85V742.17c0,2.66-2.62,4.81-5.85,4.82h0Z" transform="translate(0 0)" fill="#494c56"/><rect x="222.5" y="515.09" width="561.65" height="4.83" fill="#777982"/><path d="M362.91,292.87h96.53c6.43,0,11.64,4.3,11.64,9.61V329c0,5.31-5.21,9.61-11.64,9.61H362.91c-6.43,0-11.64-4.3-11.64-9.61V302.54c0-5.31,5.14-9.64,11.57-9.67Z" transform="translate(0 0)" fill="#609374"/><path d="M399.42,337.32l12.08,13.32,11-13.32Z" transform="translate(0 0)" fill="#609374"/><path d="M382.12,321.53c-4.84-4.15-4.84-10.71,0-14.86a13.75,13.75,0,0,1,8.89-2.92,14.74,14.74,0,0,1,7.13,1.67,9.74,9.74,0,0,1,4.45,4.73h-5.92A6.07,6.07,0,0,0,391,307.5a8,8,0,0,0-5.43,1.82,6.61,6.61,0,0,0-.28,9.34l.28.28a8,8,0,0,0,5.43,1.82,6.15,6.15,0,0,0,5.63-2.65h5.92a9.74,9.74,0,0,1-4.45,4.71,14.83,14.83,0,0,1-7.13,1.65A13.69,13.69,0,0,1,382.12,321.53ZM414.72,307a4.16,4.16,0,0,0-2.33.61,1.92,1.92,0,0,0-.93,1.71,2.13,2.13,0,0,0,.69,1.71,4.52,4.52,0,0,0,1.82,1,20.36,20.36,0,0,0,2.45.6c.9.17,1.79.39,2.67.63a13.71,13.71,0,0,1,2.45.93,4.21,4.21,0,0,1,1.81,1.61,4.54,4.54,0,0,1,.7,2.56,5.23,5.23,0,0,1-2.33,4.31,10.41,10.41,0,0,1-6.4,1.8,11.84,11.84,0,0,1-6.45-1.55,4.87,4.87,0,0,1-2.44-4.37h5.17a3,3,0,0,0,3.22,2.68h.48a4.53,4.53,0,0,0,2.68-.71,2.34,2.34,0,0,0,1-1.92,2.11,2.11,0,0,0-1.28-1.92,10.53,10.53,0,0,0-3.15-1c-1.23-.23-2.44-.52-3.7-.85a7,7,0,0,1-3.14-1.71,4.22,4.22,0,0,1-1.28-3.25,5,5,0,0,1,2.33-4.4,10.64,10.64,0,0,1,6.21-1.65,11.49,11.49,0,0,1,6.12,1.44,5.28,5.28,0,0,1,2.54,4.36h-5.4a2.58,2.58,0,0,0-1.05-1.92,4.38,4.38,0,0,0-2.37-.59Zm21.9,0a4.21,4.21,0,0,0-2.32.61,2,2,0,0,0-.94,1.71,2.17,2.17,0,0,0,.7,1.71,4.52,4.52,0,0,0,1.82,1,20.2,20.2,0,0,0,2.44.6c.91.17,1.8.39,2.68.63a15.43,15.43,0,0,1,2.45.93,4.4,4.4,0,0,1,1.81,1.61,4.73,4.73,0,0,1,.7,2.56,5.23,5.23,0,0,1-2.33,4.31,10.48,10.48,0,0,1-6.4,1.8,11.84,11.84,0,0,1-6.45-1.55,4.87,4.87,0,0,1-2.44-4.37h5.26a3,3,0,0,0,3.22,2.68h.48a4.53,4.53,0,0,0,2.68-.71,2.34,2.34,0,0,0,1-1.92,2.11,2.11,0,0,0-1.28-1.92,10.26,10.26,0,0,0-3.15-1c-1.23-.23-2.44-.52-3.7-.85a7,7,0,0,1-3.14-1.71,4.22,4.22,0,0,1-1.28-3.25,5,5,0,0,1,2.33-4.4,10.64,10.64,0,0,1,6.21-1.65,11.5,11.5,0,0,1,6.13,1.44,5.27,5.27,0,0,1,2.53,4.36h-5.4a2.58,2.58,0,0,0-1.05-1.92,4.32,4.32,0,0,0-2.46-.59Z" transform="translate(0 0)" fill="#fff"/><ellipse cx="814.86" cy="356.89" rx="33.64" ry="27.78" fill="#609374"/><path d="M828.85,353.29h-4.93l-1.12,4.37h4.08V361h-4.94l-1.12,4.39h-4.24L817.7,361h-5.89l-1.12,4.39H806.5l1.11-4.39h-4.84v-3.3h5.73l1.12-4.37h-5.06V350h5.8l1.1-4.26h4.23L814.63,350h5.87l1.09-4.26h4.24L824.76,350h4.07Zm-10.29,4.35,1.12-4.37h-5.89l-1.12,4.37Z" transform="translate(0 0)" fill="#fff"/><rect x="775.37" y="208.33" width="55.57" height="7.25" fill="#609374"/><polygon points="781.33 226.63 818.51 192.51 825.04 197.38 787.85 231.47 781.33 226.63" fill="#609374"/><polygon points="781.3 197.35 787.83 192.51 825.01 226.63 818.49 231.47 781.3 197.35" fill="#609374"/><rect x="798.77" y="189.01" width="8.78" height="45.89" fill="#609374"/><ellipse cx="803.17" cy="211.95" rx="21.93" ry="18.11" fill="#609374"/><ellipse cx="803.17" cy="211.95" rx="13.15" ry="10.86" fill="#609374"/><ellipse cx="803.17" cy="211.95" rx="11.69" ry="9.65" fill="none" stroke="#fff" stroke-width="6"/><rect x="839.72" y="244.57" width="87.77" height="12.07" fill="#609374"/><polygon points="848.97 274.19 906.96 221.01 917.13 228.59 859.15 281.76 848.97 274.19" fill="#609374"/><polygon points="848.97 228.57 859.14 221 917.13 274.19 906.95 281.75 848.97 228.57" fill="#609374"/><rect x="874.83" y="215.58" width="14.62" height="72.48" fill="#609374"/><ellipse cx="883.61" cy="251.8" rx="35.09" ry="28.97" fill="#609374"/><ellipse cx="883.61" cy="251.82" rx="20.46" ry="16.9" fill="#609374"/><ellipse cx="883.61" cy="251.82" rx="19.02" ry="15.71" fill="none" stroke="#fff" stroke-width="6"/><path d="M285,454.17c-.38-4.44-25.45-20.15,1.79-20.42s-16.14-26.36-16.14-26.36,9.69,12.44,1.8,16.29S250.18,426,254.5,435.21s26.89,17.46,28.66,23.4S285,460.63,285,454.17Z" transform="translate(0 0)" fill="#367493" opacity="0.2" style="isolation:isolate"/><path d="M289.81,464.38h20.46c3.24,0,5.87,2.17,5.87,4.84h0v9.61c0,2.66-2.62,4.82-5.84,4.83H289.81Z" transform="translate(0 0)" fill="none"/><path d="M292.72,465.59h17.55c2.42,0,4.38,1.62,4.38,3.61h0v9.61c0,2-2,3.62-4.38,3.62H292.72a1.35,1.35,0,0,1-1.47-1.17V466.72A1.36,1.36,0,0,1,292.72,465.59Z" transform="translate(0 0)" fill="none" stroke="#457c99"/><path d="M257.61,452.3H304.5V491c0,2.66-2.62,4.81-5.84,4.82H263.5c-3.22,0-5.83-2.16-5.84-4.82Z" transform="translate(0 0)" fill="#457c99"/><ellipse cx="613" cy="228.85" rx="30.71" ry="25.36" fill="#609374"/><path d="M597.85,228.71l6.4,5.4h-5.16l-6.38-5.4,6.38-5.4h5.16Zm10.66,13,8-27.24h4l-7.91,27.24Zm15.77-7.56,6.38-5.4-6.38-5.4h5.14l6.38,5.4-6.38,5.4Z" transform="translate(0 0)" fill="#fff"/><path d="M808.55,623.52s-6.7,6.12-20.25-6.53c0,0,17.6-2.87,20.65,5.67Z" transform="translate(0 0)" fill="#f6865c"/><path d="M809.3,622.66s10,0,8-16.69c0,0-14.5,8.69-9,16.36Z" transform="translate(0 0)" fill="#f6865c"/><path d="M849.72,583.06s-9.22,3.28-15.22-12.83c0,0,17.44,3.39,16,12.19Z" transform="translate(0 0)" fill="#005689"/><path d="M851.44,582s9.08,3.5,15.62-12.48c0,0-17.55,3-16.3,11.82Zm-1.94,14.64s-9.76,3.5-16.16-13.63c0,0,18.62,3.57,17,13Z" transform="translate(0 0)" fill="#005689"/><path d="M851.27,595.53s9.64,3.71,16.58-13.28c0,0-18.62,3.17-17.39,12.59Zm-2.09,16.56s-10.8,3.84-17.88-15.1c0,0,20.56,4,18.79,14.33Z" transform="translate(0 0)" fill="#005689"/><path d="M851.16,610.84s10.68,4.11,18.34-14.67c0,0-20.65,3.5-19.25,13.92Zm-2,17.49s-10.83,3.85-17.9-15.13c0,0,20.58,4,18.83,14.36Z" transform="translate(0 0)" fill="#005689"/><path d="M851.16,627.1s10.71,4.12,18.39-14.71c0,0-20.7,3.52-19.3,13.94Zm-3.66,13.46s-7.78,2.79-12.88-10.86c0,0,14.76,2.86,13.53,10.32Z" transform="translate(0 0)" fill="#005689"/><path d="M849,640s7.15,3.85,14.81-9c0,0-15.14.88-15.37,8.42Zm-1,10.4s5.87,3.1,12.16-7.4c0,0-12.44.71-12.62,6.92Z" transform="translate(0 0)" fill="#005689"/><path d="M847.76,650.38s-5.87,3.1-12.15-7.4c0,0,12.43.71,12.62,6.92Z" transform="translate(0 0)" fill="#005689"/><path d="M815.56,636.5s-7.73,7-23.28-7.5c0,0,20.21-3.28,23.72,6.54Z" transform="translate(0 0)" fill="#f6865c"/><path d="M816.4,635.5s11.5.1,9.17-19.22c0,0-16.67,10-10.36,18.78Zm5.35,14.92s-8.66,7.86-26-8.36c0,0,22.58-3.69,26.52,7.28Z" transform="translate(0 0)" fill="#f6865c"/><path d="M822.73,649.31s12.88.11,10.27-21.44c0,0-18.63,11.17-11.64,21Zm4.49,17.3s-9.31,7.27-25.09-10.06c0,0,22.88-2.19,25.75,9Z" transform="translate(0 0)" fill="#f6865c"/><path d="M828.34,665.53s12.81,1,12.3-20.68c0,0-19.65,9.92-13.56,20.18Z" transform="translate(0 0)" fill="#f6865c"/><path d="M886.55,626.58s7,5.9,19.9-7.21c0,0-17.71-2.25-20.32,6.38Z" transform="translate(0 0)" fill="#1f7ebf"/><path d="M885.66,625.7s-10,.42-8.82-16.4c0,0,14.95,8.19,9.85,16Zm-5.54,14s8.08,6.75,22.86-8.28c0,0-20.34-2.6-23.28,7.32Z" transform="translate(0 0)" fill="#1f7ebf"/><path d="M879.19,638.77s-11.5.52-10.13-18.84c0,0,17.18,9.42,11.29,18.42ZM874.5,653.9s9.06,7.56,25.61-9.27c0,0-22.74-2.9-26.12,8.19Z" transform="translate(0 0)" fill="#1f7ebf"/><path d="M873.6,652.81s-12.83.57-11.34-21.15c0,0,19.19,10.51,12.65,20.59Zm-3.6,17.3s9.74,6.94,24.59-10.9c0,0-23-1.39-25.26,9.86Z" transform="translate(0 0)" fill="#1f7ebf"/><path d="M868.88,669.2s-12.74,1.39-13.32-20.26c0,0,20.11,9.23,14.57,19.69ZM890,616.08s-6.54-6.26,10.32-15.8c0,0,1.3,14.77-9.32,16.23Z" transform="translate(0 0)" fill="#1f7ebf"/><path d="M863.5,693.51s3.59-31.9,27.71-77.81" transform="translate(0 0)" fill="none" stroke="#001422" stroke-miterlimit="10" stroke-width="4"/><path d="M843.92,691.06s9.82-92.87,5.68-119.44" transform="translate(0 0)" fill="none" stroke="#001422" stroke-miterlimit="10" stroke-width="4"/><path d="M849.76,572.23s8.9-3.84-2.33-17.82c0,0-7.91,13.28,1.31,17.94Z" transform="translate(0 0)" fill="#005689"/><path d="M834.91,689.62s-5.24-31.72-31.64-76.77" transform="translate(0 0)" fill="none" stroke="#001422" stroke-miterlimit="10" stroke-width="4"/><path d="M884.64,745.22a1.53,1.53,0,0,1-1.63,1.37H818.24a1.51,1.51,0,0,1-1.63-1.35h0l-3.31-64.73a1.54,1.54,0,0,1,1.66-1.37h71.38a1.54,1.54,0,0,1,1.66,1.37Z" transform="translate(0 0)" fill="#457c99"/></g></svg>