<svg id="Layer_2" data-name="Layer 2" xmlns="http://www.w3.org/2000/svg" viewBox="0 0 1236.85 906.5">
  <g>
    <rect x="537.07" width="128.06" height="128.06" />
    <rect x="537.07" y="160.99" width="128.06" height="128.06" />
    <rect x="537.07" y="321.99" width="128.06" height="128.06" />
    <rect x="381.57" y="160.99" width="128.06" height="128.06" />
    <rect x="381.57" y="321.99" width="128.06" height="128.06" />
    <rect x="226.07" y="160.99" width="128.06" height="128.06" />
    <rect x="226.07" y="321.99" width="128.06" height="128.06" />
    <rect x="72.39" y="321.99" width="128.06" height="128.06" />
    <rect x="692.58" y="321.99" width="128.06" height="128.06" />
    <path d="M483.3,1136.25C11.65,1136.25,66.53,721,66.53,721H854c132.79,0,176.7-42.08,176.7-42.08s-75-97,12.81-214c98.79,56.71,95.13,140.87,95.13,140.87s100.62-32.94,162.82,23.78C1266.66,742.91,1113,735.6,1113,735.6S970.29,1136.25,483.3,1136.25Z" transform="translate(-64.58 -229.75)" />
  </g>
</svg>
