<svg id="SvgjsSvg1001" xmlns="http://www.w3.org/2000/svg" xmlns:xlink="http://www.w3.org/1999/xlink" viewBox="0 0 281.34 265.38"><defs><clipPath id="clip-path"><polygon points="-23.83 -187.89 -24.12 -187.89 -23.83 -188.15 -23.83 -187.89" fill="none" clip-path="url(#clip-path-26)"/></clipPath><linearGradient id="linear-gradient" x1="6189.46" y1="-3768.87" x2="6189.46" y2="-3939.79" gradientTransform="matrix(0.11, 0, 0, -0.11, -439.98, -253.27)" gradientUnits="userSpaceOnUse"><stop offset="0" stop-color="#bc5e44"/><stop offset="1" stop-color="#381c14"/></linearGradient><linearGradient id="linear-gradient-2" x1="6182.53" y1="-3768.87" x2="6182.53" y2="-3939.79" xlink:href="#linear-gradient"/><linearGradient id="linear-gradient-3" x1="3819.32" y1="-3879.05" x2="4309.02" y2="-4059.09" xlink:href="#linear-gradient"/><linearGradient id="linear-gradient-4" x1="3813.87" y1="-3884.05" x2="4307.83" y2="-4065.69" xlink:href="#linear-gradient"/><linearGradient id="linear-gradient-5" x1="4218.02" y1="-4220.22" x2="4478.73" y2="-4321.97" xlink:href="#linear-gradient"/><linearGradient id="linear-gradient-6" x1="4215.01" y1="-4224.22" x2="4477.75" y2="-4326.77" xlink:href="#linear-gradient"/><linearGradient id="linear-gradient-7" x1="5283.74" y1="-4097.42" x2="5393.49" y2="-4408.39" xlink:href="#linear-gradient"/><linearGradient id="linear-gradient-8" x1="5281.71" y1="-4093.58" x2="5394.25" y2="-4412.45" xlink:href="#linear-gradient"/><linearGradient id="linear-gradient-9" x1="4659.19" y1="-4055.25" x2="4924.43" y2="-4373.06" xlink:href="#linear-gradient"/><linearGradient id="linear-gradient-10" x1="4650.66" y1="-4057.98" x2="4919.22" y2="-4379.76" xlink:href="#linear-gradient"/><linearGradient id="linear-gradient-11" x1="6086.3" y1="-4157.1" x2="5177" y2="-4157.1" xlink:href="#linear-gradient"/><linearGradient id="linear-gradient-12" x1="5903.1" y1="-4388.47" x2="5274.18" y2="-4396.18" xlink:href="#linear-gradient"/><linearGradient id="linear-gradient-13" x1="5983.25" y1="-3907.97" x2="6414.4" y2="-4136.03" xlink:href="#linear-gradient"/><linearGradient id="linear-gradient-14" x1="5901.83" y1="-4288.49" x2="5272.55" y2="-4296.2" xlink:href="#linear-gradient"/><linearGradient id="linear-gradient-15" x1="5901.26" y1="-4241.82" x2="5272.06" y2="-4249.52" xlink:href="#linear-gradient"/><linearGradient id="linear-gradient-16" x1="5901.23" y1="-4240.68" x2="5271.95" y2="-4248.38" xlink:href="#linear-gradient"/><linearGradient id="linear-gradient-17" x1="5962.33" y1="-4512.3" x2="5382.38" y2="-4502.04" xlink:href="#linear-gradient"/><linearGradient id="linear-gradient-18" x1="5963.33" y1="-4478.24" x2="5382.86" y2="-4467.97" xlink:href="#linear-gradient"/><linearGradient id="linear-gradient-19" x1="5976.61" y1="-3910.62" x2="6412.99" y2="-4141.44" xlink:href="#linear-gradient"/><linearGradient id="linear-gradient-20" x1="5959.17" y1="-4337.63" x2="6168.52" y2="-4518.36" xlink:href="#linear-gradient"/><linearGradient id="linear-gradient-21" x1="5946.23" y1="-4346.68" x2="6160.29" y2="-4531.49" xlink:href="#linear-gradient"/><linearGradient id="linear-gradient-22" x1="5501.83" y1="-4183.92" x2="5923.66" y2="-4404.75" xlink:href="#linear-gradient"/><linearGradient id="linear-gradient-23" x1="5503.84" y1="-4171.01" x2="5931.91" y2="-4395.11" xlink:href="#linear-gradient"/><linearGradient id="linear-gradient-24" x1="4397.11" y1="-3678.81" x2="4365.3" y2="-3989.39" xlink:href="#linear-gradient"/><linearGradient id="linear-gradient-25" x1="4389.45" y1="-3678.64" x2="4357.72" y2="-3988.4" xlink:href="#linear-gradient"/><clipPath id="clip-path-26"><polygon points="-23.25 -187.38 -22.96 -187.38 -23.25 -187.13 -23.25 -187.38" fill="none"/></clipPath><linearGradient id="linear-gradient-26" x1="6405.92" y1="6190.75" x2="6598.57" y2="6131.01" gradientTransform="translate(-854.18 -737.1) scale(0.14)" gradientUnits="userSpaceOnUse"><stop offset="0" stop-color="#8c2306"/><stop offset="0.45" stop-color="#9e2c0d"/><stop offset="1" stop-color="#b23614"/></linearGradient><linearGradient id="linear-gradient-27" x1="6466.61" y1="6510.22" x2="6313.81" y2="6626.9" gradientTransform="translate(-854.18 -737.1) scale(0.14)" gradientUnits="userSpaceOnUse"><stop offset="0" stop-color="#2e1711"/><stop offset="1" stop-color="#452016"/></linearGradient><linearGradient id="linear-gradient-28" x1="6528.77" y1="6594.64" x2="6376.89" y2="6710.61" xlink:href="#linear-gradient-27"/><linearGradient id="linear-gradient-29" x1="6376.22" y1="6675.58" x2="6323.89" y2="6954.06" gradientTransform="translate(-854.18 -737.1) scale(0.14)" gradientUnits="userSpaceOnUse"><stop offset="0" stop-color="#d38e7b"/><stop offset="0.49" stop-color="#c77964"/><stop offset="1" stop-color="#bd6750"/></linearGradient><linearGradient id="linear-gradient-30" x1="6279.78" y1="6653.31" x2="6226.71" y2="6935.71" xlink:href="#linear-gradient-29"/><linearGradient id="linear-gradient-31" x1="6333.64" y1="6370.58" x2="6392.42" y2="6655.14" xlink:href="#linear-gradient-29"/><linearGradient id="linear-gradient-32" x1="6333.69" y1="6203.62" x2="6343.66" y2="6250.67" xlink:href="#linear-gradient-29"/><linearGradient id="linear-gradient-33" x1="6301.9" y1="6210.63" x2="6311.85" y2="6257.55" xlink:href="#linear-gradient-29"/><linearGradient id="linear-gradient-34" x1="6237.28" y1="6288.42" x2="6171.55" y2="6401.89" xlink:href="#linear-gradient-26"/><linearGradient id="linear-gradient-35" x1="6351.88" y1="5423.09" x2="6501.49" y2="5272.12" gradientTransform="translate(-854.18 -737.1) scale(0.14)" gradientUnits="userSpaceOnUse"><stop offset="0" stop-color="#a1a0a0"/><stop offset="1" stop-color="#fff"/></linearGradient><linearGradient id="linear-gradient-36" x1="6382.57" y1="5265" x2="6382.57" y2="5265" xlink:href="#linear-gradient-35"/><linearGradient id="linear-gradient-37" x1="5577.68" y1="-4322.97" x2="6103.1" y2="-3948.69" gradientTransform="matrix(0.11, 0, 0, -0.11, -439.98, -253.27)" gradientUnits="userSpaceOnUse"><stop offset="0" stop-color="#c97f6b"/><stop offset="0.16" stop-color="#ce8976"/><stop offset="0.4" stop-color="#d9a597"/><stop offset="0.69" stop-color="#ecd1ca"/><stop offset="0.95" stop-color="#fff"/></linearGradient><linearGradient id="linear-gradient-38" x1="5640.77" y1="-4433.45" x2="6187.61" y2="-4043.92" xlink:href="#linear-gradient-37"/><mask id="mask" x="-26.93" y="-188.15" width="284.75" height="378.2" maskUnits="userSpaceOnUse"><g transform="translate(-2.82 -0.01)"><g id="oJ"><g clip-path="url(#clip-path)"><path d="M259.59,186.91a1.48,1.48,0,0,0-1.8.86c-.07.2-.14.39-.22.59a1.26,1.26,0,0,0,.92,1.62h0a1.47,1.47,0,0,0,.46.07,1.44,1.44,0,0,0,1.38-.88l.24-.67A1.27,1.27,0,0,0,259.59,186.91Z" fill="url(#linear-gradient)"/></g></g></g></mask><linearGradient id="linear-gradient-39" x1="6189.46" y1="-3768.87" x2="6189.46" y2="-3939.79" gradientTransform="matrix(0.11, 0, 0, -0.11, -439.98, -253.27)" gradientUnits="userSpaceOnUse"><stop offset="0" stop-color="#fff"/><stop offset="1" stop-color="#fff"/></linearGradient><mask id="mask-2" x="-26.93" y="-188.15" width="285.45" height="373.74" maskUnits="userSpaceOnUse"><g transform="translate(-2.82 -0.01)"><g id="oL"><g clip-path="url(#clip-path)"><path d="M261.3,183.6a5.29,5.29,0,0,0-4.15-4.94,1.5,1.5,0,0,0-1.84.8,1.24,1.24,0,0,0,.89,1.62,2.69,2.69,0,0,1,2.21,2.71c0,.17,0,.34,0,.51a1.38,1.38,0,0,0,1.45,1.29h0a1.38,1.38,0,0,0,1.45-1.29A5.47,5.47,0,0,0,261.3,183.6Z" fill="url(#linear-gradient-2)"/></g></g></g></mask><linearGradient id="linear-gradient-40" x1="6182.53" y1="-3768.87" x2="6182.53" y2="-3939.79" xlink:href="#linear-gradient-39"/><mask id="mask-3" x="-26.93" y="-188.15" width="306.23" height="401.38" maskUnits="userSpaceOnUse"><g transform="translate(-2.82 -0.01)"><g id="oN"><g clip-path="url(#clip-path)"><path d="M282,211.36c-.07-.12-.15-.24-.23-.36a1.55,1.55,0,0,0-2-.48,1.2,1.2,0,0,0-.56,1.74l0,.06a1.64,1.64,0,0,1,.14.22,1.5,1.5,0,0,0,1.29.69,1.63,1.63,0,0,0,.66-.14,1.21,1.21,0,0,0,.63-1.73Z" fill="url(#linear-gradient-13)"/></g></g></g></mask><linearGradient id="linear-gradient-41" x1="5983.25" y1="-3907.97" x2="6414.4" y2="-4136.03" xlink:href="#linear-gradient-39"/><mask id="mask-4" x="-26.93" y="-188.15" width="303.01" height="398.46" maskUnits="userSpaceOnUse"><g transform="translate(-2.82 -0.01)"><g id="oP"><g clip-path="url(#clip-path)"><path d="M278.25,208a26.67,26.67,0,0,0-12.92-3,1.29,1.29,0,1,0,0,2.57,23.42,23.42,0,0,1,11.32,2.56,1.57,1.57,0,0,0,2-.37,1.2,1.2,0,0,0-.42-1.78Z" fill="url(#linear-gradient-19)"/></g></g></g></mask><linearGradient id="linear-gradient-42" x1="5976.61" y1="-3910.62" x2="6412.99" y2="-4141.44" xlink:href="#linear-gradient-39"/><mask id="mask-5" x="-26.93" y="-188.15" width="279.24" height="443.98" maskUnits="userSpaceOnUse"><g transform="translate(-2.82 -0.01)"><g id="oR"><g clip-path="url(#clip-path)"><path d="M255,254.06c-.07-.16-.15-.31-.23-.47a1.54,1.54,0,0,0-1.92-.63,1.22,1.22,0,0,0-.71,1.7c.06.12.12.26.18.37a1.46,1.46,0,0,0,1.34.8,1.68,1.68,0,0,0,.55-.1A1.23,1.23,0,0,0,255,254.06Z" fill="url(#linear-gradient-20)"/></g></g></g></mask><linearGradient id="linear-gradient-43" x1="5959.17" y1="-4337.63" x2="6168.52" y2="-4518.36" xlink:href="#linear-gradient-39"/><mask id="mask-6" x="-26.93" y="-188.15" width="275.22" height="439.22" maskUnits="userSpaceOnUse"><g transform="translate(-2.82 -0.01)"><g id="oT"><g clip-path="url(#clip-path)"><path d="M237.29,244.74a1.29,1.29,0,1,0,0,2.56,18.64,18.64,0,0,1,11.41,3.46,1.59,1.59,0,0,0,2.05-.14,1.17,1.17,0,0,0-.16-1.8h0A21.67,21.67,0,0,0,237.29,244.74Z" fill="url(#linear-gradient-21)"/></g></g></g></mask><linearGradient id="linear-gradient-44" x1="5946.23" y1="-4346.68" x2="6160.29" y2="-4531.49" xlink:href="#linear-gradient-39"/><mask id="mask-7" x="-26.93" y="-188.15" width="247.1" height="430.08" maskUnits="userSpaceOnUse"><g transform="translate(-2.82 -0.01)"><g id="oV"><g clip-path="url(#clip-path)"><path d="M222.87,240.16c-.15-.33-.32-.67-.5-1a1.5,1.5,0,0,0-1.88-.71,1.23,1.23,0,0,0-.81,1.66l.08.15c.15.28.29.58.44.86a1.53,1.53,0,0,0,1.89.7A1.23,1.23,0,0,0,222.87,240.16Z" fill="url(#linear-gradient-22)"/></g></g></g></mask><linearGradient id="linear-gradient-45" x1="5501.83" y1="-4183.92" x2="5923.66" y2="-4404.75" xlink:href="#linear-gradient-39"/><mask id="mask-8" x="-26.93" y="-188.15" width="242.82" height="424.31" maskUnits="userSpaceOnUse"><g transform="translate(-2.82 -0.01)"><g id="oX"><g clip-path="url(#clip-path)"><path d="M197,226.94a1.29,1.29,0,1,0,0,2.56c7.93,0,14.74,2.23,19.19,6.27a1.59,1.59,0,0,0,2.06,0,1.17,1.17,0,0,0,0-1.81C213.28,229.44,205.73,226.94,197,226.94Z" fill="url(#linear-gradient-23)"/></g></g></g></mask><linearGradient id="linear-gradient-46" x1="5503.84" y1="-4171.01" x2="5931.91" y2="-4395.11" xlink:href="#linear-gradient-39"/><linearGradient id="linear-gradient-47" x1="5368.17" y1="-3951.59" x2="6215.8" y2="-3951.59" gradientTransform="matrix(0.11, 0, 0, -0.11, -439.98, -253.27)" gradientUnits="userSpaceOnUse"><stop offset="0" stop-color="#c97f6b"/><stop offset="0.4" stop-color="#d9a597"/><stop offset="1" stop-color="#ce8976"/></linearGradient><linearGradient id="linear-gradient-48" x1="5368.17" y1="-4298.96" x2="6215.8" y2="-4298.96" gradientTransform="matrix(0.11, 0, 0, -0.11, -439.98, -253.27)" gradientUnits="userSpaceOnUse"><stop offset="0" stop-color="#c97f6b"/><stop offset="0.16" stop-color="#ce8976"/><stop offset="0.54" stop-color="#d9a597"/><stop offset="1" stop-color="#ecd1ca"/></linearGradient><linearGradient id="linear-gradient-49" x1="4608.13" y1="-4380.97" x2="4318.5" y2="-3856.85" xlink:href="#linear-gradient-37"/><linearGradient id="linear-gradient-50" x1="4401.5" y1="-4498.36" x2="4102.04" y2="-3956.46" xlink:href="#linear-gradient-37"/><mask id="mask-9" x="-26.93" y="-188.15" width="79.16" height="383" maskUnits="userSpaceOnUse"><g transform="translate(-2.82 -0.01)"><g id="pd"><g clip-path="url(#clip-path)"><path d="M53.88,191.32a1.45,1.45,0,0,0-1.71,1c-.07.31-.15.63-.23.95A1.29,1.29,0,0,0,53,194.82h0a1.66,1.66,0,0,0,.32,0,1.42,1.42,0,0,0,1.41-1c.09-.34.17-.68.24-1a1.3,1.3,0,0,0-1.12-1.52Z" fill="url(#linear-gradient-24)"/></g></g></g></mask><linearGradient id="linear-gradient-51" x1="4397.11" y1="-3678.81" x2="4365.3" y2="-3989.39" xlink:href="#linear-gradient-39"/><mask id="mask-10" x="-26.93" y="-188.15" width="80.12" height="376.53" maskUnits="userSpaceOnUse"><g transform="translate(-2.82 -0.01)"><g id="pf"><g clip-path="url(#clip-path)"><path d="M54.56,175.27a1.5,1.5,0,0,0-1.82-.84,1.25,1.25,0,0,0-1,1.6h0A27.21,27.21,0,0,1,53,187a1.34,1.34,0,0,0,1.34,1.37h.1a1.38,1.38,0,0,0,1.45-1.2A29.1,29.1,0,0,0,54.56,175.27Z" fill="url(#linear-gradient-25)"/></g></g></g></mask><linearGradient id="linear-gradient-52" x1="4389.45" y1="-3678.64" x2="4357.72" y2="-3988.4" xlink:href="#linear-gradient-39"/><mask id="mask-11" x="-26.93" y="-188.15" width="66.11" height="392.53" maskUnits="userSpaceOnUse"><g transform="translate(-2.82 -0.01)"><g id="ph"><g clip-path="url(#clip-path)"><path d="M41.44,202.09c-.45-.31-.92-.62-1.42-.91a1.57,1.57,0,0,0-2,.31,1.19,1.19,0,0,0,.36,1.79l0,0a14.13,14.13,0,0,1,1.25.81,1.59,1.59,0,0,0,2-.21,1.18,1.18,0,0,0-.23-1.8Z" fill="url(#linear-gradient-3)"/></g></g></g></mask><linearGradient id="linear-gradient-53" x1="3819.32" y1="-3879.05" x2="4309.02" y2="-4059.09" xlink:href="#linear-gradient-39"/><mask id="mask-12" x="-26.93" y="-188.15" width="59.53" height="389.21" maskUnits="userSpaceOnUse"><g transform="translate(-2.82 -0.01)"><g id="pj"><g clip-path="url(#clip-path)"><path d="M34.46,198.57a47.74,47.74,0,0,0-16-2.75,1.29,1.29,0,1,0,0,2.56,44.8,44.8,0,0,1,14.88,2.56,1.53,1.53,0,0,0,1.93-.63,1.22,1.22,0,0,0-.72-1.69l-.1,0Z" fill="url(#linear-gradient-4)"/></g></g></g></mask><linearGradient id="linear-gradient-54" x1="3813.87" y1="-3884.05" x2="4307.83" y2="-4065.69" xlink:href="#linear-gradient-39"/><mask id="mask-13" x="-26.93" y="-188.15" width="88.77" height="423.37" maskUnits="userSpaceOnUse"><g transform="translate(-2.82 -0.01)"><g id="pl"><g clip-path="url(#clip-path)"><path d="M64.13,233c-.25-.18-.5-.36-.76-.53a1.58,1.58,0,0,0-2,.24,1.17,1.17,0,0,0,.27,1.79h0l.67.48a1.58,1.58,0,0,0,2-.18,1.18,1.18,0,0,0-.19-1.8Z" fill="url(#linear-gradient-5)"/></g></g></g></mask><linearGradient id="linear-gradient-55" x1="4218.02" y1="-4220.22" x2="4478.73" y2="-4321.97" xlink:href="#linear-gradient-39"/><mask id="mask-14" x="-26.93" y="-188.15" width="83.19" height="420.26" maskUnits="userSpaceOnUse"><g transform="translate(-2.82 -0.01)"><g id="pn"><g clip-path="url(#clip-path)"><path d="M58.11,229.61a38.53,38.53,0,0,0-14.61-2.76,1.29,1.29,0,1,0,0,2.56,35.32,35.32,0,0,1,13.38,2.52,1.57,1.57,0,0,0,2-.44,1.2,1.2,0,0,0-.5-1.76l-.26-.11Z" fill="url(#linear-gradient-6)"/></g></g></g></mask><linearGradient id="linear-gradient-56" x1="4215.01" y1="-4224.22" x2="4477.75" y2="-4326.77" xlink:href="#linear-gradient-39"/><mask id="mask-15" x="-26.93" y="-188.15" width="191.53" height="424.93" maskUnits="userSpaceOnUse"><g transform="translate(-2.82 -0.01)"><g id="pp"><g clip-path="url(#clip-path)"><path d="M166.43,233.41a1.51,1.51,0,0,0-1.84.81l-.33.84a1.24,1.24,0,0,0,.86,1.64,1.52,1.52,0,0,0,1.86-.76q.2-.47.36-.9a1.25,1.25,0,0,0-.91-1.63Z" fill="url(#linear-gradient-7)"/></g></g></g></mask><linearGradient id="linear-gradient-57" x1="5283.74" y1="-4097.42" x2="5393.49" y2="-4408.39" xlink:href="#linear-gradient-39"/><mask id="mask-16" x="-26.93" y="-188.15" width="192.88" height="418.74" maskUnits="userSpaceOnUse"><g transform="translate(-2.82 -0.01)"><g id="pr"><g clip-path="url(#clip-path)"><path d="M168.73,227.68a7.18,7.18,0,0,0-3.24-5.82,16.6,16.6,0,0,0-9.34-2.56,1.29,1.29,0,1,0,0,2.56,13.39,13.39,0,0,1,7.59,2,4.69,4.69,0,0,1,2.1,3.92,10.75,10.75,0,0,1,0,1.39,1.34,1.34,0,0,0,1.34,1.37h.1a1.38,1.38,0,0,0,1.45-1.19A12.34,12.34,0,0,0,168.73,227.68Z" fill="url(#linear-gradient-8)"/></g></g></g></mask><linearGradient id="linear-gradient-58" x1="5281.71" y1="-4093.58" x2="5394.25" y2="-4412.45" xlink:href="#linear-gradient-39"/><mask id="mask-17" x="-26.93" y="-188.15" width="137.39" height="424.9" maskUnits="userSpaceOnUse"><g transform="translate(-2.82 -0.01)"><g id="pt"><g clip-path="url(#clip-path)"><path d="M113.15,235c-.07-.14-.15-.28-.21-.42a1.55,1.55,0,0,0-1.94-.61,1.23,1.23,0,0,0-.71,1.67,3.73,3.73,0,0,1,.2.4,1.47,1.47,0,0,0,1.33.76,1.61,1.61,0,0,0,.58-.1,1.24,1.24,0,0,0,.75-1.69Z" fill="url(#linear-gradient-9)"/></g></g></g></mask><linearGradient id="linear-gradient-59" x1="4659.19" y1="-4055.25" x2="4924.43" y2="-4373.06" xlink:href="#linear-gradient-39"/><mask id="mask-18" x="-26.93" y="-188.15" width="134.69" height="420.3" maskUnits="userSpaceOnUse"><g transform="translate(-2.82 -0.01)"><g id="pv"><g clip-path="url(#clip-path)"><path d="M110.36,230.21c-3.66-5.3-7.9-8.11-12.24-8.11a1.29,1.29,0,1,0,0,2.56c4.14,0,7.6,3.74,9.76,6.88a1.58,1.58,0,0,0,2,.43,1.2,1.2,0,0,0,.48-1.76Z" fill="url(#linear-gradient-10)"/></g></g></g></mask><linearGradient id="linear-gradient-60" x1="4650.66" y1="-4057.98" x2="4919.22" y2="-4379.76" xlink:href="#linear-gradient-39"/><linearGradient id="linear-gradient-61" x1="4436.39" y1="-3892.43" x2="3984.13" y2="-3892.43" xlink:href="#linear-gradient-37"/><linearGradient id="linear-gradient-62" x1="4436.39" y1="-4278.49" x2="3984.13" y2="-4278.49" gradientTransform="matrix(0.11, 0, 0, -0.11, -439.98, -253.27)" gradientUnits="userSpaceOnUse"><stop offset="0" stop-color="#7a3d2c"/><stop offset="0.37" stop-color="#9f5e4c"/><stop offset="0.8" stop-color="#ce8976"/><stop offset="0.87" stop-color="#cf8c79"/><stop offset="0.94" stop-color="#d39584"/><stop offset="1" stop-color="#d8a495"/><stop offset="1" stop-color="#d9a597"/><stop offset="1" stop-color="#fff"/></linearGradient><mask id="mask-19" x="-26.93" y="-188.15" width="205.33" height="406.38" maskUnits="userSpaceOnUse"><g transform="translate(-2.82 -0.01)"><g id="rj"><g clip-path="url(#clip-path)"><path d="M179.48,214.25a1.64,1.64,0,0,0-1.74,1.54v.9a1.75,1.75,0,0,0,3.48,0v-.9A1.65,1.65,0,0,0,179.48,214.25Z" fill="url(#linear-gradient-11)"/></g></g></g></mask><linearGradient id="linear-gradient-63" x1="6086.3" y1="-4157.1" x2="5177" y2="-4157.1" xlink:href="#linear-gradient-39"/><mask id="mask-20" x="-26.93" y="-188.15" width="216.72" height="433.06" maskUnits="userSpaceOnUse"><g transform="translate(-2.82 -0.01)"><g id="rs"><g clip-path="url(#clip-path)"><path d="M190.86,240.71a1.65,1.65,0,0,0-1.74,1.54v1.12a1.75,1.75,0,0,0,3.48,0v-1.12A1.65,1.65,0,0,0,190.86,240.71Z" fill="url(#linear-gradient-12)"/></g></g></g></mask><linearGradient id="linear-gradient-64" x1="5903.1" y1="-4388.47" x2="5274.18" y2="-4396.18" xlink:href="#linear-gradient-39"/><mask id="mask-21" x="-26.93" y="-188.15" width="216.72" height="426.36" maskUnits="userSpaceOnUse"><g transform="translate(-2.82 -0.01)"><g id="ru"><g clip-path="url(#clip-path)"><path d="M190.86,225H177.7a1.55,1.55,0,1,0,0,3.07h11.42v8.61a1.75,1.75,0,0,0,3.48,0V226.52A1.65,1.65,0,0,0,190.86,225Z" fill="url(#linear-gradient-14)"/></g></g></g></mask><linearGradient id="linear-gradient-65" x1="5901.83" y1="-4288.49" x2="5272.55" y2="-4296.2" xlink:href="#linear-gradient-39"/><mask id="mask-22" x="-26.93" y="-188.15" width="197.15" height="416.21" maskUnits="userSpaceOnUse"><g transform="translate(-2.82 -0.01)"><g id="rw"><g clip-path="url(#clip-path)"><path d="M171.29,225h-6.68a1.55,1.55,0,1,0,0,3.07h6.68a1.55,1.55,0,1,0,0-3.07Z" fill="url(#linear-gradient-15)"/></g></g></g></mask><linearGradient id="linear-gradient-66" x1="5901.26" y1="-4241.82" x2="5272.06" y2="-4249.52" xlink:href="#linear-gradient-39"/><mask id="mask-23" x="-26.93" y="-188.15" width="184.07" height="416.21" maskUnits="userSpaceOnUse"><g transform="translate(-2.82 -0.01)"><g id="ry"><g clip-path="url(#clip-path)"><path d="M158.21,225h-1.56a1.55,1.55,0,1,0,0,3.07h1.56a1.55,1.55,0,1,0,0-3.07Z" fill="url(#linear-gradient-16)"/></g></g></g></mask><linearGradient id="linear-gradient-67" x1="5901.23" y1="-4240.68" x2="5271.95" y2="-4248.38" xlink:href="#linear-gradient-39"/><mask id="mask-24" x="-26.93" y="-188.15" width="229.02" height="449.8" maskUnits="userSpaceOnUse"><g transform="translate(-2.82 -0.01)"><g id="rB"><g clip-path="url(#clip-path)"><path d="M202.11,250H184.46a1.55,1.55,0,1,0,0,3.07h17v7.06a1.76,1.76,0,0,0,3.49,0v-7.66A2.66,2.66,0,0,0,202.11,250Z" fill="url(#linear-gradient-17)"/></g></g></g></mask><linearGradient id="linear-gradient-68" x1="5962.33" y1="-4512.3" x2="5382.38" y2="-4502.04" xlink:href="#linear-gradient-39"/><mask id="mask-25" x="-26.93" y="-188.15" width="203.93" height="441.2" maskUnits="userSpaceOnUse"><g transform="translate(-2.82 -0.01)"><g id="rD"><g clip-path="url(#clip-path)"><path d="M178.08,250h-1.75a1.55,1.55,0,1,0,0,3.07h1.75a1.55,1.55,0,1,0,0-3.07Z" fill="url(#linear-gradient-18)"/></g></g></g></mask><linearGradient id="linear-gradient-69" x1="5963.33" y1="-4478.24" x2="5382.86" y2="-4467.97" xlink:href="#linear-gradient-39"/></defs><g id="SvgjsG1008"><path d="M39.38,0" transform="translate(-2.82 -0.01)" fill="#f8d3c9"/><path d="M175.36.21c-6.65-.46-19.35,0-28,0-.06,3.49-1.8,36.34-2.64,43.58a10.25,10.25,0,0,1-.57,2.68c-.45,1.1-9.67,12.81-14.09,17.66a10.44,10.44,0,0,0-2.32,3.3,10.44,10.44,0,0,0-.39,3.93q.25,8.51.5,17L164.29,72C167.44,55.78,172.16,16.51,175.36.21Z" transform="translate(-2.82 -0.01)" fill="#f9c2b3"/><path d="M194.75,246.43H93.06A9.15,9.15,0,0,1,84,237.28h0V169.45H204v67.83a9.15,9.15,0,0,1-9.14,9.15Z" transform="translate(-2.82 -0.01)" fill="#c37f6c"/><path d="M203.89,190V169.45H84V173C103.09,175.51,186,187.39,203.89,190Z" transform="translate(-2.82 -0.01)" fill="#bb5f46"/><path d="M210.56,153.88H77.25l18.83-31.45a4.35,4.35,0,0,1,3.73-2.12H188a4.38,4.38,0,0,1,3.74,2.12Z" transform="translate(-2.82 -0.01)" fill="#c37f6c"/><path d="M207.52,169.45H80.29a3,3,0,0,1-3-3V153.88H210.56v12.54a3,3,0,0,1-3,3Z" transform="translate(-2.82 -0.01)" fill="#be6f5a"/><path d="M171.34,137.1H115.63a2.37,2.37,0,1,1,0-4.74h55.71a2.37,2.37,0,1,1,0,4.74Z" transform="translate(-2.82 -0.01)" fill="#b42600"/><polygon points="163.12 137.08 156.42 80.17 113.66 85.2 119.77 137.08 163.12 137.08" fill="#f9f3f1"/><g id="SvgjsG1008-2" data-name="SvgjsG1008"><polygon points="120.12 136.86 115.67 84.98 156.46 81.05 162.62 137.47 120.12 136.86" fill="#a44930"/><polygon points="120.63 136.48 118.64 115.88 140.61 113.77 142.84 136.4 120.63 136.48" fill="#833a26"/><path d="M124.22,134.68l2.23-.71-1.28,1.42-.16-1.58,1.53,1.14Z" transform="translate(-2.82 -0.01)" fill="#fff"/><path d="M128.61,134.26l2.23-.71L129.56,135l-.15-1.59,1.52,1.15Zm4.4-.43,2.22-.7L134,134.54,133.8,133l1.53,1.15Zm4.39-.42,2.22-.71-1.28,1.42-.15-1.58,1.53,1.14Zm4.39-.42,2.23-.71-1.28,1.42-.16-1.59,1.53,1.15Z" transform="translate(-2.82 -0.01)" fill="#fff"/><path d="M126.25,132.75l2.23-.71-1.28,1.42-.16-1.58,1.53,1.14Zm4.4-.42,2.22-.71L131.59,133l-.15-1.59L133,132.6Zm4.39-.42,2.22-.71L136,132.62l-.15-1.59,1.53,1.15Zm4.39-.43,2.23-.71-1.28,1.42-.16-1.58,1.53,1.14Z" transform="translate(-2.82 -0.01)" fill="#fff"/><path d="M123.89,131.25l2.22-.71L124.83,132l-.15-1.59,1.53,1.15Zm4.39-.43,2.23-.7-1.28,1.41-.16-1.58,1.53,1.15Zm4.4-.42,2.22-.71-1.28,1.42-.15-1.58,1.52,1.14Zm4.39-.42,2.22-.71L138,130.69l-.15-1.59,1.53,1.15Z" transform="translate(-2.82 -0.01)" fill="#fff"/><path d="M141.46,129.55l2.23-.71-1.28,1.42-.16-1.58,1.53,1.15Z" transform="translate(-2.82 -0.01)" fill="#fff"/><path d="M125.92,129.32l2.23-.71L126.87,130l-.16-1.59,1.53,1.15Zm4.39-.42,2.23-.71-1.28,1.42-.15-1.59,1.52,1.15Zm4.4-.43,2.22-.71-1.28,1.42-.15-1.58,1.53,1.15Zm4.39-.42,2.22-.71L140,128.76l-.15-1.59,1.53,1.15Z" transform="translate(-2.82 -0.01)" fill="#fff"/><path d="M123.56,127.81l2.22-.7-1.28,1.41-.15-1.58,1.53,1.15Zm4.39-.42,2.23-.71-1.28,1.42-.16-1.58,1.53,1.14Zm4.4-.42,2.22-.71-1.28,1.42-.15-1.59,1.52,1.15Zm4.39-.43,2.22-.7-1.28,1.41-.15-1.58,1.53,1.15Z" transform="translate(-2.82 -0.01)" fill="#fff"/><path d="M141.13,126.12l2.23-.71-1.28,1.42-.16-1.58,1.53,1.14Z" transform="translate(-2.82 -0.01)" fill="#fff"/><path d="M125.59,125.89l2.22-.71-1.28,1.41-.15-1.58,1.53,1.15Zm4.39-.43,2.23-.71-1.28,1.42-.16-1.58,1.53,1.14Zm4.4-.42,2.22-.71-1.28,1.42-.15-1.59,1.52,1.15Zm4.39-.42,2.22-.71-1.28,1.41-.15-1.58,1.53,1.15Z" transform="translate(-2.82 -0.01)" fill="#fff"/><path d="M123.23,124.38l2.22-.71-1.28,1.42-.15-1.58,1.53,1.14Zm4.39-.42,2.23-.71-1.28,1.42-.16-1.59,1.53,1.15Zm4.39-.43,2.23-.7L133,124.24l-.15-1.58,1.52,1.15Zm4.4-.42,2.22-.71-1.28,1.42-.15-1.58,1.53,1.14Z" transform="translate(-2.82 -0.01)" fill="#fff"/><path d="M140.8,122.69,143,122l-1.28,1.42-.15-1.59,1.53,1.15Z" transform="translate(-2.82 -0.01)" fill="#fff"/><path d="M125.26,122.45l2.22-.71-1.28,1.42-.15-1.58,1.53,1.14Zm4.39-.42,2.23-.71-1.28,1.42-.16-1.59L132,122.3Zm4.4-.42,2.22-.71L135,122.32l-.15-1.59,1.52,1.15Zm4.39-.43,2.22-.71-1.28,1.42-.15-1.58,1.53,1.15Z" transform="translate(-2.82 -0.01)" fill="#fff"/><path d="M122.9,121l2.22-.71-1.28,1.42-.15-1.59,1.53,1.15Zm4.39-.43,2.22-.71-1.28,1.42-.15-1.58,1.53,1.15Zm4.39-.42,2.23-.71-1.28,1.42-.15-1.58,1.52,1.14Zm4.4-.42,2.22-.71L137,120.39l-.15-1.59L138.4,120Z" transform="translate(-2.82 -0.01)" fill="#fff"/><path d="M140.47,119.25l2.22-.71L141.41,120l-.15-1.58,1.53,1.15Z" transform="translate(-2.82 -0.01)" fill="#fff"/><path d="M124.93,119l2.22-.71-1.28,1.42-.15-1.59,1.53,1.15Zm4.39-.42,2.23-.71-1.28,1.42-.16-1.59,1.53,1.15Zm4.4-.43,2.22-.71-1.28,1.42-.15-1.58,1.52,1.15Zm4.39-.42,2.22-.71-1.28,1.42-.15-1.59,1.53,1.15Z" transform="translate(-2.82 -0.01)" fill="#fff"/><path d="M122.57,117.51l2.22-.71-1.28,1.42-.15-1.58,1.52,1.15Zm4.39-.42,2.22-.71-1.28,1.42-.15-1.58,1.53,1.14Zm4.39-.42,2.23-.71-1.28,1.42-.16-1.59,1.53,1.15Zm4.4-.43,2.22-.71L136.69,117l-.15-1.58,1.52,1.15Z" transform="translate(-2.82 -0.01)" fill="#fff"/><path d="M140.14,115.82l2.22-.71-1.28,1.42-.15-1.58,1.53,1.14Z" transform="translate(-2.82 -0.01)" fill="#fff"/><rect x="123.11" y="84.58" width="2.95" height="30.93" transform="translate(-11.84 12.41) rotate(-5.51)" fill="#fff"/><rect x="129.6" y="83.96" width="2.95" height="30.93" transform="translate(-11.75 13.03) rotate(-5.51)" fill="#fff"/><rect x="135.64" y="83.37" width="2.95" height="30.93" transform="translate(-11.67 13.6) rotate(-5.51)" fill="#fff"/><polygon points="142.84 137.09 137.68 82.86 140.63 82.71 145.87 137.08 142.84 137.09" fill="#fff"/><polygon points="149.12 137.09 143.85 82.38 146.78 82.09 152.1 137.23 149.12 137.09" fill="#fff"/><polygon points="155.71 137.41 150.34 81.64 153.27 81.36 158.68 137.41 155.71 137.41" fill="#fff"/></g><path d="M165.77,70.07c.31,9.72-3.72,16.88-12.84,20.44-3.11,1.21-4.71,2.09-4.39,5.57s1.65,7.13,1.23,10.79a7,7,0,0,1-2,4.44,4.46,4.46,0,0,1-2,1,3.41,3.41,0,0,1-2.61-.38,5.51,5.51,0,0,1-1.74-2.06c-.32-.57-.62-1.16-.9-1.76-.55-1.17-1-2.39-1.47-3.61l-.51-1.43q-2.41-7-4.33-14.13a12.91,12.91,0,0,1-.57-3.32c0-3.44,2.81-7.16,4.93-9.68,3.06-3.66,7.46-6.09,11.8-7.9,2.5-1.05,5.34-1.38,7.91-2.3,1.13-.41,7.28-2.21,7.54-3.38C165.27,64.89,165.69,67.51,165.77,70.07Z" transform="translate(-2.82 -0.01)" fill="#f9c2b3"/><path d="M147,110.78a3,3,0,0,1-1.22,1.54,3.41,3.41,0,0,1-2.61-.38,5.51,5.51,0,0,1-1.74-2.06c-.32-.57-.62-1.16-.9-1.76h0c.39-1.12,4.5-1.7,5.57-2a.85.85,0,0,1,.5,0,.71.71,0,0,1,.29.41A6.39,6.39,0,0,1,147,110.78Z" transform="translate(-2.82 -0.01)" fill="#fad3c9"/><path d="M39.38,0" transform="translate(-2.82 -0.01)" fill="#fad3c9"/><path d="M56.14,120.51a84.42,84.42,0,0,1,8.1-2.38c1.39-.2,1.51,1.79,1.6,3s-3.3,4.2-6.79,5.66C56.38,127.92,55.79,121,56.14,120.51Z" transform="translate(-2.82 -0.01)" fill="#f7a892"/><path d="M34.46,124.25c7.71-2,23.78-5.54,23.78-5.54s.36,1.16,1.36,4.6c1.51,5.18,1.27,7.77,1.27,7.77s-10.15,4.07-16.33,5.82c-4.2,1.2-5-1-9-4.08C32.66,130.62,29.49,125.57,34.46,124.25Z" transform="translate(-2.82 -0.01)" fill="url(#linear-gradient-26)"/><path d="M72.74,95.29c-.34-.77-1.2-3.23-.6-3.5,1.41-.65,1.18,1,2.82,2.11,1.06.71-.06,4-.06,4A7.39,7.39,0,0,1,72.74,95.29Z" transform="translate(-2.82 -0.01)" fill="#f7a892"/><path d="M61.12,118.78c2-6.33,12.35-18.59,12.88-21.67.35-2-1.47-2.91.39-6.28.9-1.64,5.93-1,6.26.79.74,4.23-1.11,6-4,6.7-1.26,1.23-7.18,16.33-9.16,20.42-.9,1.85-2.55,4.74-4,4.43C61.29,122.68,60.39,121.13,61.12,118.78Z" transform="translate(-2.82 -0.01)" fill="#f7a892"/><path d="M50.77,160.08S61.85,184.92,63.86,190s-6.76,10.62-12.28,5.53-13-12.35-16.1-18.82-3.83-12.17-1-18.24S47.79,153.39,50.77,160.08Z" transform="translate(-2.82 -0.01)" fill="url(#linear-gradient-27)"/><path d="M14.43,214.3s.68-8.35.77-9,.28-1.76-1.81-1.52-2.74.27-2.74.27,1.51,9.26,1.79,10.24S13.58,216,14.43,214.3Z" transform="translate(-2.82 -0.01)" fill="#291611"/><path d="M14.68,206.57a1.7,1.7,0,0,1-.84-1c-.17-1,.32-1.3.32-1.3a43.86,43.86,0,0,0,8.64-3.82c1.76-1.13,8.68-4.9,15.35-8.45l2.28,9C30.86,203,14.68,206.57,14.68,206.57Z" transform="translate(-2.82 -0.01)" fill="#f7a892"/><path d="M61.33,188.05c1.92,5.12.41,8.47-2.38,9.16-6.35,1.56-6.49,1.12-14.24,2.78l-4.28.93-2.28-9c5.71-3,11.23-5.93,13.19-6.9C55.58,183,59.41,182.94,61.33,188.05Z" transform="translate(-2.82 -0.01)" fill="url(#linear-gradient-28)"/><path d="M36.08,192.09a.33.33,0,0,0-.16.35l2.52,9.29a.27.27,0,0,0,.31.19l2.38-.41a.23.23,0,0,0,.18-.24h0l-2.69-10.11a.2.2,0,0,0-.23-.16h-.06Z" transform="translate(-2.82 -0.01)" fill="url(#linear-gradient-29)"/><path d="M41.46,167.11s-8.65,28.88-10.3,34-11.63,3.51-12.56-3.91-3.15-22.44,2.66-37.26C24.41,151.89,43.4,160.19,41.46,167.11Z" transform="translate(-2.82 -0.01)" fill="#452016"/><path d="M16,243.65c-.41-.54-1-1.45-2.33.23L12,246.08s2.19,1.64,4.34,3.16h4.3C19,247.22,16.29,244,16,243.65Z" transform="translate(-2.82 -0.01)" fill="#291611"/><path d="M21.65,247.13l-3.57-1-1.61,3h4.85C22.31,249.05,23.1,248.3,21.65,247.13Z" transform="translate(-2.82 -0.01)" fill="#291611"/><path d="M15,243.61a39.3,39.3,0,0,0,.85-8.59c-.1-2.41.22-12.4.57-20.9l9.76,1.81C23.53,224.12,17,245.31,17,245.31a1.3,1.3,0,0,1-1.27,0C14.56,244.51,15,243.61,15,243.61Z" transform="translate(-2.82 -0.01)" fill="#f7a892"/><path d="M17,202c.33-4.8,2.21-8.23,7.5-7.39s7.33,3.87,6.5,6.66c-1.83,6.43-2.27,6.33-4.7,14-.06.19-.13.39-.19.6l-9.76-1.81C16.57,208.71,16.8,203.9,17,202Z" transform="translate(-2.82 -0.01)" fill="#452016"/><path d="M15.5,215.23a.31.31,0,0,0,.23.3L26,217.71a.3.3,0,0,0,.32-.19l.72-2.35a.23.23,0,0,0-.14-.29h0l-11-2.38a.21.21,0,0,0-.25.15v0Z" transform="translate(-2.82 -0.01)" fill="url(#linear-gradient-30)"/><path d="M32.05,124.15c8.32-1.14,11.45,6,12.42,12.29A106.47,106.47,0,0,0,54,166.16s-.83,4.15-12.67,7.92c-13.57,4.33-23.89-.08-23.89-.08s-3.23-23.22-.92-40.23c.59-4.27,2.72-7.34,10.1-8.51C28.52,125,30,124.43,32.05,124.15Z" transform="translate(-2.82 -0.01)" fill="url(#linear-gradient-31)"/><path d="M31.32,113.51c1.18-3.36-1.69-10.6-5.7-10.09-4.95.64-2.91,5.23-5.27,6.64-5.14,3.07-4.6,7.29-1.6,11a10,10,0,0,0,8.07,3.38c1.23-.09-1.28-4.57.56-7.46A8.13,8.13,0,0,1,31.32,113.51Z" transform="translate(-2.82 -0.01)" fill="#452016"/><path d="M35.47,124.28c.94,2.39,3.74,7.51-2.09,8.42-6.85,1.07-9.74-5.81-9.52-6.7.49-2,3.39-1.58,5.12-1.83S34.66,122.26,35.47,124.28Z" transform="translate(-2.82 -0.01)" fill="#452016"/><path d="M25.61,125.51c.32-.1.65-.19,1-.27a33.07,33.07,0,0,1,5.52-.79,14,14,0,0,1,1.83,0c.53,1.57,3,5.71-1.38,6.52S25.82,127.05,25.61,125.51Z" transform="translate(-2.82 -0.01)" fill="#f7a892"/><path d="M26.89,126c-1-4.33-2.11-6.57-2.77-10.56-.07-.12,5.2-2.23,5-5.47a29.93,29.93,0,0,1,3.36,6c1.07,2.78,1.15,4.6-2,4.89a26.6,26.6,0,0,0,2.61,3.53c1.65,1.91.69,3.49-.29,4.15S28,130.63,26.89,126Z" transform="translate(-2.82 -0.01)" fill="#f7a892"/><path d="M25.42,116.84a8.56,8.56,0,0,1,1,2.49c.29,1.26.35,1.68.35,1.68s3,.87,4.93,0a3,3,0,0,0,1.82-3.83l0-.09a11.14,11.14,0,0,0-2.07-3.81S30.33,115.31,25.42,116.84Z" transform="translate(-2.82 -0.01)" fill="url(#linear-gradient-32)"/><path d="M30,116.33a11.79,11.79,0,0,0,2.33-1.76.83.83,0,0,0-.08-.12,11.13,11.13,0,0,1-5.36,2.94.07.07,0,0,0-.05.08s0,.06.08.06h0A11,11,0,0,0,30,116.33Zm1.72.6c.47-.27.93-.57,1.38-.89L33,115.9a12.06,12.06,0,0,1-5.88,2.4.06.06,0,0,0-.06.08h0a.06.06,0,0,0,.06.06h0a11.06,11.06,0,0,0,4.53-1.51Zm-4.3,2.44a12.52,12.52,0,0,0,6.25-1.55v-.15a12.31,12.31,0,0,1-6.22,1.56s-.07,0-.08.06a.07.07,0,0,0,.07.07Zm.24.91c1.6.57,3.85.18,5.39-.23l.13-.18c-1.52.42-3.84.86-5.48.27a.06.06,0,0,0-.08,0h0v.09h0Z" transform="translate(-2.82 -0.01)" fill="#f5f5f5"/><path d="M27,121l-.07-.5c-1.6.25-2.14-.09-2.61-1.66a1.57,1.57,0,0,1,.06-1.37c.36-.41,1.11-.31,1.41-.24l.1-.5a2,2,0,0,0-1.87.4,1.88,1.88,0,0,0-.17,1.86C24.42,120.81,25.19,121.3,27,121Z" transform="translate(-2.82 -0.01)" fill="url(#linear-gradient-33)"/><path d="M22.27,118.94c0,.82.95,1.5,2.15,1.51s1.52-.55,1.53-1.37a1.37,1.37,0,0,0-1.52-1.57C23.23,117.51,22.27,118.12,22.27,118.94Zm-11.73,31S9,155.51,9.23,157.51c.2,1.72,2.46,2.13,3.38,1.57A12.75,12.75,0,0,0,17,152.34c.81-2.83-6-2.77-6.43-2.37Z" transform="translate(-2.82 -0.01)" fill="#f7a892"/><path d="M17.17,131c-2.93,7.32-8.57,22.14-8.57,22.14s1,1.51,4.27,2.82c4.9,2,7.06,1.22,7.06,1.22s1.61-2.82,4.34-8.77c.8-1.75,1.39-6.61.11-12C22.34,127.72,17.65,129.85,17.17,131Z" transform="translate(-2.82 -0.01)" fill="url(#linear-gradient-34)"/><path d="M37.34,151.08c.44-.71,2-2.79,2.52-2.43,1.31.85-.18,1.57-.17,3.57,0,1.29-3.32,2.17-3.32,2.17A7.43,7.43,0,0,1,37.34,151.08Z" transform="translate(-2.82 -0.01)" fill="#f7a892"/><path d="M11.78,154c6.25-1.79,22,.37,24.77-.87,1.82-.8,1.56-2.85,5.34-3.11,1.82-.13,4.11,4.49,2.78,5.79-3,3-5.49,2.34-7.64.28-1.7-.41-17.28,2.82-21.7,3.37-2,.25-5.27.42-5.8-1C8.7,156.32,9.46,154.7,11.78,154Z" transform="translate(-2.82 -0.01)" fill="#f7a892"/><rect x="42.93" y="74.54" width="61.34" height="20.38" transform="translate(-7.63 4.43) rotate(-3.34)" fill="#f3e9e6"/><path d="M74.43,93.8a4.57,4.57,0,0,0-.82-2c-.33-.35-1-.44-1.15.08a1.73,1.73,0,0,0-.07.64c0,1-.15,3.16,1.22,3.4a3.9,3.9,0,0,0,3-.63c.1-.08.3-.35.26-.5a11.11,11.11,0,0,1-1.63.06.69.69,0,0,1-.42-.1.86.86,0,0,1-.2-.33C74.55,94.23,74.49,94,74.43,93.8Z" transform="translate(-2.82 -0.01)" fill="#f7a892"/><path d="M39.38,0" transform="translate(-2.82 -0.01)" fill="#f7a892"/><path d="M39.38,0" transform="translate(-2.82 -0.01)" fill="#f7a892"/><path d="M276.39,4.24h-82a2.19,2.19,0,0,0-2.19,2.19h0V44.36a2.19,2.19,0,0,0,2.18,2.2h33.47V57.65c0,.91.53,1.13,1.17.49l11.57-11.58h35.8a2.19,2.19,0,0,0,2.19-2.19h0V6.43A2.19,2.19,0,0,0,276.39,4.24Z" transform="translate(-2.82 -0.01)" fill="#cf8d7b"/><path d="M235.4,40.1c-2.37,0-3.56-2.74-4.71-5.38s-2.26-5.16-4.31-5.16c-2.53,0-3.51-3-4.45-5.94s-2-6.11-4.57-6.11c-2.4,0-3.18,3.22-4,6.63-.89,3.67-1.8,7.46-5,7.46s-4-2.85-4.77-5.37-1.5-5-4.25-5v-.92c3.43,0,4.33,3,5.13,5.62s1.43,4.74,3.89,4.74,3.3-3.29,4.14-6.77,1.74-7.39,4.86-7.39,4.4,3.61,5.43,6.78c.89,2.74,1.72,5.32,3.59,5.32,2.65,0,3.91,2.9,5.14,5.71,1.08,2.48,2.1,4.83,3.88,4.83,1.61,0,2.47-3.43,3.3-6.75,1.09-4.3,2.31-9.18,5.72-9.18,3.19,0,4.09,3.4,5,6.69.82,3.07,1.59,6,4.05,6s3.16-2.74,3.93-5.63c.81-3.07,1.72-6.55,5.09-6.55s4.29,2.14,5.14,4S269.11,31,271.51,31v.91c-3,0-3.9-2-4.71-3.8s-1.57-3.48-4.31-3.48-3.46,2.89-4.26,5.89-1.66,6.3-4.8,6.3-4.06-3.38-4.93-6.65c-.82-3.09-1.59-6-4.09-6-2.69,0-3.82,4.51-4.82,8.5S237.7,40.1,235.4,40.1Z" transform="translate(-2.82 -0.01)" fill="#fff"/><path d="M39.38,0" transform="translate(-2.82 -0.01)" fill="#fff"/><path d="M275.47,8.66a1.38,1.38,0,1,0-1.38,1.39h0a1.38,1.38,0,0,0,1.38-1.38Z" transform="translate(-2.82 -0.01)" fill="#6c1f0a"/><path d="M267.55,8.66a1.33,1.33,0,1,0-1.39,1.39A1.4,1.4,0,0,0,267.55,8.66Z" transform="translate(-2.82 -0.01)" fill="#962b0e"/><path d="M259.61,8.66a1.39,1.39,0,1,0-1.39,1.39h0a1.38,1.38,0,0,0,1.38-1.38h0Z" transform="translate(-2.82 -0.01)" fill="#eed8d2"/><path d="M53.66,2.09H6.06a2.82,2.82,0,0,0-2.8,2.8V49.74a2.82,2.82,0,0,0,2.8,2.77H34.91l11,11c.55.55,1,.37,1-.41V52.51h6.76a2.8,2.8,0,0,0,2.8-2.8V4.89A2.81,2.81,0,0,0,53.66,2.09Z" transform="translate(-2.82 -0.01)" fill="#cf8d7b"/><path d="M49.32,27.32A19.47,19.47,0,1,0,29.84,46.78h0A19.46,19.46,0,0,0,49.32,27.32Z" transform="translate(-2.82 -0.01)" fill="#962b0e"/><path d="M29.86,7.85V27.32H49.32A19.46,19.46,0,0,0,29.87,7.85Z" transform="translate(-2.82 -0.01)" fill="url(#linear-gradient-35)"/><path d="M39.38,0" transform="translate(-2.82 -0.01)" fill="url(#linear-gradient-36)"/></g><text transform="translate(51.28 90.63) rotate(-4)" font-size="16" fill="#934837" font-family="ArialRoundedMTBold, Arial Rounded MT Bold"><tspan letter-spacing="-0.05em">V</tspan><tspan x="10.21" y="0">ote</tspan></text><g id="SvgjsG1008-3" data-name="SvgjsG1008"><path d="M243.42,208.88c-4.45-18.27,5.88-34,14.21-31.43C270.14,181.27,257.72,202.19,243.42,208.88Z" transform="translate(-2.82 -0.01)" fill="#a1503a"/><path d="M213,232.77q3.48-3.41,7.26-6.55c-8.49-12.81-5.81-26.79,1.38-27.08,9.1-.37,9.36,12.5,4.48,22.43a144.21,144.21,0,0,1,26.16-15.49,2.27,2.27,0,0,1,.82-.22c14.55-5.38,31.16,0,31.07,8.24s-19.82,15.56-44.35,3.26a131,131,0,0,0-28.89,23.77l-4.38-1.61Q209.63,236,213,232.77Z" transform="translate(-2.82 -0.01)" fill="#a1503a"/><path d="M243.42,208.88c-4.45-18.27,5.88-34,14.21-31.43C270.14,181.27,257.72,202.19,243.42,208.88Z" transform="translate(-2.82 -0.01)" fill="url(#linear-gradient-37)"/><path d="M213,232.77q3.48-3.41,7.26-6.55c-8.49-12.81-5.81-26.79,1.38-27.08,9.1-.37,9.36,12.5,4.48,22.43a144.21,144.21,0,0,1,26.16-15.49,2.27,2.27,0,0,1,.82-.22c14.55-5.38,31.16,0,31.07,8.24s-19.82,15.56-44.35,3.26a131,131,0,0,0-28.89,23.77l-4.38-1.61Q209.63,236,213,232.77Z" transform="translate(-2.82 -0.01)" fill="url(#linear-gradient-38)"/><g mask="url(#mask)"><path d="M259.59,186.91a1.48,1.48,0,0,0-1.8.86c-.07.2-.14.39-.22.59a1.26,1.26,0,0,0,.92,1.62h0a1.47,1.47,0,0,0,.46.07,1.44,1.44,0,0,0,1.38-.88l.24-.67A1.27,1.27,0,0,0,259.59,186.91Z" transform="translate(-2.82 -0.01)" fill="url(#linear-gradient-39)"/></g><g mask="url(#mask-2)"><path d="M261.3,183.6a5.29,5.29,0,0,0-4.15-4.94,1.5,1.5,0,0,0-1.84.8,1.24,1.24,0,0,0,.89,1.62,2.69,2.69,0,0,1,2.21,2.71c0,.17,0,.34,0,.51a1.38,1.38,0,0,0,1.45,1.29h0a1.38,1.38,0,0,0,1.45-1.29A5.47,5.47,0,0,0,261.3,183.6Z" transform="translate(-2.82 -0.01)" fill="url(#linear-gradient-40)"/></g><g mask="url(#mask-3)"><path d="M282,211.36c-.07-.12-.15-.24-.23-.36a1.55,1.55,0,0,0-2-.48,1.2,1.2,0,0,0-.56,1.74l0,.06a1.64,1.64,0,0,1,.14.22,1.5,1.5,0,0,0,1.29.69,1.63,1.63,0,0,0,.66-.14,1.21,1.21,0,0,0,.63-1.73Z" transform="translate(-2.82 -0.01)" fill="url(#linear-gradient-41)"/></g><g mask="url(#mask-4)"><path d="M278.25,208a26.67,26.67,0,0,0-12.92-3,1.29,1.29,0,1,0,0,2.57,23.42,23.42,0,0,1,11.32,2.56,1.57,1.57,0,0,0,2-.37,1.2,1.2,0,0,0-.42-1.78Z" transform="translate(-2.82 -0.01)" fill="url(#linear-gradient-42)"/></g><path d="M200.5,265.37c13.22-20.63,39.65-28,52.33-16.46,5.73,5.22,5.36,11.23,3,16.45Z" transform="translate(-2.82 -0.01)" fill="#7a3d2c"/><g mask="url(#mask-5)"><path d="M255,254.06c-.07-.16-.15-.31-.23-.47a1.54,1.54,0,0,0-1.92-.63,1.22,1.22,0,0,0-.71,1.7c.06.12.12.26.18.37a1.46,1.46,0,0,0,1.34.8,1.68,1.68,0,0,0,.55-.1A1.23,1.23,0,0,0,255,254.06Z" transform="translate(-2.82 -0.01)" fill="url(#linear-gradient-43)"/></g><g mask="url(#mask-6)"><path d="M237.29,244.74a1.29,1.29,0,1,0,0,2.56,18.64,18.64,0,0,1,11.41,3.46,1.59,1.59,0,0,0,2.05-.14,1.17,1.17,0,0,0-.16-1.8h0A21.67,21.67,0,0,0,237.29,244.74Z" transform="translate(-2.82 -0.01)" fill="url(#linear-gradient-44)"/></g><path d="M158.22,243.46c-6.93,8.12-10.05,15.63-11.2,21.91h71.72c5.57-8,9.34-17.39,5.48-25.7C215.18,220.29,177.79,220.52,158.22,243.46Z" transform="translate(-2.82 -0.01)" fill="#a1503a"/><g mask="url(#mask-7)"><path d="M222.87,240.16c-.15-.33-.32-.67-.5-1a1.5,1.5,0,0,0-1.88-.71,1.23,1.23,0,0,0-.81,1.66l.08.15c.15.28.29.58.44.86a1.53,1.53,0,0,0,1.89.7A1.23,1.23,0,0,0,222.87,240.16Z" transform="translate(-2.82 -0.01)" fill="url(#linear-gradient-45)"/></g><g mask="url(#mask-8)"><path d="M197,226.94a1.29,1.29,0,1,0,0,2.56c7.93,0,14.74,2.23,19.19,6.27a1.59,1.59,0,0,0,2.06,0,1.17,1.17,0,0,0,0-1.81C213.28,229.44,205.73,226.94,197,226.94Z" transform="translate(-2.82 -0.01)" fill="url(#linear-gradient-46)"/></g><path d="M257.62,177.45c-8.32-2.54-18.65,13.16-14.21,31.43C257.72,202.19,270.14,181.27,257.62,177.45Z" transform="translate(-2.82 -0.01)" fill="url(#linear-gradient-47)"/><path d="M253.08,205.87a2.48,2.48,0,0,0-.82.21,144.79,144.79,0,0,0-26.16,15.49c4.88-9.92,4.61-22.8-4.49-22.43-7.17.3-9.86,14.27-1.38,27.09-1.58,1.33-3.14,2.69-4.65,4.1-14.86-9-41.78-5.13-57.36,13.15-6.93,8.12-10.05,15.63-11.2,21.91H255.84c2.35-5.22,2.72-11.24-3-16.45-6.58-6-16.87-6.89-27.1-3.48a16.77,16.77,0,0,0-1.51-5.77,20.76,20.76,0,0,0-5.11-6.77,132.21,132.21,0,0,1,20.69-15.54c24.53,12.3,44.26,5.1,44.35-3.27S267.63,200.49,253.08,205.87Z" transform="translate(-2.82 -0.01)" fill="url(#linear-gradient-48)"/><path d="M51.12,206.28c11.66-19.6,5.55-40.42-4.86-39.86C30.59,167.26,37.22,194.62,51.12,206.28Z" transform="translate(-2.82 -0.01)" fill="url(#linear-gradient-49)"/><path d="M72.75,236.54a126.85,126.85,0,0,0-29.69-35,2.35,2.35,0,0,0-.73-.4c-12.38-8.63-37-8.63-39.34-.62-2.44,8.25,21.25,20.86,48.62,14.86A117.56,117.56,0,0,1,77.5,258a10.19,10.19,0,0,1,3.77-2.82A119.19,119.19,0,0,0,72.75,236.54Z" transform="translate(-2.82 -0.01)" fill="url(#linear-gradient-50)"/><g mask="url(#mask-9)"><path d="M53.88,191.32a1.45,1.45,0,0,0-1.71,1c-.07.31-.15.63-.23.95A1.29,1.29,0,0,0,53,194.82h0a1.66,1.66,0,0,0,.32,0,1.42,1.42,0,0,0,1.41-1c.09-.34.17-.68.24-1a1.3,1.3,0,0,0-1.12-1.52Z" transform="translate(-2.82 -0.01)" fill="url(#linear-gradient-51)"/></g><g mask="url(#mask-10)"><path d="M54.56,175.27a1.5,1.5,0,0,0-1.82-.84,1.25,1.25,0,0,0-1,1.6h0A27.21,27.21,0,0,1,53,187a1.34,1.34,0,0,0,1.34,1.37h.1a1.38,1.38,0,0,0,1.45-1.2A29.1,29.1,0,0,0,54.56,175.27Z" transform="translate(-2.82 -0.01)" fill="url(#linear-gradient-52)"/></g><g mask="url(#mask-11)"><path d="M41.44,202.09c-.45-.31-.92-.62-1.42-.91a1.57,1.57,0,0,0-2,.31,1.19,1.19,0,0,0,.36,1.79l0,0a14.13,14.13,0,0,1,1.25.81,1.59,1.59,0,0,0,2-.21,1.18,1.18,0,0,0-.23-1.8Z" transform="translate(-2.82 -0.01)" fill="url(#linear-gradient-53)"/></g><g mask="url(#mask-12)"><path d="M34.46,198.57a47.74,47.74,0,0,0-16-2.75,1.29,1.29,0,1,0,0,2.56,44.8,44.8,0,0,1,14.88,2.56,1.53,1.53,0,0,0,1.93-.63,1.22,1.22,0,0,0-.72-1.69l-.1,0Z" transform="translate(-2.82 -0.01)" fill="url(#linear-gradient-54)"/></g><path d="M14.69,265.37h70.6c-2.17-10.1-7.44-24.1-20.24-33.41C43.93,216.6-1.43,229.36,14.69,265.37Z" transform="translate(-2.82 -0.01)" fill="#a1503a"/><g mask="url(#mask-13)"><path d="M64.13,233c-.25-.18-.5-.36-.76-.53a1.58,1.58,0,0,0-2,.24,1.17,1.17,0,0,0,.27,1.79h0l.67.48a1.58,1.58,0,0,0,2-.18,1.18,1.18,0,0,0-.19-1.8Z" transform="translate(-2.82 -0.01)" fill="url(#linear-gradient-55)"/></g><g mask="url(#mask-14)"><path d="M58.11,229.61a38.53,38.53,0,0,0-14.61-2.76,1.29,1.29,0,1,0,0,2.56,35.32,35.32,0,0,1,13.38,2.52,1.57,1.57,0,0,0,2-.44,1.2,1.2,0,0,0-.5-1.76l-.26-.11Z" transform="translate(-2.82 -0.01)" fill="url(#linear-gradient-56)"/></g><path d="M97.4,220.84c-18.14,1-29,23.79-20.47,42.86a15.74,15.74,0,0,0,.89,1.67H145.5c12.68-10.61,33.29-36.25,20.86-44.53-12.94-8.62-36.76,4-49.87,18.33C114.85,234.51,108.49,220.21,97.4,220.84Z" transform="translate(-2.82 -0.01)" fill="#7a3d2c"/><g mask="url(#mask-15)"><path d="M166.43,233.41a1.51,1.51,0,0,0-1.84.81l-.33.84a1.24,1.24,0,0,0,.86,1.64,1.52,1.52,0,0,0,1.86-.76q.2-.47.36-.9a1.25,1.25,0,0,0-.91-1.63Z" transform="translate(-2.82 -0.01)" fill="url(#linear-gradient-57)"/></g><g mask="url(#mask-16)"><path d="M168.73,227.68a7.18,7.18,0,0,0-3.24-5.82,16.6,16.6,0,0,0-9.34-2.56,1.29,1.29,0,1,0,0,2.56,13.39,13.39,0,0,1,7.59,2,4.69,4.69,0,0,1,2.1,3.92,10.75,10.75,0,0,1,0,1.39,1.34,1.34,0,0,0,1.34,1.37h.1a1.38,1.38,0,0,0,1.45-1.19A12.34,12.34,0,0,0,168.73,227.68Z" transform="translate(-2.82 -0.01)" fill="url(#linear-gradient-58)"/></g><g mask="url(#mask-17)"><path d="M113.15,235c-.07-.14-.15-.28-.21-.42a1.55,1.55,0,0,0-1.94-.61,1.23,1.23,0,0,0-.71,1.67,3.73,3.73,0,0,1,.2.4,1.47,1.47,0,0,0,1.33.76,1.61,1.61,0,0,0,.58-.1,1.24,1.24,0,0,0,.75-1.69Z" transform="translate(-2.82 -0.01)" fill="url(#linear-gradient-59)"/></g><g mask="url(#mask-18)"><path d="M110.36,230.21c-3.66-5.3-7.9-8.11-12.24-8.11a1.29,1.29,0,1,0,0,2.56c4.14,0,7.6,3.74,9.76,6.88a1.58,1.58,0,0,0,2,.43,1.2,1.2,0,0,0,.48-1.76Z" transform="translate(-2.82 -0.01)" fill="url(#linear-gradient-60)"/></g><path d="M51.12,206.28c11.66-19.6,5.55-40.42-4.86-39.86C30.59,167.26,37.22,194.62,51.12,206.28Z" transform="translate(-2.82 -0.01)" fill="url(#linear-gradient-61)"/><path d="M166.36,220.84c-12.94-8.62-36.76,4-49.87,18.33-1.64-4.67-8-19-19.09-18.34S78.1,230.05,75.15,241q-1.17-2.25-2.4-4.44a126.85,126.85,0,0,0-29.69-35.05,2.35,2.35,0,0,0-.73-.4c-12.38-8.63-37-8.62-39.34-.61-2.44,8.25,21.25,20.86,48.62,14.85A121.29,121.29,0,0,1,64.5,231.57c-21.34-14.75-65.79-1.9-49.81,33.8H145.5C158.18,254.76,178.79,229.12,166.36,220.84Z" transform="translate(-2.82 -0.01)" fill="url(#linear-gradient-62)"/><g mask="url(#mask-19)"><path d="M179.48,214.25a1.64,1.64,0,0,0-1.74,1.54v.9a1.75,1.75,0,0,0,3.48,0v-.9A1.65,1.65,0,0,0,179.48,214.25Z" transform="translate(-2.82 -0.01)" fill="url(#linear-gradient-63)"/></g><g mask="url(#mask-20)"><path d="M190.86,240.71a1.65,1.65,0,0,0-1.74,1.54v1.12a1.75,1.75,0,0,0,3.48,0v-1.12A1.65,1.65,0,0,0,190.86,240.71Z" transform="translate(-2.82 -0.01)" fill="url(#linear-gradient-64)"/></g><g mask="url(#mask-21)"><path d="M190.86,225H177.7a1.55,1.55,0,1,0,0,3.07h11.42v8.61a1.75,1.75,0,0,0,3.48,0V226.52A1.65,1.65,0,0,0,190.86,225Z" transform="translate(-2.82 -0.01)" fill="url(#linear-gradient-65)"/></g><g mask="url(#mask-22)"><path d="M171.29,225h-6.68a1.55,1.55,0,1,0,0,3.07h6.68a1.55,1.55,0,1,0,0-3.07Z" transform="translate(-2.82 -0.01)" fill="url(#linear-gradient-66)"/></g><g mask="url(#mask-23)"><path d="M158.21,225h-1.56a1.55,1.55,0,1,0,0,3.07h1.56a1.55,1.55,0,1,0,0-3.07Z" transform="translate(-2.82 -0.01)" fill="url(#linear-gradient-67)"/></g><g mask="url(#mask-24)"><path d="M202.11,250H184.46a1.55,1.55,0,1,0,0,3.07h17v7.06a1.76,1.76,0,0,0,3.49,0v-7.66A2.66,2.66,0,0,0,202.11,250Z" transform="translate(-2.82 -0.01)" fill="url(#linear-gradient-68)"/></g><g mask="url(#mask-25)"><path d="M178.08,250h-1.75a1.55,1.55,0,1,0,0,3.07h1.75a1.55,1.55,0,1,0,0-3.07Z" transform="translate(-2.82 -0.01)" fill="url(#linear-gradient-69)"/></g></g></svg>