<svg width="382.3" height="69.303" viewBox="0 0 382.3 69.303" xmlns="http://www.w3.org/2000/svg"><g id="svgGroup" stroke-linecap="round" fill-rule="evenodd" font-size="9pt" stroke="#000" stroke-width="0.25mm" fill="none" style="stroke:#000;stroke-width:0.25mm;fill:none"><path d="M 349.8 47.002 L 350.2 47.202 Q 352.2 42.302 355.3 37.752 A 32.271 32.271 0 0 1 360.129 32.12 A 28.59 28.59 0 0 1 362.45 30.202 Q 366.5 27.202 371.3 27.202 A 12.63 12.63 0 0 1 374.246 27.525 A 8.271 8.271 0 0 1 378.55 30.002 Q 381.1 32.802 381.1 36.702 A 11.733 11.733 0 0 1 378.028 44.648 A 15.103 15.103 0 0 1 377.8 44.902 A 23.411 23.411 0 0 1 373.176 48.754 A 30.866 30.866 0 0 1 369.2 50.902 A 14.431 14.431 0 0 0 370.66 53.771 A 11.129 11.129 0 0 0 372.9 56.252 A 8.532 8.532 0 0 0 376.712 57.992 A 11.919 11.919 0 0 0 379 58.202 Q 380.2 58.202 381 58.002 A 1.132 1.132 0 0 1 381.167 57.976 Q 382.27 57.891 382.299 60.366 A 11.574 11.574 0 0 1 382.3 60.502 A 10.226 10.226 0 0 1 382.169 62.083 Q 382.02 63.036 381.7 64.102 A 6.929 6.929 0 0 1 379.77 67.181 A 8.554 8.554 0 0 1 379.35 67.552 A 5.532 5.532 0 0 1 377.581 68.511 Q 376.137 69.002 374.1 69.002 A 13.099 13.099 0 0 1 370.633 68.565 A 9.849 9.849 0 0 1 366.45 66.252 A 18.526 18.526 0 0 1 362.34 60.565 A 21.835 21.835 0 0 1 361.85 59.452 A 51.627 51.627 0 0 1 359.537 52.403 A 47.113 47.113 0 0 1 359.3 51.402 A 7.615 7.615 0 0 1 359.196 50.817 Q 358.772 47.685 361.8 47.502 A 14.75 14.75 0 0 0 364.746 46.873 A 11.064 11.064 0 0 0 367.7 45.402 Q 370.1 43.702 370.1 40.902 Q 370.1 37.702 367 37.702 Q 365.053 37.702 363.058 39.076 A 10.77 10.77 0 0 0 362.95 39.152 A 21.642 21.642 0 0 0 359.26 42.477 A 23.936 23.936 0 0 0 359.15 42.602 Q 357.4 44.602 356.3 46.502 Q 354.8 49.102 353.7 51.602 Q 352.6 54.102 351.9 56.602 L 351.9 60.602 A 10.433 10.433 0 0 1 351.524 63.468 A 8.107 8.107 0 0 1 349.75 66.702 A 7.097 7.097 0 0 1 344.692 69.084 A 9.724 9.724 0 0 1 344.1 69.102 A 3.723 3.723 0 0 1 342.252 68.604 A 4.555 4.555 0 0 1 342 68.452 Q 341.036 67.826 341.187 66.782 A 2.201 2.201 0 0 1 341.2 66.702 Q 342.7 58.702 343.75 50.452 Q 344.8 42.202 344.8 33.802 Q 344.8 26.402 344.3 20.402 Q 343.8 14.402 341.1 8.902 Q 340.717 8.06 340.452 7.393 A 20.514 20.514 0 0 1 340.3 7.002 A 5.062 5.062 0 0 1 340.085 6.274 A 3.727 3.727 0 0 1 340 5.502 A 3.607 3.607 0 0 1 340.516 3.685 Q 341.066 2.73 342.2 1.802 Q 344.4 0.002 346.9 0.002 A 4.377 4.377 0 0 1 350.683 1.965 Q 351.197 2.697 351.568 3.702 A 11.068 11.068 0 0 1 351.8 4.402 A 24.299 24.299 0 0 1 352.457 7.385 Q 353.1 11.355 353.1 17.402 Q 353.1 26.213 352.222 33.085 A 80.385 80.385 0 0 1 351.9 35.352 A 370.812 370.812 0 0 1 351.319 38.949 Q 350.475 44.002 349.8 47.002 Z M 178.568 68.736 A 29.056 29.056 0 0 0 184.4 69.302 Q 192.2 69.302 198.05 66.052 A 28.564 28.564 0 0 0 199.125 65.424 A 23.899 23.899 0 0 0 207.15 57.502 Q 210.4 52.202 210.4 46.102 A 21.994 21.994 0 0 0 210.34 44.445 Q 209.921 38.905 206.6 36.152 A 18.629 18.629 0 0 0 204.419 34.604 Q 202.676 33.539 200.5 32.67 A 39.174 39.174 0 0 0 196 31.202 Q 186 28.802 182.15 26.652 A 12.514 12.514 0 0 1 181.351 26.167 Q 180.388 25.531 179.73 24.812 A 5.064 5.064 0 0 1 178.3 21.302 Q 178.3 19.263 179.808 17.595 A 9.249 9.249 0 0 1 181.35 16.252 Q 184.4 14.102 189.3 14.102 Q 191.9 14.102 195.35 14.952 A 30.19 30.19 0 0 1 197.443 15.547 A 25.336 25.336 0 0 1 201.6 17.302 A 13.915 13.915 0 0 0 202.11 17.559 Q 203.455 18.202 204.3 18.202 Q 205.4 18.202 206.9 17.352 Q 208.4 16.502 209.5 15.002 A 5.55 5.55 0 0 0 210.252 13.594 A 6.131 6.131 0 0 0 210.6 11.502 Q 210.6 8.902 208.45 7.102 A 10.726 10.726 0 0 0 207.529 6.413 Q 206.488 5.717 205.177 5.164 A 20.412 20.412 0 0 0 202.65 4.302 A 26.845 26.845 0 0 0 199.313 3.618 A 33.664 33.664 0 0 0 194.6 3.302 A 32.258 32.258 0 0 0 190.664 3.535 A 25.389 25.389 0 0 0 184 5.252 A 29.06 29.06 0 0 0 181.942 6.2 A 24.336 24.336 0 0 0 176 10.402 A 25.663 25.663 0 0 0 174.819 11.625 A 21.83 21.83 0 0 0 171 17.452 A 21.872 21.872 0 0 0 170.602 18.415 A 18.731 18.731 0 0 0 169.3 25.202 A 22.287 22.287 0 0 0 169.3 25.209 Q 169.302 30.304 172.05 33.352 A 17.033 17.033 0 0 0 174.637 35.685 A 19.952 19.952 0 0 0 179.05 38.102 Q 183.3 39.802 187.9 40.902 A 95.444 95.444 0 0 1 188.46 41.039 Q 194.26 42.48 197.6 44.102 A 7.949 7.949 0 0 1 198.453 44.581 Q 200.009 45.59 200.65 47.148 A 6.394 6.394 0 0 1 201.1 49.602 Q 201.1 53.602 197.35 55.952 Q 193.6 58.302 187.7 58.302 Q 183.2 58.302 179.25 56.652 A 33.292 33.292 0 0 1 178.623 56.383 Q 176.955 55.645 175.562 54.804 A 19.154 19.154 0 0 1 172.8 52.802 Q 172.17 52.366 171.564 52.141 A 3.622 3.622 0 0 0 170.3 51.902 A 3.245 3.245 0 0 0 168.151 52.656 A 4.183 4.183 0 0 0 167.3 53.652 A 6.934 6.934 0 0 0 166.51 55.413 A 8.155 8.155 0 0 0 166.2 57.702 Q 166.2 61.202 168.7 63.802 A 14.641 14.641 0 0 0 172.035 66.363 A 20.029 20.029 0 0 0 175.35 67.852 A 24.823 24.823 0 0 0 178.568 68.736 Z M 14 41.202 L 10.8 41.202 Q 10.6 43.402 10.45 45.552 Q 10.3 47.702 10.3 49.502 A 29.804 29.804 0 0 0 10.434 52.402 Q 10.606 54.161 11 55.652 Q 11.7 58.302 13.7 60.202 A 4.604 4.604 0 0 1 14.61 61.459 A 3.968 3.968 0 0 1 15 63.202 A 3.98 3.98 0 0 1 14.214 65.543 Q 13.791 66.14 13.14 66.7 A 9.43 9.43 0 0 1 12.5 67.202 Q 10.101 68.929 6.412 68.999 A 16.539 16.539 0 0 1 6.1 69.002 A 7.796 7.796 0 0 1 4.136 68.743 A 9.079 9.079 0 0 1 3.65 68.602 A 3.182 3.182 0 0 1 2.37 67.804 Q 1.922 67.358 1.55 66.702 Q 0.78 65.344 0.708 62.673 A 21.001 21.001 0 0 1 0.7 62.102 A 26.434 26.434 0 0 1 0.739 60.73 Q 0.819 59.195 1.064 57.146 A 85.455 85.455 0 0 1 1.1 56.852 Q 1.5 53.602 2.2 48.402 Q 2.7 45.102 3.35 39.552 Q 4 34.002 4 27.902 Q 4 25.202 3.8 22.152 A 37.436 37.436 0 0 0 3.475 19.067 A 28.857 28.857 0 0 0 3 16.602 A 17.11 17.11 0 0 1 2.438 16.733 Q 1.871 16.855 1.479 16.889 A 3.244 3.244 0 0 1 1.2 16.902 A 1.638 1.638 0 0 1 0.854 16.868 Q 0.506 16.793 0.3 16.552 A 0.911 0.911 0 0 1 0.148 16.287 Q 0 15.905 0 15.202 Q 0 13.202 0.45 11.152 Q 0.9 9.102 1.9 7.702 A 6.671 6.671 0 0 1 2.914 6.565 A 5.228 5.228 0 0 1 4.25 5.702 Q 5.6 5.102 7.1 4.902 Q 9.6 4.602 13.45 4.352 Q 17.3 4.102 21.55 3.902 Q 25.8 3.702 29.3 3.702 A 360.52 360.52 0 0 1 31.497 3.708 Q 34.488 3.726 36.168 3.798 A 49.809 49.809 0 0 1 36.25 3.802 A 57.836 57.836 0 0 1 37.309 3.858 Q 38.451 3.93 39.246 4.035 A 13.496 13.496 0 0 1 39.7 4.102 A 4.316 4.316 0 0 1 40.791 4.406 Q 42.3 5.074 42.3 6.902 A 7.633 7.633 0 0 1 42.106 8.657 A 6.314 6.314 0 0 1 41.65 9.952 A 12.226 12.226 0 0 1 40.104 12.398 A 9.127 9.127 0 0 1 40.1 12.402 Q 39.264 13.618 38.342 14.285 A 4.747 4.747 0 0 1 37.75 14.652 A 4.189 4.189 0 0 1 36.648 15.032 Q 35.825 15.2 34.79 15.127 A 10.01 10.01 0 0 1 34.5 15.102 A 41.171 41.171 0 0 0 33.315 14.982 Q 32.08 14.873 30.409 14.781 A 144.648 144.648 0 0 0 29.85 14.752 A 108.345 108.345 0 0 0 27.106 14.649 Q 25.705 14.614 24.152 14.605 A 183.576 183.576 0 0 0 23.1 14.602 Q 21.669 14.602 19.437 14.682 A 206.997 206.997 0 0 0 18.9 14.702 Q 16.3 14.802 13.4 15.002 A 74.491 74.491 0 0 1 13.236 18.159 Q 13.12 19.768 12.933 21.547 A 126.491 126.491 0 0 1 12.8 22.752 Q 12.3 27.102 11.7 31.602 A 139.016 139.016 0 0 1 13.88 31.459 Q 14.852 31.402 15.932 31.351 A 269.674 269.674 0 0 1 18.2 31.252 Q 22 31.102 26 31.002 Q 29.438 30.916 32.21 30.904 A 204.187 204.187 0 0 1 33.1 30.902 A 11.451 11.451 0 0 1 33.986 30.934 Q 35.113 31.021 35.7 31.352 Q 36.487 31.795 36.5 33.254 A 5.528 5.528 0 0 1 36.5 33.302 Q 36.5 34.952 35.699 36.838 A 13.165 13.165 0 0 1 35.65 36.952 A 11.739 11.739 0 0 1 34.245 39.373 A 10.384 10.384 0 0 1 33.45 40.302 A 5.262 5.262 0 0 1 32.609 41.019 Q 31.734 41.609 30.799 41.609 A 2.996 2.996 0 0 1 30.6 41.602 Q 28.686 41.449 25.57 41.354 A 242.632 242.632 0 0 0 23.55 41.302 A 420.268 420.268 0 0 0 16.472 41.208 A 483.319 483.319 0 0 0 14 41.202 Z M 73.3 39.702 L 73.2 37.802 Q 73.059 34.288 73.981 31.959 A 7.525 7.525 0 0 1 74.95 30.202 A 6.323 6.323 0 0 1 79.179 27.718 A 9.575 9.575 0 0 1 80.7 27.602 A 7.761 7.761 0 0 1 81.821 27.676 Q 83.173 27.874 83.686 28.606 A 1.861 1.861 0 0 1 84 29.702 A 5.08 5.08 0 0 1 83.976 30.179 Q 83.925 30.709 83.772 31.405 A 15.984 15.984 0 0 1 83.75 31.502 A 20.321 20.321 0 0 1 83.527 32.383 Q 83.393 32.871 83.221 33.421 A 40.718 40.718 0 0 1 83 34.102 Q 82 37.802 81.3 41.952 Q 80.6 46.102 80.6 49.602 A 20.889 20.889 0 0 0 80.765 52.311 Q 80.947 53.697 81.328 54.858 A 10.458 10.458 0 0 0 81.8 56.052 A 5.928 5.928 0 0 0 84.568 58.844 A 8.996 8.996 0 0 0 86.3 59.502 Q 87.2 59.602 87.75 60.052 A 1.17 1.17 0 0 1 88.063 60.474 Q 88.247 60.87 88.288 61.513 A 6.125 6.125 0 0 1 88.3 61.902 Q 88.3 64.18 86.498 66.368 A 11.441 11.441 0 0 1 86.3 66.602 A 6.454 6.454 0 0 1 82.825 68.648 A 10.018 10.018 0 0 1 80.5 68.902 A 7.196 7.196 0 0 1 76.971 68.087 Q 73.2 66.005 73.2 58.602 Q 73.2 57.224 73.376 54.791 A 145.349 145.349 0 0 1 73.5 53.202 L 73.3 53.102 A 40.473 40.473 0 0 1 69.902 59.999 Q 64.045 69.302 54.8 69.302 A 13.813 13.813 0 0 1 51.633 68.96 Q 49.203 68.388 47.517 66.859 A 8.676 8.676 0 0 1 47.05 66.402 Q 44.716 63.941 44.363 59.607 A 19.77 19.77 0 0 1 44.3 58.002 A 30.057 30.057 0 0 1 45.026 51.532 A 34.574 34.574 0 0 1 45.4 50.002 Q 45.9 48.302 46.2 46.602 Q 46.5 44.902 46.5 43.202 Q 46.5 38.802 43.8 37.502 Q 41.81 36.431 41.343 35.242 A 2.008 2.008 0 0 1 41.2 34.502 A 4.146 4.146 0 0 1 41.604 32.752 Q 41.873 32.169 42.322 31.585 A 8.041 8.041 0 0 1 42.55 31.302 Q 43.9 29.702 45.9 28.652 A 9.409 9.409 0 0 1 48.025 27.833 A 7.821 7.821 0 0 1 49.9 27.602 A 4.738 4.738 0 0 1 54.43 30.383 Q 55.479 32.449 55.587 36.048 A 28.264 28.264 0 0 1 55.6 36.902 A 35.253 35.253 0 0 1 55.458 40.135 A 28.257 28.257 0 0 1 55.15 42.452 Q 54.7 45.002 54.1 47.302 Q 53.7 48.902 53.45 50.502 Q 53.246 51.805 53.209 52.843 A 12.627 12.627 0 0 0 53.2 53.302 A 7.378 7.378 0 0 0 53.434 55.25 Q 54.272 58.302 58.1 58.302 A 9.041 9.041 0 0 0 63.052 56.773 Q 64.405 55.905 65.698 54.543 A 20.313 20.313 0 0 0 66.7 53.402 A 27.938 27.938 0 0 0 69.692 48.828 Q 70.944 46.472 72.01 43.598 A 60.474 60.474 0 0 0 73.3 39.702 Z M 310.209 68.765 A 18.529 18.529 0 0 0 314.8 69.302 Q 319 69.302 323.15 67.852 Q 327.3 66.402 329.8 64.102 A 14.995 14.995 0 0 0 330.489 63.436 Q 331.46 62.432 332.07 61.395 A 7 7 0 0 0 333.1 57.802 Q 333.1 55.927 331.975 55.458 A 2.263 2.263 0 0 0 331.1 55.302 A 2.871 2.871 0 0 0 331.076 55.302 Q 330.32 55.308 329.604 55.712 A 4.453 4.453 0 0 0 328.8 56.302 A 15.27 15.27 0 0 1 327.362 57.229 A 17.272 17.272 0 0 1 323.75 58.752 A 25.636 25.636 0 0 1 323.664 58.777 Q 320.864 59.602 318.5 59.602 A 12.912 12.912 0 0 1 317.106 59.529 A 9.304 9.304 0 0 1 311.1 56.602 A 10.026 10.026 0 0 1 308.71 52.175 A 13.934 13.934 0 0 1 308.3 48.702 A 16.155 16.155 0 0 1 308.545 45.827 A 11.441 11.441 0 0 1 311.4 39.952 A 10.082 10.082 0 0 1 315.457 37.243 A 11.67 11.67 0 0 1 319.4 36.602 A 13.936 13.936 0 0 1 320.902 36.678 Q 321.749 36.77 322.452 36.973 A 5.712 5.712 0 0 1 323.9 37.602 Q 325.5 38.602 326.5 39.702 A 2.387 2.387 0 0 0 326.596 39.807 A 1.878 1.878 0 0 0 328 40.402 A 2.189 2.189 0 0 0 328.351 40.371 Q 329.094 40.25 330.25 39.652 A 13.43 13.43 0 0 0 330.457 39.542 Q 331.765 38.837 332.6 38.002 A 11.94 11.94 0 0 0 333.152 37.413 Q 333.865 36.596 334.303 35.768 A 5.649 5.649 0 0 0 335 33.102 A 4.532 4.532 0 0 0 333.669 29.811 A 6.664 6.664 0 0 0 332.2 28.702 A 10.203 10.203 0 0 0 330.238 27.853 Q 329.014 27.462 327.535 27.274 A 23.403 23.403 0 0 0 324.6 27.102 Q 317.5 27.102 311.9 30.502 Q 306.3 33.902 303.1 39.802 A 25.511 25.511 0 0 0 300.898 45.322 A 30.062 30.062 0 0 0 299.9 53.202 A 27.677 27.677 0 0 0 299.928 54.451 Q 300.045 57.041 300.656 59.211 A 13.999 13.999 0 0 0 303.85 65.052 A 12.799 12.799 0 0 0 310.209 68.765 Z M 257.971 68.73 A 15.581 15.581 0 0 0 262.3 69.302 A 19.528 19.528 0 0 0 263.337 69.275 A 15.604 15.604 0 0 0 272.05 66.202 A 23.243 23.243 0 0 0 274.386 64.203 A 25.577 25.577 0 0 0 278.9 58.202 A 22.565 22.565 0 0 0 279.025 60.642 Q 279.196 62.213 279.602 63.511 A 9.549 9.549 0 0 0 281 66.352 A 6.662 6.662 0 0 0 284.429 68.834 A 8.527 8.527 0 0 0 287 69.202 Q 289.9 69.202 291.45 67.852 A 8.263 8.263 0 0 0 292.263 67.042 A 6.406 6.406 0 0 0 293.55 64.802 Q 294.1 63.102 294.1 62.002 Q 294.1 60.702 293.55 60.302 A 2.723 2.723 0 0 0 293.31 60.146 Q 292.815 59.861 292.1 59.702 A 7.998 7.998 0 0 1 290.992 59.393 A 5.557 5.557 0 0 1 287.55 56.052 Q 286.4 53.102 286.4 49.302 Q 286.4 47.302 286.6 45.302 Q 286.8 43.302 287.2 41.202 A 22.916 22.916 0 0 0 287.361 41.245 Q 288.084 41.437 288.474 41.485 A 1.869 1.869 0 0 0 288.7 41.502 A 2.379 2.379 0 0 0 288.845 41.498 A 1.782 1.782 0 0 0 290.15 40.852 Q 290.7 40.202 291 39.402 A 8.561 8.561 0 0 0 291.186 38.752 Q 291.274 38.398 291.351 37.984 A 20.27 20.27 0 0 0 291.5 37.052 A 33.935 33.935 0 0 0 291.517 36.925 Q 291.64 36.008 291.68 35.318 A 10.647 10.647 0 0 0 291.7 34.702 A 5.011 5.011 0 0 0 290.997 32.095 Q 290.424 31.13 289.384 30.324 A 10.848 10.848 0 0 0 287.45 29.152 A 17.47 17.47 0 0 0 286.605 28.772 Q 284.411 27.854 281.786 27.44 A 29.502 29.502 0 0 0 277.2 27.102 Q 270.7 27.102 265.5 29.502 Q 260.3 31.902 256.6 35.902 Q 252.9 39.902 250.95 44.852 A 30.534 30.534 0 0 0 250.714 45.471 A 26.779 26.779 0 0 0 249 54.802 A 24.822 24.822 0 0 0 249.047 56.346 Q 249.187 58.6 249.749 60.478 A 12.112 12.112 0 0 0 252.65 65.552 A 11.895 11.895 0 0 0 257.971 68.73 Z M 222.85 65.252 A 8.429 8.429 0 0 0 224.371 67.007 Q 227.008 69.302 231.6 69.302 A 17.958 17.958 0 0 0 234.809 69.027 A 13.166 13.166 0 0 0 239.9 67.002 A 9.736 9.736 0 0 0 241.619 65.548 A 5.956 5.956 0 0 0 243.3 61.402 A 4.423 4.423 0 0 0 243.254 60.74 Q 243.202 60.397 243.091 60.125 A 1.61 1.61 0 0 0 242.6 59.452 A 1.759 1.759 0 0 0 242.309 59.268 Q 241.587 58.902 240.2 58.902 A 23.877 23.877 0 0 1 237.496 58.758 Q 235.898 58.575 234.585 58.162 A 9.662 9.662 0 0 1 231.8 56.802 A 5.451 5.451 0 0 1 231.657 56.695 Q 229.629 55.123 229.093 51.647 A 18.061 18.061 0 0 1 228.9 48.902 Q 228.9 47.439 229.074 45.771 A 43.175 43.175 0 0 1 229.45 43.052 Q 230 39.802 230.7 36.702 A 47.436 47.436 0 0 1 231.907 36.717 Q 232.88 36.742 233.743 36.808 A 24.498 24.498 0 0 1 235.5 37.002 A 66.471 66.471 0 0 1 236.709 37.194 Q 237.278 37.29 237.775 37.386 A 29.407 29.407 0 0 1 238.8 37.602 Q 239.425 37.727 239.933 37.813 A 22.399 22.399 0 0 0 240.5 37.902 A 24.198 24.198 0 0 0 240.506 37.903 Q 241.201 38.002 241.5 38.002 A 1.67 1.67 0 0 0 242.239 37.827 Q 242.919 37.495 243.535 36.537 A 8.641 8.641 0 0 0 244.05 35.602 A 12.88 12.88 0 0 0 244.498 34.552 A 10.632 10.632 0 0 0 245.2 30.802 Q 245.2 29.634 244.878 28.853 A 2.411 2.411 0 0 0 243.95 27.702 A 4.285 4.285 0 0 0 242.949 27.241 Q 241.897 26.902 240.4 26.902 A 22.301 22.301 0 0 0 239.487 26.921 A 25.54 25.54 0 0 0 236.65 27.202 Q 234.7 27.502 232.8 27.902 Q 233 26.802 233.15 25.752 A 15.809 15.809 0 0 0 233.168 25.621 A 14.408 14.408 0 0 0 233.3 23.702 Q 233.3 21.95 232.833 21.006 A 1.815 1.815 0 0 0 231.1 19.902 A 3.734 3.734 0 0 0 230.744 19.919 Q 229.576 20.031 228.116 20.863 A 14.905 14.905 0 0 0 226.75 21.752 A 32.126 32.126 0 0 0 224.479 23.568 A 41.148 41.148 0 0 0 221.65 26.302 A 38.951 38.951 0 0 0 219.857 28.334 A 31.55 31.55 0 0 0 217.4 31.752 Q 216.284 33.557 215.901 34.995 A 5.479 5.479 0 0 0 215.7 36.402 Q 215.7 38.202 217.9 38.202 Q 220 38.202 222.1 37.602 A 97.836 97.836 0 0 1 221.965 38.809 A 114.592 114.592 0 0 1 221.6 41.602 Q 221.3 43.702 221 45.902 Q 220.7 48.102 220.45 50.302 Q 220.2 52.502 220.2 54.802 A 29.14 29.14 0 0 0 220.231 56.153 Q 220.485 61.638 222.85 65.252 Z M 97.1 67.402 A 4.134 4.134 0 0 0 98.131 68.251 Q 99.414 69.002 101.4 69.002 A 14.484 14.484 0 0 0 102.734 68.943 Q 105.2 68.715 106.75 67.602 A 12.253 12.253 0 0 0 106.978 67.434 Q 107.755 66.848 108.336 66.211 A 6.902 6.902 0 0 0 109.5 64.502 Q 110.288 62.829 110.3 62.027 A 1.644 1.644 0 0 0 110.3 62.002 A 2.462 2.462 0 0 0 110.29 61.772 Q 110.24 61.242 109.95 60.952 Q 109.709 60.711 109.303 60.447 A 8.195 8.195 0 0 0 108.9 60.202 A 19.477 19.477 0 0 1 107.485 59.308 Q 105.959 58.242 105.15 57.152 A 3.977 3.977 0 0 1 104.84 56.661 Q 104.261 55.581 104.081 53.824 A 16.958 16.958 0 0 1 104 52.102 A 25.484 25.484 0 0 1 104 51.966 Q 104.011 49.918 104.35 47.402 Q 104.7 44.802 105.1 41.902 Q 105.7 37.502 106.35 31.702 A 87.22 87.22 0 0 0 106.619 28.868 Q 107 24.05 107 18.002 A 132.237 132.237 0 0 0 106.998 17.316 Q 106.973 12.533 106.6 8.752 A 26.446 26.446 0 0 0 106.314 6.664 Q 106.087 5.404 105.748 4.354 A 11.271 11.271 0 0 0 104.9 2.352 A 5.798 5.798 0 0 0 104.581 1.839 Q 103.871 0.822 102.849 0.368 A 4.508 4.508 0 0 0 101 0.002 Q 99.4 0.002 97.7 0.852 A 11.883 11.883 0 0 0 96.644 1.447 A 9.584 9.584 0 0 0 94.85 2.902 A 5.947 5.947 0 0 0 94.738 3.022 Q 93.7 4.167 93.7 5.402 A 1.859 1.859 0 0 0 93.7 5.433 Q 93.716 6.337 94.6 8.302 A 26.919 26.919 0 0 1 96.636 13.704 A 35.389 35.389 0 0 1 97.65 19.752 A 166.332 166.332 0 0 1 97.808 21.788 A 148.653 148.653 0 0 1 98.2 32.402 Q 98.2 36.702 97.75 41.402 Q 97.3 46.102 96.7 50.402 Q 96.3 53.902 96 56.902 Q 95.803 58.871 95.735 60.366 A 31.957 31.957 0 0 0 95.7 61.802 A 20.487 20.487 0 0 0 95.72 62.727 Q 95.868 65.994 97.1 67.402 Z M 119.9 67.402 A 4.134 4.134 0 0 0 120.931 68.251 Q 122.214 69.002 124.2 69.002 A 14.484 14.484 0 0 0 125.534 68.943 Q 128 68.715 129.55 67.602 A 12.253 12.253 0 0 0 129.778 67.434 Q 130.555 66.848 131.136 66.211 A 6.902 6.902 0 0 0 132.3 64.502 Q 133.088 62.829 133.1 62.027 A 1.644 1.644 0 0 0 133.1 62.002 A 2.462 2.462 0 0 0 133.09 61.772 Q 133.04 61.242 132.75 60.952 Q 132.509 60.711 132.103 60.447 A 8.195 8.195 0 0 0 131.7 60.202 A 19.477 19.477 0 0 1 130.285 59.308 Q 128.759 58.242 127.95 57.152 A 3.977 3.977 0 0 1 127.64 56.661 Q 127.061 55.581 126.881 53.824 A 16.958 16.958 0 0 1 126.8 52.102 A 25.484 25.484 0 0 1 126.8 51.966 Q 126.811 49.918 127.15 47.402 Q 127.5 44.802 127.9 41.902 Q 128.5 37.502 129.15 31.702 A 87.22 87.22 0 0 0 129.419 28.868 Q 129.8 24.05 129.8 18.002 A 132.237 132.237 0 0 0 129.798 17.316 Q 129.773 12.533 129.4 8.752 A 26.446 26.446 0 0 0 129.114 6.664 Q 128.887 5.404 128.548 4.354 A 11.271 11.271 0 0 0 127.7 2.352 A 5.798 5.798 0 0 0 127.381 1.839 Q 126.671 0.822 125.649 0.368 A 4.508 4.508 0 0 0 123.8 0.002 Q 122.2 0.002 120.5 0.852 A 11.883 11.883 0 0 0 119.444 1.447 A 9.584 9.584 0 0 0 117.65 2.902 A 5.947 5.947 0 0 0 117.538 3.022 Q 116.5 4.167 116.5 5.402 A 1.859 1.859 0 0 0 116.5 5.433 Q 116.516 6.337 117.4 8.302 A 26.919 26.919 0 0 1 119.436 13.704 A 35.389 35.389 0 0 1 120.45 19.752 A 166.332 166.332 0 0 1 120.608 21.788 A 148.653 148.653 0 0 1 121 32.402 Q 121 36.702 120.55 41.402 Q 120.1 46.102 119.5 50.402 Q 119.1 53.902 118.8 56.902 Q 118.603 58.871 118.535 60.366 A 31.957 31.957 0 0 0 118.5 61.802 A 20.487 20.487 0 0 0 118.52 62.727 Q 118.668 65.994 119.9 67.402 Z M 265.5 58.902 Q 269.5 58.902 272.55 56.402 A 16.93 16.93 0 0 0 277.247 50.22 A 19.591 19.591 0 0 0 277.3 50.102 A 23.939 23.939 0 0 0 278.669 46.249 A 27.933 27.933 0 0 0 279 44.852 Q 279.6 42.002 279.8 39.202 A 16.899 16.899 0 0 0 277.76 38.407 A 22.279 22.279 0 0 0 275.9 37.902 A 20.568 20.568 0 0 0 271.609 37.404 A 22.856 22.856 0 0 0 271.3 37.402 A 16.926 16.926 0 0 0 266.556 38.037 A 13.274 13.274 0 0 0 261.25 41.002 Q 257.3 44.602 257.3 50.002 A 11.845 11.845 0 0 0 257.609 52.784 A 8.304 8.304 0 0 0 259.5 56.452 Q 261.7 58.902 265.5 58.902 Z" vector-effect="non-scaling-stroke"/></g></svg>