<?xml version='1.0' encoding='iso-8859-1'?>
<!DOCTYPE svg PUBLIC '-//W3C//DTD SVG 1.1//EN' 'http://www.w3.org/Graphics/SVG/1.1/DTD/svg11.dtd'>
<svg version="1.1" xmlns="http://www.w3.org/2000/svg" viewBox="0 0 297 297" xmlns:xlink="http://www.w3.org/1999/xlink" enable-background="new 0 0 297 297">
  <g>
    <path d="m293.697,128.584l-138.368-124.672c-3.798-3.422-9.566-3.424-13.366-0.008l-138.652,124.672c-3.076,2.766-4.13,7.143-2.647,11.004 1.48,3.863 5.189,6.414 9.327,6.414h31.38v139.672c0,5.518 4.473,9.99 9.989,9.99h194.281c5.517,0 9.989-4.473 9.989-9.99v-139.672h31.38c4.136,0 7.843-2.549 9.325-6.408 1.484-3.861 0.435-8.234-2.638-11.002zm-58.046,147.092h-174.301v-135.194l87.152-77.676 87.148,77.676v135.194zm13.796-149.66l-94.297-84.047c-3.787-3.377-9.506-3.377-13.293,0l-94.302,84.047h-11.512l112.594-101.243 112.363,101.242h-11.553z"/>
    <path d="m114.675,152.313c-23.291,0.459-42.097,19.549-42.097,42.947 0,23.686 19.271,42.955 42.956,42.955h22.977v4.496h-6.494c-5.517,0-9.989,4.473-9.989,9.988 0,5.518 4.473,9.99 9.989,9.99h32.967c5.517,0 9.989-4.473 9.989-9.99 0-5.516-4.473-9.988-9.989-9.988h-6.494v-4.496h31.219c19.141,0 34.714-15.572 34.714-34.715 0-18.947-15.262-34.4-34.138-34.709-4.513-18.887-21.534-32.971-41.784-32.971-13.292,5.68434e-14-25.753,6.19-33.826,16.493zm56.802,26.462c0,0.334-0.013,0.662-0.026,0.992-0.145,3.318 1.37,6.492 4.043,8.467 2.671,1.975 6.15,2.49 9.279,1.381 1.586-0.564 3.246-0.85 4.936-0.85 8.124,0 14.734,6.609 14.734,14.734s-6.61,14.734-14.734,14.734h-74.174c-12.67,0-22.977-10.307-22.977-22.975 0-12.67 10.307-22.977 22.977-22.977 0.955,0 1.932,0.064 2.983,0.201 4.033,0.52 7.97-1.457 9.97-4.99 4.08-7.215 11.748-11.695 20.013-11.695 12.669,0.002 22.976,10.309 22.976,22.978z"/>
  </g>
</svg>
