<svg id="Layer_1" data-name="Layer 1" xmlns="http://www.w3.org/2000/svg" viewBox="0 0 2499.28 1653">
  <path d="M932.19,493.05V344c14.71-.92,29.43-1.84,44.15-1.84,408.42-12.88,676.1,351.39,676.1,351.39s-288.84,401.06-598.83,401.06a379.81,379.81,0,0,1-120.5-19.32V622.75c159.13,19.32,191.33,89.23,286.07,248.36l212.49-178.45S1276.22,489.37,1015,489.37c-27.59-.92-55.19.92-82.78,3.68m0-493V222.61l44.15-2.76C1543.9,200.53,1914.6,685.3,1914.6,685.3s-425,517-867.43,517a674,674,0,0,1-114.06-10.12v138c31.27,3.68,63.47,6.44,94.74,6.44,412.1,0,710.14-210.65,999-459,47.83,38.64,243.76,131.54,284.24,172-274.12,230-913.43,414.86-1275.86,414.86A907.28,907.28,0,0,1,934,1458.91V1653H2499.64V0Zm0,1075.32v117.75C551.36,1125,445.58,728.53,445.58,728.53S628.63,526.16,932.19,493.05V621.83h-.92C772.13,602.51,647,751.53,647,751.53s70.83,251.12,285.16,323.79M256.08,712s225.37-333,677-368V222.61C432.7,263.08.36,686.22.36,686.22s244.69,708.3,931.83,772.69V1330.13C428.1,1267.58,256.08,712,256.08,712Z" transform="translate(-0.36)"/>
</svg>
