<svg id="Layer_1" data-name="Layer 1" xmlns="http://www.w3.org/2000/svg" viewBox="0 0 930.99 797.33">
  <path d="M727.27,128.56H664V667.85a64.43,64.43,0,0,1-64.43,64.44H116v.61a64.43,64.43,0,0,0,64.43,64.43H727.27A64.42,64.42,0,0,0,791.7,732.9h0V193A64.43,64.43,0,0,0,727.27,128.56Z" transform="translate(0 0)" fill="#fbf5f1"/>
  <rect y="73.24" width="675.74" height="668.78" rx="26.74" fill="#fbf5f1"/>
  <path d="M64.43,86.49a51.18,51.18,0,0,0-51.18,51.18h0V677.58a51.18,51.18,0,0,0,51.18,51.18h349c137.54,0,249-111.49,249-249V137.67a51.18,51.18,0,0,0-51.18-51.18H64.43Z" transform="translate(0 0)" fill="#fff"/>
  <path d="M690.53,448.82a20,20,0,0,1-25.26-17.1l-95.56-28.86,1.48-28.4,113.25,35.11a20,20,0,0,1,6.09,39.25Z" transform="translate(0 0)" fill="#eed5c6"/>
  <path d="M368.78,302.35c-9.68-8.08,4.49-48.1.67-59.7-.23-.71-.44-1.41-.65-2.12a6.79,6.79,0,0,1,.27-4.53L405,219.11a87.21,87.21,0,0,1,25.49,16L486,298.5l55.13,49.79,24.19,10.78,80.15,35.75-.83,2.4h0l-8.81,25.59h0l17.62,12.29-57.7-8.69-38.16-15.74L520.8,395.52C466.55,362.87,377.29,346,368.78,302.35Z" transform="translate(0 0)" fill="#d19068"/>
  <path d="M624.51,596a5.68,5.68,0,0,1-7.48-7.6c-.07-.58-.13-1-.21-1.58l-.28-.29c-9.49-9.62-25.89-3-26.06,10.55-.14,12-1.45,24.47,1.57,35.87a44.9,44.9,0,0,0,6.5,14.1,180.69,180.69,0,0,1-43.19-63.57,173.51,173.51,0,0,1-6.23-18.47q-2.13-7.71-3.56-15.57a182.85,182.85,0,0,1,4.82-85.42,48.61,48.61,0,0,0,11-27,37.09,37.09,0,0,0-.64-10.67c-.87.48-9-12.43-8.64-13.56-2.05-1.42-4.71-1.47-6.86-2.8-10.68-6.61-19.56-1.15-19.43,13.6-8.49,9.63-5,18.57,4.94,24.52,6.33,3.78,9.86,10.92,15.84,15.3-.19.63-.39,1.25-.57,1.88a184.13,184.13,0,0,0-6.51,35.39c-3-11.63-10.45-24.12-17.46-31.29-8-8.16-18.89-13.36-29-19.13-12.12-6.94-26.84,4.1-23.09,17.56,0,.13.07.26.11.39,1.22.16,2.43.37,3.64.61A7.7,7.7,0,0,1,476.05,483l-.14.08A76.71,76.71,0,0,0,482,493c4.73,36.67,28.13,41.34,54.83,31.27.71.06,1.4.14,2.1.19a188.06,188.06,0,0,0,8.31,47.92A178.56,178.56,0,0,0,558.1,599l-.17-.29a47,47,0,0,0-25-19.25c-15.25-4.83-32.86-1.81-48.29-4.42-7.42-1.26-13.17,6.51-9.36,13l.18.31a51.19,51.19,0,0,1,6.43.44c1.22.16,2.43.36,3.63.61a7.7,7.7,0,0,1,2.33,14.16l-.13.08-.28.16a76.4,76.4,0,0,0,21.3,15.25c17,26.86,41.17,20.36,62.47,2h0a187.91,187.91,0,0,0,25.41,29.48l41.83-16.76c0-.52-.09-1.06-.15-1.58a50.49,50.49,0,0,1-11.85,3.95c1.58-5,3.15-10.13,4.72-15.18,0-.1.08-.2.11-.3.79-2.58,1.61-5.16,2.4-7.73h0A74.93,74.93,0,0,0,624.51,596Z" transform="translate(0 0)" fill="#fbf5f1"/>
  <path d="M394.61,632.85l-.48-.6C392.75,623.37,394.61,632.85,394.61,632.85Z" transform="translate(0 0)" fill="#b9571a"/>
  <path d="M419.11,728.64h-134c-10.41-25.88-17.63-44.39-17.63-44.39s-1.76,18.13-4.26,44.39H142.07c-1.13-71.36-2.72-144.63-3.24-167.9l232.53,5.18,23.12,29.33c.08.49.16,1,.26,1.64C395.68,602.85,408.27,666.82,419.11,728.64Z" transform="translate(0 0)" fill="#b9571a"/>
  <path d="M417.08,226.74l0,0a6.75,6.75,0,0,0-3.37-3C399,212.24,382.87,207,364.79,210.6c-3-9-5.72-9-5.72-9l-39.21-12.95-5.64-34.45L217.61,151l-8.78,43s-54,9.68-54,16.68,9,7,0,7-11.41-8-19.2,0a27.2,27.2,0,0,1-2.11,1.9l-.28.23a66.71,66.71,0,0,0-25.15,59L124.7,444l17.73,176.31,242.64,10.1,16.25-150L417.85,230.7A6.82,6.82,0,0,0,417.08,226.74Z" transform="translate(0 0)" fill="#d19068"/>
  <path d="M18.77,669.83c1.38,3.49,2.78,6,4.19,7.3l470.58,1c1.41-1.26,2.81-3.81,4.2-7.3,16.46-41.4-14.59-86.31-59.15-86.39l-360.65-.68C33.44,583.67,2.33,628.48,18.77,669.83Z" transform="translate(0 0)" fill="#fff"/>
  <path d="M493.92,679.13h-.38l-471-1-.28-.25c-1.47-1.32-2.93-3.83-4.46-7.68h0a62.61,62.61,0,0,1,6.6-59.15,64.45,64.45,0,0,1,53.38-28.29h.12l360.65.68a64.73,64.73,0,0,1,53.52,28.49,62.85,62.85,0,0,1,6.56,59.27c-1.54,3.85-3,6.36-4.46,7.68ZM54.4,676l399-1.21c28.16-.09,48.88-27.27,40.53-54.17a28.47,28.47,0,0,0-3.49-7.6,62.75,62.75,0,0,0-51.87-27.62l-360.65-.68h-.12a38.45,38.45,0,0,0-13.34,2.85c-23.29,8.81-38.87,31-40.17,55.84,0,.32,0,.64,0,1A30.1,30.1,0,0,0,52.76,676h0c.55,0,1.1,0,1.64,0Z" transform="translate(0 0)" fill="#f7ebe4"/>
  <path d="M585.06,316.46c-5.15-21.65-4.29-43,4.53-63.85a4.9,4.9,0,0,1,5.22-4.53L643,251.5a4.9,4.9,0,0,1,4.53,5.22L643,320.57a4.88,4.88,0,0,1-5.22,4.53l-48.22-3.42A4.89,4.89,0,0,1,585.06,316.46Z" transform="translate(0 0)" fill="#fbf5f1"/>
  <path d="M590.13,297.44c-4.13-10.67-1.49-25.34,2.91-41.06a4.58,4.58,0,0,1,4.89-4.24l41.45,2.94a4.59,4.59,0,0,1,4.24,4.89l-4,56.82A4.58,4.58,0,0,1,634.7,321L609,319.21A20.41,20.41,0,0,1,590.13,297.44Z" transform="translate(0 0)" fill="#fff"/>
  <path d="M618.82,300.22l-3.8-.65a12.77,12.77,0,0,0,1-4.34c.6-8,.66-16.06,1-24.07a1.51,1.51,0,0,0-1.56-1.47,1.48,1.48,0,0,0-1,.41L604.9,278c-1.49,1.23.64,3.35,2.12,2.12l6.85-5.67-.63,15.74c-.1,2.52.2,5.58-.83,7.95a3.78,3.78,0,0,1-.54.88l-4.21-.72c-1-.17-2.29.67-1.84,1.85,1,2.56,3.8,3.36,6.24,2.38a6.25,6.25,0,0,0,.63-.33l5.33.91C619.91,303.44,620.72,300.55,618.82,300.22Z" transform="translate(0 0)" fill="#d19068"/>
  <path d="M865.06,531.46c-5.15-21.65-4.29-43,4.53-63.85a4.9,4.9,0,0,1,5.22-4.53L923,466.5a4.9,4.9,0,0,1,4.53,5.22L923,535.57a4.88,4.88,0,0,1-5.22,4.53l-48.22-3.42A4.89,4.89,0,0,1,865.06,531.46Z" transform="translate(0 0)" fill="#fbf5f1"/>
  <path d="M870.13,512.44c-4.13-10.67-1.49-25.34,2.91-41.06a4.58,4.58,0,0,1,4.89-4.24l41.45,2.94a4.59,4.59,0,0,1,4.24,4.89l-4,56.82A4.58,4.58,0,0,1,914.7,536L889,534.21A20.4,20.4,0,0,1,870.13,512.44Z" transform="translate(0 0)" fill="#fff"/>
  <path d="M897.18,501.6a8.51,8.51,0,0,0,1.56-.94,8.6,8.6,0,0,0,2.81-9c-1.94-7.15-10.49-7.19-16.39-6.33-1.9.28-1.09,3.17.8,2.89,4-.58,10.22-1,12.36,3.3a5.71,5.71,0,0,1-.92,6.28,5.55,5.55,0,0,1-3.37,1.61,9,9,0,0,0-3.93-.74c-1.39.07-2.17,2.09-.76,2.8a9.16,9.16,0,0,0,4,1,6.49,6.49,0,0,1,3.67,6.19,6.73,6.73,0,0,1-7.66,5.64h0c-1.89-.38-2.7,2.51-.8,2.89a9.76,9.76,0,0,0,11.39-7.78L900,509A9.09,9.09,0,0,0,897.18,501.6Z" transform="translate(0 0)" fill="#d19068"/>
  <path d="M811.06,189.46c-5.15-21.65-4.29-43,4.53-63.85a4.9,4.9,0,0,1,5.22-4.53L869,124.5a4.9,4.9,0,0,1,4.53,5.22L869,193.57a4.88,4.88,0,0,1-5.22,4.53l-48.22-3.42A4.89,4.89,0,0,1,811.06,189.46Z" transform="translate(0 0)" fill="#fbf5f1"/>
  <path d="M816.13,170.44c-4.13-10.67-1.49-25.34,2.91-41.06a4.58,4.58,0,0,1,4.89-4.24l41.45,2.94a4.59,4.59,0,0,1,4.24,4.89l-4,56.82A4.58,4.58,0,0,1,860.7,194L835,192.21A20.4,20.4,0,0,1,816.13,170.44Z" transform="translate(0 0)" fill="#fff"/>
  <path d="M841.61,141.84c-4.24-1.47-9,1.89-9.45,6.24-.55,4.94,4.76,8.84,9.36,7.5,1.85-.54,1.06-3.44-.8-2.9-3.37,1-7-2.65-5-5.91a4.42,4.42,0,0,1,4.52-2.21,5,5,0,0,1,3.35,3c1.65,3.73-.31,7.51-2.92,10.22-1.48,1.55-3.23,2.75-4.83,4.16a6.94,6.94,0,0,0-2.74,4.95,6,6,0,0,0,3.41,5.18c2.56,1.32,5.47.9,8.19.46,1.9-.3,1.09-3.2-.8-2.89-2.38.38-5.94,1-7.45-1.52-1.29-2.12,1.37-4,2.82-5.12,3.64-2.84,7.32-6.51,7.87-11.34C847.57,147.73,845.56,143.21,841.61,141.84Z" transform="translate(0 0)" fill="#d19068"/>
  <path d="M109.8,434.13l23.76,10.7c-11.17,9.06-28.18,21.25-44.84,26.89L62.25,453.67c-9.86-38-3.82-77.2,8-110.33A249.15,249.15,0,0,1,96.22,291a66.72,66.72,0,0,1,25.15-59l.28-.23a87.32,87.32,0,0,1,29.92,60.63l.53,8.76,1.06,17.26,2.69,44.08L124,412.13Z" transform="translate(0 0)" fill="#d19068"/>
  <path d="M178.15,622.31a2.92,2.92,0,0,0,2.32,1.11H342.81a3,3,0,0,0,3-3,3.17,3.17,0,0,0-.07-.61l-2.52-12a3,3,0,0,0-2.92-2.37H183a3,3,0,0,0-2.92,2.37l-2.52,12A3,3,0,0,0,178.15,622.31Z" transform="translate(0 0)" fill="#b9571a"/>
  <path d="M116,354.35V541.61a9,9,0,0,0,9,9H402.5a9,9,0,0,0,9-9V354.35a9,9,0,0,0-9-9H125A9,9,0,0,0,116,354.35Z" transform="translate(0 0)" fill="#bf642d"/>
  <path d="M229,513.87V616.43h71.85V513.87a3.45,3.45,0,0,0-2.43-3.3,3.26,3.26,0,0,0-1-.16H232.5a3.48,3.48,0,0,0-3.47,3.46Zm28,35.24a7.67,7.67,0,0,1,15.34,0V561a7.67,7.67,0,0,1-15.34,0Z" transform="translate(0 0)" fill="#b9571a"/>
  <circle cx="270.97" cy="84.6" r="62.53" fill="#eed5c6"/>
  <path d="M345.83,73.66c-6.74,2.09-13.24,3.33-17.62-2.2S325,59.61,318.45,56.94c-5.27-2.16-11.35-1.23-16.66.77-.94.35-1.87.75-2.77,1.15-.51-.44-1-.86-1.57-1.26a19.85,19.85,0,0,0-14.29-3.48,19.46,19.46,0,0,1,8.65,8.26c-1.8.91-3.74,1.58-5.48,2.58-23.88,13.73-50.44,19.26-48.27-3.66,7.23,19,1.61,25.82-9,43.2l-.42,1c1.06-4.56-6.37-4.78-12.79-3.22-4.75,1.15-1.68,12.21,4.4,19.83-13.59-20.47-33.95-51.72-16.34-67.39,2.59-2.31,4.22-5.58,4.69-13.92.27-5,8.7-6.2,13.15-4A42.35,42.35,0,0,1,246.21,2C259.83-4,273.67,5.28,288.47,7.09c8.2,1,14.43,4.31,14.76,14.78.21,7,10.72,9.47,17.6,10.71,4.36.77,9.27.3,12.75,3.06,4,3.19,4.08,8.81,4.06,14.21a19.75,19.75,0,0,0-11.17,3.06,19.44,19.44,0,0,1,11.28,4l.17.14C339.11,66.08,338.63,68,345.83,73.66Z" transform="translate(0 0)" fill="#b9571a"/>
  <path d="M390.93,378.54c24.43-7.59,50.58.62,75.15-6.39a50.86,50.86,0,0,0,15.79-7.41,99.62,99.62,0,0,0,11.49-10.23c7.39-7.31,15.42-15,26.52-14.9,14.62.11,25.84,11,35.59,20.56,1.38,1.36,3.5-.76,2.12-2.12-9-8.81-18.63-18.11-31.37-20.74a29,29,0,0,0-17.12,1.42,44.72,44.72,0,0,0-12.72,8.7c-3.93,3.6-7.55,7.52-11.52,11.06a47.93,47.93,0,0,1-14.14,8.92c-11.26,4.49-23.62,5-35.59,4.9-15-.17-30.43-1.19-45,3.34-1.84.57-1.06,3.47.8,2.89Z" transform="translate(0 0)" fill="#bf642d"/>
  <path d="M560.83,340l7.51,13.24L572,359.6c.65,1.14,1.31,2.27,1.94,3.42.39.7,1.23,2,.42,2.64a3.89,3.89,0,0,1-2.28.36c-1.32,0-2.65,0-4,0l-7.45-.08-15.39-.15a1.5,1.5,0,0,0,0,3c8.93.09,17.87.27,26.81.27a6.44,6.44,0,0,0,4.39-1.2,4.17,4.17,0,0,0,.79-4.81,46.19,46.19,0,0,0-3-5.57l-3.27-5.76-7.51-13.24a1.5,1.5,0,0,0-2.59,1.51Z" transform="translate(0 0)" fill="#bf642d"/>
  <path d="M660.1,372.39h-69a2.88,2.88,0,0,1,0-5.75H660.1a2.88,2.88,0,0,1,0,5.75h0Z" transform="translate(0 0)" fill="#f7ebe4"/>
  <path d="M660.1,418.72h-69a2.88,2.88,0,1,1,0-5.75H660.1a2.88,2.88,0,0,1,0,5.75h0Z" transform="translate(0 0)" fill="#f7ebe4"/>
  <path d="M727.86,395.56H591.07a2.88,2.88,0,0,1,0-5.75H727.86a2.88,2.88,0,1,1,0,5.75h0Z" transform="translate(0 0)" fill="#f7ebe4"/>
  <path d="M636.27,345.23c15.19-20.59,41.13-29.47,56.77-49.67a50.94,50.94,0,0,0,8.33-15.32,98.06,98.06,0,0,0,3.2-15.05c1.62-10.26,3.54-21.2,12.54-27.71C729,228.91,744.43,231,758,233a1.5,1.5,0,0,0,.46-3c-12.44-1.8-25.74-3.56-37.57,1.87a29,29,0,0,0-12.94,11.29,44.47,44.47,0,0,0-5.1,14.54c-1,5.22-1.63,10.53-2.73,15.74A48,48,0,0,1,694,289c-6.41,10.28-16.05,18-25.78,25C656,322.8,643,331.1,633.92,343.37c-1.14,1.55,1.2,3.42,2.35,1.86Z" transform="translate(0 0)" fill="#bf642d"/>
  <path d="M750.31,213.5l13.89,6.22,6.72,3c1.2.53,2.4,1.05,3.59,1.6.73.34,2.16.87,1.91,1.88-.18.69-1.1,1.25-1.63,1.64-1.07.79-2.15,1.55-3.23,2.32l-6,4.35-12.5,9a1.5,1.5,0,0,0,1.78,2.41c7.25-5.22,14.57-10.36,21.76-15.66a6.44,6.44,0,0,0,2.83-3.57,4.18,4.18,0,0,0-2.21-4.34,45.4,45.4,0,0,0-5.74-2.69L765.39,217l-13.89-6.21a1.5,1.5,0,0,0-1.19,2.75Z" transform="translate(0 0)" fill="#bf642d"/>
  <path d="M875.1,229.39h-69a2.88,2.88,0,1,1,0-5.75H875.1a2.88,2.88,0,0,1,0,5.75h0Z" transform="translate(0 0)" fill="#d19068"/>
  <path d="M689.27,436c15.19,20.59,41.13,29.47,56.77,49.67A50.94,50.94,0,0,1,754.37,501a98.06,98.06,0,0,1,3.2,15.05c1.62,10.27,3.54,21.2,12.54,27.71,11.84,8.57,27.32,6.47,40.85,4.52a1.5,1.5,0,0,1,.46,3c-12.44,1.8-25.74,3.56-37.57-1.87a29,29,0,0,1-12.94-11.29,44.47,44.47,0,0,1-5.1-14.54c-1-5.22-1.63-10.53-2.73-15.74A48,48,0,0,0,747,492.27c-6.41-10.28-16.05-18-25.78-25C709,458.47,696,450.18,686.92,437.9c-1.14-1.55,1.2-3.42,2.35-1.86Z" transform="translate(0 0)" fill="#bf642d"/>
  <path d="M803.31,567.77l13.89-6.22,6.72-3c1.2-.53,2.4-1,3.59-1.6.73-.34,2.16-.86,1.91-1.88-.18-.69-1.1-1.25-1.63-1.64-1.07-.79-2.15-1.55-3.23-2.32l-6-4.35-12.5-9a1.5,1.5,0,0,1,1.78-2.42c7.25,5.22,14.57,10.36,21.76,15.66a6.44,6.44,0,0,1,2.83,3.57,4.18,4.18,0,0,1-2.21,4.34,45.4,45.4,0,0,1-5.74,2.69l-6.05,2.71-13.89,6.22a1.5,1.5,0,0,1-1.19-2.76Z" transform="translate(0 0)" fill="#bf642d"/>
  <path d="M928.1,560.39h-69a2.88,2.88,0,1,1,0-5.75H928.1a2.88,2.88,0,1,1,0,5.75Z" transform="translate(0 0)" fill="#d19068"/>
  <path d="M141.17,448.59a20,20,0,0,1-26.91,8.86,21.32,21.32,0,0,1-2.74-1.67L39.63,490l-4.82-20.15L108,426.69a20,20,0,0,1,33.14,21.9Z" transform="translate(0 0)" fill="#eed5c6"/>
  <path d="M113.46,344.67,62.87,448l21.38-9.69,14.88-6.75,7.46,28.34s-4.94,4.8-12.73,11.11C82.69,480.11,65.68,492.3,49,497.94c-13,4.42-25.85,4.83-35.47-3.41-18.26-15.64-.41-77.75,16.84-125,11.55-31.67,22.82-56.68,22.82-56.68,0-33.4,64.82-81.43,76.85-88h0c6.87-3.74,8.77,1.71,8.77,1.71l-37.7,55.19,11.27,45.7,3.19,12.91Z" transform="translate(0 0)" fill="#d19068"/>
</svg>
