<?xml version="1.0" encoding="UTF-8"?>
<!-- Generator: Adobe Illustrator 22.1.0, SVG Export Plug-In . SVG Version: 6.00 Build 0)  -->
<svg version="1.1" id="Layer_1" xmlns="http://www.w3.org/2000/svg" xmlns:xlink="http://www.w3.org/1999/xlink" x="0px" y="0px" viewBox="0 0 32 32" style="enable-background:new 0 0 32 32;" xml:space="preserve">
<title>redis</title>
<path d="M32,19.1c0,0.3-0.4,0.6-1.2,1.1c-1.7,0.9-10.6,4.5-12.4,5.5c-1.9,1-2.9,1-4.4,0.3C12.4,25.3,3,21.5,1.3,20.6  C0.4,20.2,0,19.9,0,19.6v3.2c0,0.3,0.4,0.7,1.3,1.1c1.7,0.8,11.1,4.6,12.6,5.3c1.5,0.7,2.5,0.7,4.4-0.3c1.9-1,10.7-4.6,12.4-5.5  c0.9-0.4,1.3-0.8,1.3-1.1C32,22,32,19.1,32,19.1C32,19.1,32,19.1,32,19.1L32,19.1z M32,13.8c0,0.3-0.4,0.6-1.2,1.1  c-1.7,0.9-10.6,4.5-12.4,5.5c-1.9,1-2.9,1-4.4,0.3C12.4,20,3,16.2,1.3,15.4C0.4,15,0,14.6,0,14.3v3.2c0,0.3,0.4,0.7,1.3,1.1  c1.7,0.8,11.1,4.6,12.6,5.3c1.5,0.7,2.5,0.7,4.4-0.3c1.9-1,10.7-4.6,12.4-5.5c0.9-0.5,1.3-0.8,1.3-1.1C32,16.7,32,13.8,32,13.8  C32,13.8,32,13.8,32,13.8z M32,8.4c0-0.3-0.4-0.6-1.3-0.9c-1.7-0.6-10.5-4.1-12.1-4.7c-1.7-0.6-2.4-0.6-4.3,0.1  c-2,0.7-11.3,4.4-13,5C0.4,8.2,0,8.5,0,8.8v3.2c0,0.3,0.4,0.7,1.3,1.1c1.7,0.8,11.1,4.6,12.6,5.3c1.5,0.7,2.5,0.7,4.4-0.3  c1.9-1,10.7-4.6,12.4-5.5c0.9-0.5,1.2-0.8,1.2-1.1C32,11.3,32,8.4,32,8.4L32,8.4z M11.5,11.4l7.4-1.1l-2.2,3.3L11.5,11.4z M27.9,8.5  L23,10.4l-4.4-1.7l4.9-1.9L27.9,8.5z M15,5.3L14.3,4l2.2,0.9l2.1-0.7L18,5.5l2.2,0.8l-2.8,0.3l-0.6,1.5l-1-1.7l-3.2-0.3L15,5.3z   M9.5,7.2c2.2,0,4,0.7,4,1.5c0,0.8-1.8,1.5-4,1.5s-4-0.7-4-1.5C5.5,7.9,7.3,7.2,9.5,7.2z"/>
</svg>