<svg id="SvgjsSvg1001" xmlns="http://www.w3.org/2000/svg" xmlns:xlink="http://www.w3.org/1999/xlink" viewBox="0 0 288 201.46"><defs><clipPath id="clip-path"><polygon points="-2.41 43.17 -2.52 43.17 -2.41 43.07 -2.41 43.17" fill="none" clip-path="url(#clip-path-2)"/></clipPath><linearGradient id="linear-gradient" x1="6460.94" y1="-5143.77" x2="6564.68" y2="-4580.82" gradientTransform="matrix(0.1, 0, 0, -0.1, -415.43, -255.85)" gradientUnits="userSpaceOnUse"><stop offset="0" stop-color="#fff"/><stop offset="0.34" stop-color="#d47e66"/><stop offset="0.67" stop-color="#723220"/><stop offset="0.89" stop-color="#1f0e09"/><stop offset="1"/></linearGradient><clipPath id="clip-path-2"><polygon points="-2.21 43.38 -2.1 43.38 -2.21 43.48 -2.21 43.38" fill="none"/></clipPath><mask id="mask" x="-2.51" y="-0.21" width="280.26" height="201.67" maskUnits="userSpaceOnUse"><g transform="translate(0 -43.27)"><g id="h"><g clip-path="url(#clip-path)"><path d="M241.53,236.61a.5.5,0,0,0-.6-.08.3.3,0,0,0-.14.41.22.22,0,0,0,.05.08,65.13,65.13,0,0,0,8.47,7.71h1.28A63.48,63.48,0,0,1,241.53,236.61Zm36.16-.63a.47.47,0,0,0-.57-.16c-.13.06-13.56,5.7-20.22,6.88a64.27,64.27,0,0,1,.79-6.92,96.36,96.36,0,0,0,11-3.53.33.33,0,0,0,.2-.47.46.46,0,0,0-.57-.17,91.23,91.23,0,0,1-10.46,3.4c.37-2,.8-4,1.27-5.87l8.45-3a.32.32,0,0,0,.22-.46.45.45,0,0,0-.55-.19l-7.91,2.83a92.83,92.83,0,0,1,3.78-11.47.34.34,0,0,0-.26-.45.45.45,0,0,0-.54.21,85.56,85.56,0,0,0-3,8.73,61.77,61.77,0,0,1-3.72-5.18A.48.48,0,0,0,255,220a.33.33,0,0,0-.17.48,60.52,60.52,0,0,0,4.21,5.77c-.23.81-.46,1.64-.68,2.51a.42.42,0,0,0,0,.16c-.19.76-.38,1.54-.56,2.34a27.78,27.78,0,0,1-5.09-5.27.47.47,0,0,0-.58-.12.32.32,0,0,0-.19.41.25.25,0,0,0,0,.07,27.54,27.54,0,0,0,5.64,5.73c-.23,1.08-.44,2.19-.64,3.32a.32.32,0,0,0,0,.14c-.11.62-.2,1.25-.29,1.88a47.22,47.22,0,0,1-11.68-13.51.47.47,0,0,0-.56-.18.33.33,0,0,0-.22.46,48.26,48.26,0,0,0,12.34,14.11c-.19,1.42-.32,2.85-.41,4.29-3-1.39-7.6-5.49-7.65-5.53a.5.5,0,0,0-.6,0,.32.32,0,0,0-.09.43l.06.07c.21.19,5.06,4.54,8.25,5.83,0,.46,0,.92,0,1.38h.85l0-1.31c6.7-1.11,20.07-6.73,20.65-7A.33.33,0,0,0,277.69,236Z" fill="url(#linear-gradient)"/></g></g></g></mask><linearGradient id="linear-gradient-2" x1="6460.94" y1="-5143.77" x2="6564.68" y2="-4580.82" gradientTransform="matrix(0.1, 0, 0, -0.1, -415.43, -255.85)" gradientUnits="userSpaceOnUse"><stop offset="0" stop-color="#fff"/><stop offset="1" stop-color="#fff"/></linearGradient><linearGradient id="linear-gradient-3" x1="788.88" y1="-4434.13" x2="1.84" y2="-5219.38" gradientTransform="translate(125.78 -255.85) rotate(180) scale(0.1)" gradientUnits="userSpaceOnUse"><stop offset="0" stop-color="#fff"/><stop offset="1" stop-color="#e4aea0"/></linearGradient><linearGradient id="linear-gradient-4" x1="4788.43" y1="-3752.04" x2="4788.43" y2="-3161.17" gradientTransform="matrix(0.1, 0, 0, -0.1, -446.17, -255.85)" gradientUnits="userSpaceOnUse"><stop offset="0" stop-color="#934029"/><stop offset="1" stop-color="#fff"/></linearGradient><linearGradient id="linear-gradient-5" x1="5988.24" y1="-3662.66" x2="5988.24" y2="-3428.22" xlink:href="#linear-gradient-4"/><linearGradient id="linear-gradient-6" x1="6241.98" y1="-3479.26" x2="6241.98" y2="-3610.04" gradientTransform="matrix(0.1, 0, 0, -0.1, -446.17, -255.85)" gradientUnits="userSpaceOnUse"><stop offset="0" stop-color="#2f140d"/><stop offset="1" stop-color="#3e1b11"/></linearGradient><linearGradient id="linear-gradient-7" x1="6308.41" y1="-3309.42" x2="6109.08" y2="-3421.43" gradientTransform="matrix(0.1, 0, 0, -0.1, -446.17, -255.85)" gradientUnits="userSpaceOnUse"><stop offset="0" stop-color="#70311f"/><stop offset="0.46" stop-color="#813825"/><stop offset="1" stop-color="#95412a"/></linearGradient><linearGradient id="linear-gradient-8" x1="6174.91" y1="-3342.14" x2="6168.6" y2="-3510.62" gradientTransform="matrix(0.1, 0, 0, -0.1, -446.17, -255.85)" gradientUnits="userSpaceOnUse"><stop offset="0" stop-color="#d78771"/><stop offset="0.48" stop-color="#cf6e54"/><stop offset="1" stop-color="#c8593a"/></linearGradient><linearGradient id="linear-gradient-9" x1="8281.85" y1="-3473.32" x2="8281.85" y2="-3295.97" gradientTransform="matrix(0.1, 0, 0, -0.1, -652.32, -255.85)" gradientUnits="userSpaceOnUse"><stop offset="0" stop-color="#fff"/><stop offset="1" stop-color="#d5816b"/></linearGradient><linearGradient id="linear-gradient-10" x1="6375.53" y1="-3402.9" x2="6371.84" y2="-3478.71" xlink:href="#linear-gradient-8"/><linearGradient id="linear-gradient-11" x1="18282.66" y1="-3412.33" x2="18282.66" y2="-3507.89" gradientTransform="matrix(0.1, 0, 0, -0.1, -1677.03, -255.85)" gradientUnits="userSpaceOnUse"><stop offset="0" stop-color="#fff"/><stop offset="1" stop-color="#da8f7a"/></linearGradient><linearGradient id="linear-gradient-12" x1="6141.53" y1="-3291.92" x2="5998.15" y2="-3400.93" xlink:href="#linear-gradient-7"/><linearGradient id="linear-gradient-13" x1="6264.19" y1="-3228.46" x2="6232.88" y2="-3271.73" xlink:href="#linear-gradient-8"/><linearGradient id="linear-gradient-14" x1="6235.84" y1="-3213.7" x2="6206.31" y2="-3254.51" xlink:href="#linear-gradient-8"/></defs><g id="SvgjsG1008"><path d="M277.74,244.73H242.5c-8.75-5.65-9.34-13.47-5-14,5.33-.6-.46-5.42,1.25-8.76,1.89-3.7,4-3.6,10.5-3.6s7-9.64,15.26-8.15c10.22,1.84,4.88,9.12,7.38,12.91,3.49,5.28,13.59-.51,15.9,7C289.81,236.8,277.74,244.73,277.74,244.73Z" transform="translate(0 -43.27)" fill="#c75739"/><g mask="url(#mask)"><path d="M241.53,236.61a.5.5,0,0,0-.6-.08.3.3,0,0,0-.14.41.22.22,0,0,0,.05.08,65.13,65.13,0,0,0,8.47,7.71h1.28A63.48,63.48,0,0,1,241.53,236.61Zm36.16-.63a.47.47,0,0,0-.57-.16c-.13.06-13.56,5.7-20.22,6.88a64.27,64.27,0,0,1,.79-6.92,96.36,96.36,0,0,0,11-3.53.33.33,0,0,0,.2-.47.46.46,0,0,0-.57-.17,91.23,91.23,0,0,1-10.46,3.4c.37-2,.8-4,1.27-5.87l8.45-3a.32.32,0,0,0,.22-.46.45.45,0,0,0-.55-.19l-7.91,2.83a92.83,92.83,0,0,1,3.78-11.47.34.34,0,0,0-.26-.45.45.45,0,0,0-.54.21,85.56,85.56,0,0,0-3,8.73,61.77,61.77,0,0,1-3.72-5.18A.48.48,0,0,0,255,220a.33.33,0,0,0-.17.48,60.52,60.52,0,0,0,4.21,5.77c-.23.81-.46,1.64-.68,2.51a.42.42,0,0,0,0,.16c-.19.76-.38,1.54-.56,2.34a27.78,27.78,0,0,1-5.09-5.27.47.47,0,0,0-.58-.12.32.32,0,0,0-.19.41.25.25,0,0,0,0,.07,27.54,27.54,0,0,0,5.64,5.73c-.23,1.08-.44,2.19-.64,3.32a.32.32,0,0,0,0,.14c-.11.62-.2,1.25-.29,1.88a47.22,47.22,0,0,1-11.68-13.51.47.47,0,0,0-.56-.18.33.33,0,0,0-.22.46,48.26,48.26,0,0,0,12.34,14.11c-.19,1.42-.32,2.85-.41,4.29-3-1.39-7.6-5.49-7.65-5.53a.5.5,0,0,0-.6,0,.32.32,0,0,0-.09.43l.06.07c.21.19,5.06,4.54,8.25,5.83,0,.46,0,.92,0,1.38h.85l0-1.31c6.7-1.11,20.07-6.73,20.65-7A.33.33,0,0,0,277.69,236Z" transform="translate(0 -43.27)" fill="url(#linear-gradient-2)"/></g><path d="M25.4,244.73a15,15,0,0,0-4.63-5.52c-7.42-5.78-19-4.21-20.61,1.8a5.12,5.12,0,0,0,.49,3.72ZM21.28,220.9c4.84-4.69,4.62-10.68,1.55-11.09C18.23,209.19,18.12,217,21.28,220.9ZM27.45,43.27" transform="translate(0 -43.27)" fill="#c75739"/><path d="M38.34,230c6.4.21,10.22,7.85,7.21,14.15a3.7,3.7,0,0,1-.31.55H21.4c-4.47-3.5-11.73-12-7.35-14.7,4.56-2.84,13,1.33,17.57,6.06C32.59,233,34.33,229.9,38.34,230Z" transform="translate(0 -43.27)" fill="#d78771"/><path d="M54.7,230.1c-4.3-1.45-12.2-.76-12.73-2.74s3.72-5.59,2.54-10.36-4.17-6-4.17-6a35.63,35.63,0,0,0,12.91-.93c6.08-1.82,9.79-3.7,12.09,1.49s3.17,7.75,6.69,9.8,7.17,1.71,4.1-4A28.75,28.75,0,0,0,68,208.24s6.65-1.86,16.49.06S98.25,213,97.52,218.78s-6.72,15-2.09,17,7.57-6.46,8-11.21a25.57,25.57,0,0,0-.52-8.11s9.35,1.26,11.65,12.26c1.69,8-1.41,13.11-7.48,16H45.44a16.48,16.48,0,0,1-2.1-5.45s7.23,5.06,14.54,3.94,12.48-5.34,3.37-4.81S50,242.47,44.83,238s-4.48-7.13-4.48-7.13A69.82,69.82,0,0,0,51,233.13C56.32,233.73,59,231.56,54.7,230.1Z" transform="translate(0 -43.27)" fill="#723220"/><path d="M110.18,232.53c2.73,1.25-2.32,6.46-4.59,5.08S107.15,231.14,110.18,232.53ZM93.1,239.8c-2,2.78-7.47-1.28-5.58-2.87C89.75,235,95.1,237,93.1,239.8Zm-8.48-24.69c1.31.2,4.25.8,4,4.22s-4.85,2.57-5.51-.32A3.27,3.27,0,0,1,84.62,215.11Zm-2.28,9.27c4-.22,5.2,6.13.86,6.26S78.51,224.58,82.34,224.38ZM50.47,225c-3.22-.17-3.86-1.75-2.16-2.84,1.24-.79,1.66-2,4.57-.43S53.69,225.14,50.47,225Zm15.21,5.79c4.15-.12,3.88,1.5,1.57,2.75s-5.34-.91-4.9-1.81S65.68,230.76,65.68,230.76ZM57.1,212.7H57c1.12-.49,3.91-1.5,5.12,3s-2.59,4.46-4.61,2.21S55,213.76,57.1,212.7Z" transform="translate(0 -43.27)" fill="#fbf2ef"/><path d="M55.39,219.07c2,1.28,4.24,2.87,6.62,4.68,1.19.91,2.41,1.88,3.64,2.89s2.48,2.06,3.78,3.11c2.59,2.09,5.32,4.2,8.08,6.17s5.55,3.82,8.23,5.44c2.12,1.28,4.17,2.41,6.05,3.37h3.76l-1.35-.62c-2.25-1-4.81-2.34-7.5-3.87s-5.53-3.28-8.33-5.17-5.6-3.9-8.27-5.91c-1.33-1-2.62-2-3.9-3s-2.54-1.91-3.78-2.79c-2.46-1.75-4.8-3.27-6.84-4.5s-3.78-2.15-5-2.76-2-.9-2-.9.72.31,1.92,1S53.42,217.78,55.39,219.07Z" transform="translate(0 -43.27)" fill="url(#linear-gradient-3)"/><path d="M134.09,104.36c0-27.2-26.65-49.26-59.51-49.26S15.06,77.16,15.06,104.36s26.65,49.25,59.51,49.25S134.09,131.56,134.09,104.36Z" transform="translate(0 -43.27)" fill="#793522"/><path d="M126.67,104.36c0-23.82-23.32-43.12-52.09-43.12s-52.11,19.3-52.11,43.12,23.33,43.12,52.11,43.12S126.67,128.18,126.67,104.36Z" transform="translate(0 -43.27)" fill="#c55637"/><path d="M75,141.47h-.77a.36.36,0,0,0-.39.31v3.64a.36.36,0,0,0,.39.32H75a.36.36,0,0,0,.38-.32v-3.64A.35.35,0,0,0,75,141.47ZM75,63h-.77a.36.36,0,0,0-.39.32v3.64a.36.36,0,0,0,.39.32H75a.36.36,0,0,0,.38-.32V63.29A.35.35,0,0,0,75,63Zm12.68,79.29a.41.41,0,0,0-.47-.23l-.74.17a.32.32,0,0,0-.28.38l.53,1.61a.39.39,0,0,0,.46.23l.75-.17a.32.32,0,0,0,.27-.38Zm10.2-5.81a.43.43,0,0,0-.51-.12l-.67.32a.29.29,0,0,0-.17.37l0,.06,2.21,3.16a.42.42,0,0,0,.52.12l.66-.32a.28.28,0,0,0,.17-.37.09.09,0,0,0,0-.06Zm-47.42-68a.44.44,0,0,0-.52-.12l-.67.32a.29.29,0,0,0-.17.37l0,.07,2.21,3.16a.43.43,0,0,0,.52.11l.67-.32a.29.29,0,0,0,.17-.37l0-.06Zm12-4A.39.39,0,0,0,62,64.3l-.74.16c-.21.05-.33.22-.27.39l.51,1.61a.39.39,0,0,0,.47.22l.74-.16a.31.31,0,0,0,.27-.39ZM35.8,85.1,32,83.27a.43.43,0,0,0-.52.12l-.39.55a.29.29,0,0,0,.08.4l.06,0L35,86.2a.43.43,0,0,0,.53-.12l.38-.55a.29.29,0,0,0-.08-.4A.09.09,0,0,0,35.8,85.1ZM40,74.87a.42.42,0,0,0-.54,0l-.54.45a.28.28,0,0,0-.06.39l.06.05,1.42,1.18a.42.42,0,0,0,.54,0l.54-.45a.28.28,0,0,0,.06-.39l-.06,0Zm68.76,56.9a.45.45,0,0,0-.54,0l-.54.45a.29.29,0,0,0-.06.4l.06,0,1.42,1.18a.45.45,0,0,0,.54,0l.54-.45a.28.28,0,0,0,.06-.39l-.06-.06Zm9.15-7.43-3.82-1.82a.42.42,0,0,0-.52.12l-.39.55a.3.3,0,0,0,.08.4l.06,0,3.83,1.82a.42.42,0,0,0,.51-.11l.39-.55a.29.29,0,0,0-.09-.41l0,0Zm4.77-10-1.94-.43a.41.41,0,0,0-.47.23l-.2.61a.32.32,0,0,0,.27.39l2,.43a.4.4,0,0,0,.47-.22l.19-.62a.32.32,0,0,0-.27-.39Zm-96.26-20,1.94.43a.4.4,0,0,0,.47-.22l.2-.62a.32.32,0,0,0-.27-.39l-1.94-.43a.4.4,0,0,0-.47.23l-.2.61A.31.31,0,0,0,26.44,94.34Zm97.76,9.38h-4.41a.37.37,0,0,0-.39.32v.64a.36.36,0,0,0,.39.31h4.41a.36.36,0,0,0,.38-.31V104A.36.36,0,0,0,124.2,103.72Zm-94.84,0H25a.38.38,0,0,0-.39.32v.64A.36.36,0,0,0,25,105h4.41a.36.36,0,0,0,.38-.31V104a.36.36,0,0,0-.38-.32Zm-.51,10.45a.39.39,0,0,0-.46-.23l-1.95.43a.32.32,0,0,0-.27.39l.2.62a.4.4,0,0,0,.47.22l1.94-.43c.21,0,.33-.22.27-.39Zm6.71,8.47a.43.43,0,0,0-.53-.12l-3.82,1.82a.3.3,0,0,0-.17.38l0,.06.38.55a.44.44,0,0,0,.53.11l3.81-1.82a.29.29,0,0,0,.18-.37.21.21,0,0,0,0-.06ZM120.3,94.55a.38.38,0,0,0,.46.22l1.95-.43A.32.32,0,0,0,123,94l-.2-.61a.4.4,0,0,0-.47-.22l-1.94.43a.31.31,0,0,0-.27.39Zm-2.61-11.16a.43.43,0,0,0-.52-.11l-3.82,1.82a.29.29,0,0,0-.17.37l0,.06.39.55a.42.42,0,0,0,.52.12l3.82-1.83a.28.28,0,0,0,.17-.37l0-.06ZM108.24,77a.45.45,0,0,0,.54,0l1.43-1.18a.3.3,0,0,0,.05-.4l-.05-.05-.55-.45a.45.45,0,0,0-.54,0l-1.42,1.18a.27.27,0,0,0,0,.39l0,.06ZM96.66,72.07l.66.31a.43.43,0,0,0,.52-.11l2.2-3.16a.29.29,0,0,0-.08-.41l-.06,0-.65-.31a.44.44,0,0,0-.53.11l-2.2,3.16a.28.28,0,0,0,.08.4A.09.09,0,0,0,96.66,72.07ZM40.9,131.77a.45.45,0,0,0-.54,0L38.94,133a.28.28,0,0,0-.06.39l.06.06.54.45a.45.45,0,0,0,.54,0l1.43-1.18a.28.28,0,0,0,0-.4l0-.05Zm11.59,4.88-.66-.32a.43.43,0,0,0-.53.12l-2.2,3.16a.29.29,0,0,0,.07.4l.07,0,.66.32a.42.42,0,0,0,.52-.12l2.21-3.16a.28.28,0,0,0-.09-.4ZM87.88,64.46l-.74-.16a.39.39,0,0,0-.47.22l-.52,1.61a.31.31,0,0,0,.27.39l.74.16a.39.39,0,0,0,.47-.22l.52-1.61C88.21,64.68,88.09,64.51,87.88,64.46ZM62.72,142.2,62,142a.4.4,0,0,0-.47.22L61,143.87a.32.32,0,0,0,.27.39l.74.16a.39.39,0,0,0,.47-.22l.52-1.61A.32.32,0,0,0,62.72,142.2Z" transform="translate(0 -43.27)" fill="#793522"/><path d="M74.57,61.24c-28.77,0-52.1,19.3-52.1,43.12s23.33,43.12,52.1,43.12c-14.55,0-26.34-19.3-26.34-43.12S60,61.24,74.57,61.24Z" transform="translate(0 -43.27)" opacity="0.75" fill="url(#linear-gradient-4)" style="isolation:isolate"/><path d="M74.57,105.59H50a1.25,1.25,0,1,1,0-2.46h23.1V73.71a1.51,1.51,0,0,1,3,0v30.65A1.38,1.38,0,0,1,74.57,105.59Z" transform="translate(0 -43.27)" fill="#793522"/><path d="M82.37,104.36c0-3.57-3.49-6.45-7.79-6.45s-7.8,2.88-7.8,6.45,3.49,6.45,7.8,6.45S82.37,107.92,82.37,104.36Z" transform="translate(0 -43.27)" fill="#793522"/><path d="M79,104.36c0-2-2-3.68-4.43-3.68s-4.45,1.64-4.45,3.68,2,3.67,4.45,3.67S79,106.39,79,104.36Z" transform="translate(0 -43.27)" fill="#d78771"/><path d="M27.45,43.27" transform="translate(0 -43.27)" fill="#d78771"/><path d="M176.24,117.33v-11c0-1.57-1.55-2.85-3.45-2.85H132.28a3.2,3.2,0,0,0-3.44,2.85v11Z" transform="translate(0 -43.27)" fill="#4c2116"/><path d="M172.15,117.33v-11a3.2,3.2,0,0,0-3.44-2.85H128.2a3.2,3.2,0,0,0-3.44,2.85v11Z" transform="translate(0 -43.27)" fill="#4c2116"/><path d="M172.79,103.52h-4.08a3.2,3.2,0,0,1,3.44,2.85v11h4.09v-11C176.24,104.8,174.69,103.52,172.79,103.52Z" transform="translate(0 -43.27)" fill="#4c2116"/><path d="M172.79,103.52h-4.08a3.2,3.2,0,0,1,3.44,2.85v11h4.09v-11C176.24,104.8,174.69,103.52,172.79,103.52Z" transform="translate(0 -43.27)" opacity="0.75" fill="url(#linear-gradient-5)" style="isolation:isolate"/><path d="M82.41,117.34a2,2,0,0,0-1.81,2.18v123a2,2,0,0,0,1.81,2.19H212.8a2,2,0,0,0,1.81-2.19v-123a2,2,0,0,0-1.81-2.18" transform="translate(0 -43.27)" fill="#f4dfda"/><rect x="80.61" y="92.32" width="134" height="105.52" fill="#f5e1db"/><path d="M213.68,243.17l-.78.94.15.18.78-.94Zm-.26-1.55-1.8,2.18.15.18,1.79-2.18Zm.13.77L212.26,244l.15.18,1.29-1.57Z" transform="translate(0 -43.27)" fill="#ebc4ba"/><ellipse cx="85.94" cy="79.58" rx="1.62" ry="1.97" fill="#d2785f"/><ellipse cx="91.07" cy="79.58" rx="1.62" ry="1.97" fill="#c85a3c"/><ellipse cx="96.21" cy="79.58" rx="1.62" ry="1.97" fill="#c85b3d"/><path d="M86.4,132.86a2.9,2.9,0,0,1,0-5.69h77.93a2.9,2.9,0,0,1,0,5.69Zm85.88,0a2.9,2.9,0,0,1,0-5.69h36.07a2.9,2.9,0,0,1,0,5.69Z" transform="translate(0 -43.27)" fill="#fff" stroke="#f0d2ca" stroke-miterlimit="1.03" stroke-width="0.12"/><g style="isolation:isolate"><text transform="translate(87.57 87.8) scale(0.82 1)" font-size="3.72" fill="#58595b" font-family="MyriadPro-Regular, Myriad Pro" letter-spacing="0.02em" style="isolation:isolate">w<tspan x="2.82" y="0" letter-spacing="0.01em">w</tspan></text><text transform="translate(92.13 87.8) scale(0.82 1)" font-size="3.72" fill="#58595b" font-family="MyriadPro-Regular, Myriad Pro" letter-spacing="-0.04em" style="isolation:isolate">w</text><text transform="translate(94.25 87.8) scale(0.82 1)" font-size="3.72" fill="#58595b" font-family="MyriadPro-Regular, Myriad Pro" style="isolation:isolate">.</text><text transform="translate(94.88 87.8) scale(0.82 1)" font-size="3.72" fill="#58595b" font-family="MyriadPro-Regular, Myriad Pro" letter-spacing="-0.01em" style="isolation:isolate">t</text><text transform="translate(95.87 87.8) scale(0.82 1)" font-size="3.72" fill="#58595b" font-family="MyriadPro-Regular, Myriad Pro" style="isolation:isolate">ec</text><text transform="translate(98.77 87.8) scale(0.82 1)" font-size="3.72" fill="#58595b" font-family="MyriadPro-Regular, Myriad Pro" letter-spacing="-0.01em" style="isolation:isolate">h</text><text transform="translate(100.42 87.8) scale(0.82 1)" font-size="3.72" fill="#58595b" font-family="MyriadPro-Regular, Myriad Pro" letter-spacing="-0.01em" style="isolation:isolate">y</text><text transform="translate(101.82 87.8) scale(0.82 1)" font-size="3.72" fill="#58595b" font-family="MyriadPro-Regular, Myriad Pro" style="isolation:isolate">oo</text><text transform="translate(105.17 87.8) scale(0.82 1)" font-size="3.72" fill="#58595b" font-family="MyriadPro-Regular, Myriad Pro" letter-spacing="-0.02em" style="isolation:isolate">b</text><text transform="translate(106.83 87.8) scale(0.82 1)" font-size="3.72" fill="#58595b" font-family="MyriadPro-Regular, Myriad Pro" style="isolation:isolate">.</text><text transform="translate(107.46 87.8) scale(0.82 1)" font-size="3.72" fill="#58595b" font-family="MyriadPro-Regular, Myriad Pro" letter-spacing="-0.01em" style="isolation:isolate">c</text><text transform="translate(108.81 87.8) scale(0.82 1)" font-size="3.72" fill="#58595b" font-family="MyriadPro-Regular, Myriad Pro" style="isolation:isolate">om</text></g><path d="M208.35,127.17h-2.64a9.19,9.19,0,0,0,0,5.68h2.64a2.89,2.89,0,0,0,0-5.68Z" transform="translate(0 -43.27)" fill="#eecbc1" stroke="#f0d2ca" stroke-miterlimit="1.03" stroke-width="0.12"/><ellipse cx="207.2" cy="85.96" rx="1.06" ry="1.29" fill="none" stroke="#d98e7a" stroke-miterlimit="1.03" stroke-width="0.12"/><line x1="208.02" y1="86.95" x2="209.09" y2="88.25" fill="none" stroke="#d98e7a" stroke-linecap="round" stroke-miterlimit="1.03" stroke-width="0.15"/><rect x="93.73" y="170.61" width="25.12" height="2.54" fill="#d98e7a"/><rect x="89.55" y="175.68" width="33.5" height="2.54" fill="#d47d65"/><rect x="97.92" y="180.76" width="16.75" height="2.54" fill="#ebc4ba"/><rect x="93.73" y="185.84" width="25.12" height="2.54" fill="#ebc4ba"/><rect x="89.55" y="190.91" width="33.5" height="2.54" fill="#ebc4ba"/><rect x="135.05" y="170.61" width="25.12" height="2.54" fill="#d98e7a"/><rect x="130.86" y="175.68" width="33.5" height="2.54" fill="#e5b1a3"/><rect x="139.23" y="180.76" width="16.75" height="2.54" fill="#ebc4ba"/><rect x="135.05" y="185.84" width="25.12" height="2.54" fill="#ebc4ba"/><rect x="130.86" y="190.91" width="33.5" height="2.54" fill="#ebc4ba"/><rect x="176.36" y="170.61" width="25.12" height="2.54" fill="#d98e7a"/><rect x="172.17" y="175.68" width="33.5" height="2.54" fill="#e7b6a8"/><rect x="180.55" y="180.76" width="16.75" height="2.54" fill="#ebc4ba"/><rect x="176.36" y="185.84" width="25.12" height="2.54" fill="#ebc4ba"/><rect x="172.17" y="190.91" width="33.5" height="2.54" fill="#ebc4ba"/><rect x="87.45" y="97.74" width="37.69" height="32.53" fill="#d88973"/><rect x="128.76" y="97.74" width="37.69" height="32.53" fill="#da8f7b"/><rect x="170.08" y="97.74" width="37.69" height="32.53" fill="#ebc3b8"/><rect x="87.45" y="134.99" width="37.69" height="32.53" fill="#d47d65"/><rect x="128.76" y="134.99" width="37.69" height="32.53" fill="#e5b1a3"/><rect x="170.08" y="134.99" width="37.69" height="32.53" fill="#e7b6a8"/><path d="M203.75,244.73h37.57c4.71-3.55,9.83-8.25,9.52-17.93-.24-7.65-4.83-7.83-8.88-8-2.27-.09-4.62-.18-5.1-2-.89-3.56,1.9-6.39,4.86-9.39,3.35-3.4,6.81-6.9,5.29-11.83-.95-3.05-3.86-4-7.23-5.12a23.93,23.93,0,0,1-5.36-2.25c-2.18-1.38-2.31-4.58-2.44-8-.21-5.38-.68-8.92-5.11-8.92a10,10,0,0,0-1.44.11c-3.86.53-5.21,4.07-6.63,7.82a21.25,21.25,0,0,1-2.67,5.47c-2,2.51-4.54,3.06-7,3.58-3.31.7-6.43,1.36-8.24,7-1.67,5.14,2.15,8.12,5.84,11,3.12,2.44,6.08,4.75,4.48,8-1.12,2.29-3.64,3.16-6.08,4-3.78,1.3-7.68,2.65-8.16,9.16C196.24,237.19,200.12,242,203.75,244.73Z" transform="translate(0 -43.27)" fill="#fff"/><path d="M203.75,244.73c-3.63-2.75-7.51-7.54-6.79-17.35a12.33,12.33,0,0,1,.66-3.29,90.4,90.4,0,0,0,26,8.59,80.71,80.71,0,0,1-.12,12H225a59.38,59.38,0,0,0,.27-6.74c3-.72,16.67-4.26,25.49-12,0,.25,0,.5,0,.77.31,9.68-4.81,14.38-9.52,17.93h2.26c4.44-3.55,9.1-8.61,8.81-18-.28-8.83-6.34-9.06-10.36-9.22-2.38-.09-3.45-.22-3.65-1-.75-3,1.7-5.45,4.54-8.32,3.42-3.47,7.3-7.4,5.59-12.95-1.14-3.69-4.7-4.86-8.15-6a23,23,0,0,1-5-2.08c-1.6-1-1.72-4.06-1.84-7-.18-4.76-.4-10.16-6.65-10.16a11.9,11.9,0,0,0-1.69.12c-4.8.67-6.35,4.76-7.85,8.71a20.57,20.57,0,0,1-2.49,5.15c-1.64,2.1-3.82,2.56-6.12,3-3.42.72-7.3,1.55-9.34,7.85-1.91,5.88,2.62,9.42,6.26,12.26,3.3,2.58,5.26,4.27,4.12,6.59-.88,1.8-2.91,2.5-5.25,3.31-3.81,1.32-8.56,3-9.1,10.26-.68,9.32,2.62,14.37,6.12,17.43Zm38-37.35c-3,3-5.75,5.83-4.85,9.39.47,1.87,2.82,2,5.09,2,3.57.13,7.55.29,8.62,5.52-8.06,7.62-21.61,11.4-25.29,12.31-.13-6.18-.79-14.5-2-25.26,10.5-3.58,20.71-11.25,24.07-13.92.23,3.95-2.75,7-5.65,9.91ZM227.4,171.31c3.93.28,4.38,3.73,4.59,8.89.13,3.4.26,6.6,2.44,8a23.93,23.93,0,0,0,5.36,2.25c3.37,1.11,6.28,2.07,7.23,5.12,0,.12,0,.24.09.35-1.91,1.55-12.88,10.25-24,14.16l-.06-.54c-2-17.78,3.16-34.76,4.31-38.21Zm-18.29,17c2.49-.53,5.06-1.08,7-3.59a21.2,21.2,0,0,0,2.68-5.46c1.42-3.75,2.76-7.29,6.62-7.83l.35,0a102.27,102.27,0,0,0-4.71,30.13,72.75,72.75,0,0,1-18.79-9.34c1.83-2.8,4.27-3.33,6.83-3.87Zm-4,29.95c2.44-.85,5-1.72,6.09-4,1.6-3.26-1.36-5.56-4.49-8-3.69-2.88-7.5-5.85-5.84-11a15.8,15.8,0,0,1,.74-1.87,74.47,74.47,0,0,0,19.48,9.5c0,2.24.19,4.51.45,6.8.78,6.74,1.6,14.66,2,21.72a88.18,88.18,0,0,1-25.35-8.5c1.54-2.76,4.27-3.72,6.93-4.64Z" transform="translate(0 -43.27)" fill="#723220"/><path d="M226,134.19s-6.14.54-6.59.56-1.31,0-.85,1.28.59,1.66.59,1.66,6.49-2,7.16-2.28S227.29,134.52,226,134.19Z" transform="translate(0 -43.27)" fill="#2c130c"/><path d="M190.75,104.53s19.7-.16,23.65-.06,5,6.35-.07,8.19-12.06,4.3-17.24,4.43-9.18-.81-12.34-3.84S185.45,104.57,190.75,104.53Z" transform="translate(0 -43.27)" fill="#e5b2a4"/><path d="M218.3,106.89c.5,4.06.16,4.11.6,9s1.77,19.12,1.77,19.12a1.28,1.28,0,0,1-.84.43c-.76,0-.92-.3-.92-.3a24.21,24.21,0,0,0-1.91-5.66c-1.22-2.19-7.24-16.12-8.34-18.91s-.74-5.16,3.19-5.93S218.08,105.1,218.3,106.89Z" transform="translate(0 -43.27)" fill="#e5b2a4"/><path d="M213.7,134.19s-6.14.54-6.59.56-1.31,0-.85,1.28.59,1.66.59,1.66,6.49-2,7.16-2.28S215,134.52,213.7,134.19Z" transform="translate(0 -43.27)" fill="#2c130c"/><path d="M184.24,104.53s13.95-.16,17.9-.06,3.38,5.06,0,8.67c-2.6,2.77-6.37,4-11.56,4-8.19,0-15-4.78-12.73-10.44C178.27,105.62,178.94,104.57,184.24,104.53Z" transform="translate(0 -43.27)" fill="#e5b2a4"/><path d="M206,106.89c.5,4.06.16,4.11.6,9s1.77,19.12,1.77,19.12a1.28,1.28,0,0,1-.84.43c-.75,0-.92-.3-.92-.3a24.21,24.21,0,0,0-1.91-5.66c-1.21-2.19-7.24-16.12-8.34-18.91s-.74-5.16,3.19-5.93S205.82,105.1,206,106.89Z" transform="translate(0 -43.27)" fill="#e5b2a4"/><path d="M220.05,117.09s-3.57,2.18-13.53,2.87c-6.94.48-7.46-.77-7.46-.77l-.52-2s-5.89,0-10.07,0-10.69-3.33-11.09-7.5,1.42-5.88,1.42-5.88,22.31.5,24.15.5h12.48c1.81,0,3.7.88,3.91,2.73S220.05,117.09,220.05,117.09Z" transform="translate(0 -43.27)" fill="url(#linear-gradient-6)"/><path d="M201.06,82.43S203,82,203.42,80.9s-.23-1.62.11-1.93a5.5,5.5,0,0,0,1-4.07c-.38-1.79-.73-4-6.78-4.79-3.79-.51-7.43,2.9-10.91,8.23-1.64,2.5-5.22,1.7-7.38,1.53a6,6,0,0,0-6.59,4.63c-.54,2.07,1,2.57.92,2.92-.28.93-2.43,4.41,4.77,8.23a22,22,0,0,0,16.61,1.83c7.31-1.87,8.28-7.76,7.3-10.31A33,33,0,0,1,201.06,82.43Z" transform="translate(0 -43.27)" fill="#3e1b11"/><path d="M190.06,92.65a34,34,0,0,0-3.1,3.77c-.48.86.38,2.29,1.28,2.59s4-1.31,5.91-3.27C195.63,94.24,190.49,92.52,190.06,92.65Z" transform="translate(0 -43.27)" fill="#e5b2a4"/><path d="M201.44,84c-1.9-.84-14.56,9.47-14.56,9.47a5.69,5.69,0,0,0,2.57,3.25,7.36,7.36,0,0,0,3.42,1.37,24,24,0,0,1,7.51-4.46c1.44-.58,3-2.22,3.17-5.21C203.64,86.5,202.72,84.58,201.44,84Z" transform="translate(0 -43.27)" fill="url(#linear-gradient-7)"/><path d="M209,102.19c.86.41,2.74.69,3.13.14.26-.35-.88-.77-1.35-.87-.66-.15-3-.57-3-.57A4,4,0,0,0,209,102.19Z" transform="translate(0 -43.27)" fill="#e5b2a4"/><path d="M193.47,96.5c2.59.31,12.25,2.65,14.72,2.81,1.17.08,2.43-1.33,5.76-.35,2.79.82,2.27,2.87.71,2.22-3.58-1.51-4.8,2.33-6.73,0-2.28-.41-8-.82-8-.82l-10.44-.88s-2.62-.4-2.23-1.91C187.6,96.32,191.54,96.27,193.47,96.5Z" transform="translate(0 -43.27)" fill="#e5b2a4"/><path d="M202.25,87.14c.59-2.91-.18-3.46-5.26-4.27-1.5-.24-2.64-.27-4.08-.43-5-.57-6.66-.73-8.72,3.47-3.8,7.74-6.27,18.52-6.81,20.74-.79,3.22,12.2-2.17,15.64-2.17,11.64,0,10.31,0,10.31,0s-2.17-1.19-2-4.53c2.31-.29,3.33-.87,3.78-2.3C205.88,95.37,201.07,93,202.25,87.14Z" transform="translate(0 -43.27)" fill="url(#linear-gradient-8)"/><path d="M195.42,82.3c-2.19-.21-4.46-1.42-4.91-.2s.18,6.11,3.34,7.91,6.09,1,6.18-.56a26,26,0,0,0-.45-4.5c-.13-1.24.68-2.34-.85-2.52S196.63,82.42,195.42,82.3Z" transform="translate(0 -43.27)" fill="#3e1b11"/><path d="M197,82.87c-1.5-.24-2.64-.27-4.08-.43l-1.2-.12c0,1.82.31,7.59,5.25,7.69,3.75.07,1.42-1.24,1.73-6.84C198.19,83.07,197.63,83,197,82.87Z" transform="translate(0 -43.27)" fill="#e5b2a4"/><path d="M193,82.51a45.77,45.77,0,0,1,4.48-5.58c0-.08,4.24,1,5.8-.42a15.32,15.32,0,0,1-1.34,4c-.88,1.63-1.78,2.43-3.54,1.18-.75.87-.55,1.38-.76,2.31a2.26,2.26,0,0,1-2.55,1.75C194.25,85.61,191.38,85,193,82.51Z" transform="translate(0 -43.27)" fill="#e5b2a4"/><path d="M192,104.4c-.18,0-.3-.09-.3-.23V104c0-.15.12-.39.3-.39h9.4c.18,0,.32.24.32.39v.19c0,.14-.14.23-.32.23Z" transform="translate(0 -43.27)" fill="#3e1b11"/><path d="M200.79,103.7c-.12.4.19.7.68.7h17.62a1.16,1.16,0,0,0,1.1-.7l3.05-10.43c.11-.4-.2-.75-.69-.75H204.93a1.2,1.2,0,0,0-1.1.75Z" transform="translate(0 -43.27)" fill="#3e1b11"/><path d="M200.79,103.7l3-10.43a1.2,1.2,0,0,1,1.1-.75h.85a1.2,1.2,0,0,0-1.1.75l-3,10.41c-.12.39.19.72.68.72h-.85C201,104.4,200.67,104.1,200.79,103.7Z" transform="translate(0 -43.27)" fill="url(#linear-gradient-9)"/><path d="M214.54,98.66a1.62,1.62,0,0,0-1.62-2.16,3.06,3.06,0,0,0-2.78,2.16,1.61,1.61,0,0,0,1.62,2.16A3,3,0,0,0,214.54,98.66Z" transform="translate(0 -43.27)" fill="url(#linear-gradient-10)"/><path d="M211.21,98.66a3.08,3.08,0,0,1,2.23-2.09,2.32,2.32,0,0,0-.52-.07,3.06,3.06,0,0,0-2.78,2.16,1.61,1.61,0,0,0,1.62,2.16,2.51,2.51,0,0,0,.55-.06A1.61,1.61,0,0,1,211.21,98.66Z" transform="translate(0 -43.27)" fill="url(#linear-gradient-11)"/><path d="M175.58,90.41a33,33,0,0,0-3.1,3.77c-.48.85.38,2.29,1.28,2.58s4-1.3,5.91-3.26C181.15,92,176,90.27,175.58,90.41Z" transform="translate(0 -43.27)" fill="#e5b2a4"/><path d="M187.24,82.43c-8.46,2.35-14.85,8.81-14.85,8.81A5.68,5.68,0,0,0,175,94.49a7.36,7.36,0,0,0,3.42,1.37,24,24,0,0,1,7.5-4.46c1.45-.58,2.4-3.45,2.9-5.49C189.46,83.23,189.78,81.72,187.24,82.43Z" transform="translate(0 -43.27)" fill="url(#linear-gradient-12)"/><path d="M194.5,99.94c.86.41,2.74.69,3.14.15.25-.36-.89-.78-1.36-.88-.66-.15-3.05-.57-3.05-.57A4,4,0,0,0,194.5,99.94Z" transform="translate(0 -43.27)" fill="#e5b2a4"/><path d="M179,94.25c2.59.31,12.25,2.65,14.72,2.81,1.17.08,2.43-1.33,5.76-.35,2.79.82,2.27,2.87.71,2.22-3.58-1.5-4.8,2.33-6.73,0-2.28-.41-8-.82-8-.82L175,97.22s-2.62-.4-2.23-1.91C173.12,94.08,177.06,94,179,94.25Z" transform="translate(0 -43.27)" fill="#e5b2a4"/><path d="M198,77.49a4.88,4.88,0,0,1-1,1.4c-.57.61-.78.8-.78.8a5.79,5.79,0,0,0,2.3,2.36,2.4,2.4,0,0,0,3-.63A6.07,6.07,0,0,0,202.75,79S201.12,79.25,198,77.49Z" transform="translate(0 -43.27)" fill="url(#linear-gradient-13)"/><path d="M200.37,79.46a10,10,0,0,0,2.08.44l0-.08a9.38,9.38,0,0,1-4.16-1.45.08.08,0,0,0-.08,0,0,0,0,0,0,0,.05h0A8.82,8.82,0,0,0,200.37,79.46Zm.47,1a11.16,11.16,0,0,0,1.15.32l0-.08a9.75,9.75,0,0,1-4.11-1.89,0,0,0,0,0-.07,0s0,0,0,.05h0A8.93,8.93,0,0,0,200.84,80.5Zm-3.38-1.13a9.54,9.54,0,0,0,3.8,2.4l.07-.07a9.47,9.47,0,0,1-3.79-2.38.06.06,0,0,0-.07,0,0,0,0,0,0,0,0Zm-.4.46a6.9,6.9,0,0,0,2.65,2.48h.16a7.09,7.09,0,0,1-2.72-2.51,0,0,0,0,0-.06,0,0,0,0,0,0,0,0Z" transform="translate(0 -43.27)" fill="#fbf2ef"/><path d="M196.41,80l.34-.15a3.26,3.26,0,0,0-.22-.34c-.4-.59-.85-1.25-.51-1.71s.81-.81,1.17-.76a.92.92,0,0,1,.69.75l.39-.08a1.26,1.26,0,0,0-1-1c-.37,0-.95.07-1.56.91-.46.62.07,1.4.49,2Z" transform="translate(0 -43.27)" fill="url(#linear-gradient-14)"/><path d="M195.55,76.81c-.42.34-.27,1,.34,1.57s.9.33,1.32,0,.84-.7.23-1.23A1.63,1.63,0,0,0,195.55,76.81Z" transform="translate(0 -43.27)" fill="#e5b2a4"/></g></svg>