<svg id="SvgjsSvg1001" xmlns="http://www.w3.org/2000/svg" xmlns:xlink="http://www.w3.org/1999/xlink" viewBox="0 0 288 190.49"><defs><clipPath id="clip-path"><polygon points="-0.11 48.64 -0.23 48.64 -0.11 48.53 -0.11 48.64" fill="none" clip-path="url(#clip-path-7)"/></clipPath><linearGradient id="linear-gradient" x1="4593.12" y1="3485.27" x2="4656.05" y2="3561.35" gradientTransform="translate(-438.87 -202.25) scale(0.11)" gradientUnits="userSpaceOnUse"><stop offset="0" stop-color="#fff"/><stop offset="1"/></linearGradient><linearGradient id="linear-gradient-2" x1="4591.41" y1="3483.84" x2="4656.89" y2="3563.01" xlink:href="#linear-gradient"/><linearGradient id="linear-gradient-3" x1="4590.12" y1="3486.3" x2="4653.8" y2="3563.3" xlink:href="#linear-gradient"/><linearGradient id="linear-gradient-4" x1="5597.48" y1="3485.27" x2="5660.4" y2="3561.34" xlink:href="#linear-gradient"/><linearGradient id="linear-gradient-5" x1="5595.71" y1="3483.86" x2="5661.21" y2="3563.04" xlink:href="#linear-gradient"/><linearGradient id="linear-gradient-6" x1="5594.46" y1="3486.29" x2="5658.15" y2="3563.29" xlink:href="#linear-gradient"/><clipPath id="clip-path-7"><polygon points="0.11 48.87 0.23 48.87 0.11 48.98 0.11 48.87" fill="none"/></clipPath><linearGradient id="linear-gradient-7" x1="10414.2" y1="3591.55" x2="9884.2" y2="4120.35" gradientTransform="translate(-919.95 -202.25) scale(0.11)" gradientUnits="userSpaceOnUse"><stop offset="0" stop-color="#fff"/><stop offset="1" stop-color="#dfb1a5"/></linearGradient><linearGradient id="linear-gradient-8" x1="4071.87" y1="3702.73" x2="4281.5" y2="3992.45" xlink:href="#linear-gradient"/><linearGradient id="linear-gradient-9" x1="3875.8" y1="3716.33" x2="4542.08" y2="4136.11" xlink:href="#linear-gradient"/><linearGradient id="linear-gradient-10" x1="4698.53" y1="3156.05" x2="4795.95" y2="2812.51" gradientTransform="translate(-438.87 -202.25) scale(0.11)" gradientUnits="userSpaceOnUse"><stop offset="0" stop-color="#fff"/><stop offset="0.13" stop-color="#f8eeec"/><stop offset="0.72" stop-color="#ddac9f"/><stop offset="1" stop-color="#d39381"/></linearGradient><linearGradient id="linear-gradient-11" x1="5010.16" y1="3649.81" x2="5010.16" y2="3434.93" gradientTransform="translate(-438.87 -202.25) scale(0.11)" gradientUnits="userSpaceOnUse"><stop offset="0" stop-color="#8b4431"/><stop offset="1" stop-color="#fff"/></linearGradient><linearGradient id="linear-gradient-12" x1="4604.49" y1="3527.05" x2="4604.49" y2="3508.9" xlink:href="#linear-gradient-11"/><mask id="mask" x="-0.23" y="-0.23" width="86.97" height="150.26" maskUnits="userSpaceOnUse"><g transform="translate(0 -48.76)"><g id="y"><g clip-path="url(#clip-path)"><path d="M86.59,198.78c.11,0,.18-.12.15-.21a5.05,5.05,0,0,0-.24-.53.25.25,0,0,0-.29-.09h0a.16.16,0,0,0-.11.23,2.62,2.62,0,0,1,.22.48.23.23,0,0,0,.2.13Z" fill="url(#linear-gradient)"/></g></g></g></mask><linearGradient id="linear-gradient-13" x1="4593.12" y1="3485.27" x2="4656.05" y2="3561.35" gradientTransform="translate(-438.87 -202.25) scale(0.11)" gradientUnits="userSpaceOnUse"><stop offset="0" stop-color="#fff"/><stop offset="1" stop-color="#fff"/></linearGradient><mask id="mask-2" x="-0.23" y="-0.23" width="86.4" height="149.28" maskUnits="userSpaceOnUse"><g transform="translate(0 -48.76)"><g id="z"><g clip-path="url(#clip-path)"><path d="M86.13,197.54a2.93,2.93,0,0,0-1-.71.25.25,0,0,0-.29.06h0a.16.16,0,0,0,0,.21h0a2.51,2.51,0,0,1,.89.62.23.23,0,0,0,.18.06.18.18,0,0,0,.12,0,.14.14,0,0,0,.07-.19Z" fill="url(#linear-gradient-2)"/></g></g></g></mask><linearGradient id="linear-gradient-14" x1="4591.41" y1="3483.84" x2="4656.89" y2="3563.01" xlink:href="#linear-gradient-13"/><mask id="mask-3" x="-0.23" y="-0.23" width="87.13" height="150.91" maskUnits="userSpaceOnUse"><g transform="translate(0 -48.76)"><g id="B"><g clip-path="url(#clip-path)"><path d="M86.9,199.24l0-.11a.21.21,0,0,0-.24-.15h0c-.12,0-.2.1-.19.19s0,.08,0,.12a.23.23,0,0,0,.22.15h0c.12,0,.21-.1.19-.19Z" fill="url(#linear-gradient-3)"/></g></g></g></mask><linearGradient id="linear-gradient-15" x1="4590.12" y1="3486.3" x2="4653.8" y2="3563.3" xlink:href="#linear-gradient-13"/><linearGradient id="linear-gradient-16" x1="4575.15" y1="3602.83" x2="4575.15" y2="3532.17" xlink:href="#linear-gradient-11"/><linearGradient id="linear-gradient-17" x1="4604.93" y1="3591.16" x2="4604.93" y2="3597.21" xlink:href="#linear-gradient-11"/><linearGradient id="linear-gradient-18" x1="4543.59" y1="3634.5" x2="4537.26" y2="3468.15" xlink:href="#linear-gradient-11"/><linearGradient id="linear-gradient-19" x1="5608.84" y1="3527.05" x2="5608.84" y2="3508.9" xlink:href="#linear-gradient-11"/><mask id="mask-4" x="-0.23" y="-0.23" width="200.85" height="150.26" maskUnits="userSpaceOnUse"><g transform="translate(0 -48.76)"><g id="H"><g clip-path="url(#clip-path)"><path d="M200.47,198.78c.11,0,.18-.12.15-.21a5.05,5.05,0,0,0-.24-.53.25.25,0,0,0-.29-.09h0a.16.16,0,0,0-.11.23,2.62,2.62,0,0,1,.22.48.23.23,0,0,0,.21.13Z" fill="url(#linear-gradient-4)"/></g></g></g></mask><linearGradient id="linear-gradient-20" x1="5597.48" y1="3485.27" x2="5660.4" y2="3561.34" xlink:href="#linear-gradient-13"/><mask id="mask-5" x="-0.23" y="-0.23" width="200.28" height="149.27" maskUnits="userSpaceOnUse"><g transform="translate(0 -48.76)"><g id="J"><g clip-path="url(#clip-path)"><path d="M200,197.54a2.93,2.93,0,0,0-1-.71.24.24,0,0,0-.29,0v0a.16.16,0,0,0,0,.21h0a2.51,2.51,0,0,1,.89.62.24.24,0,0,0,.29,0h0a.14.14,0,0,0,.09-.19Z" fill="url(#linear-gradient-5)"/></g></g></g></mask><linearGradient id="linear-gradient-21" x1="5595.71" y1="3483.86" x2="5661.21" y2="3563.04" xlink:href="#linear-gradient-13"/><mask id="mask-6" x="-0.23" y="-0.23" width="201.01" height="150.91" maskUnits="userSpaceOnUse"><g transform="translate(0 -48.76)"><g id="L"><g clip-path="url(#clip-path)"><path d="M200.78,199.24s0-.08,0-.11a.21.21,0,0,0-.24-.15h0c-.12,0-.2.1-.19.19a.5.5,0,0,1,0,.12.23.23,0,0,0,.21.15h0c.12,0,.21-.1.19-.19Z" fill="url(#linear-gradient-6)"/></g></g></g></mask><linearGradient id="linear-gradient-22" x1="5594.46" y1="3486.29" x2="5658.15" y2="3563.29" xlink:href="#linear-gradient-13"/><linearGradient id="linear-gradient-23" x1="5579.5" y1="3602.83" x2="5579.5" y2="3532.17" xlink:href="#linear-gradient-11"/><linearGradient id="linear-gradient-24" x1="5609.21" y1="3591.16" x2="5609.21" y2="3597.21" xlink:href="#linear-gradient-11"/><linearGradient id="linear-gradient-25" x1="5547.92" y1="3634.5" x2="5541.59" y2="3468.15" xlink:href="#linear-gradient-11"/><linearGradient id="linear-gradient-26" x1="4684.12" y1="2389.41" x2="4811.34" y2="2435.16" gradientTransform="translate(-438.87 -202.25) scale(0.11)" gradientUnits="userSpaceOnUse"><stop offset="0" stop-color="#6a3425"/><stop offset="0.46" stop-color="#7b3c2b"/><stop offset="1" stop-color="#8d4532"/></linearGradient><linearGradient id="linear-gradient-27" x1="-1322.7" y1="-5996.01" x2="-1322.7" y2="-5693.35" gradientTransform="matrix(0.02, -0.11, -0.11, -0.02, -549.41, -164.24)" gradientUnits="userSpaceOnUse"><stop offset="0" stop-color="#2c1610"/><stop offset="1" stop-color="#3a1d15"/></linearGradient><linearGradient id="linear-gradient-28" x1="867.75" y1="2514.05" x2="867.75" y2="2733.85" gradientTransform="matrix(-0.11, 0, 0, 0.11, 189.4, -202.25)" xlink:href="#linear-gradient-27"/><linearGradient id="linear-gradient-29" x1="4869.22" y1="2425.9" x2="4865.81" y2="2597.89" gradientTransform="translate(-438.87 -202.25) scale(0.11)" gradientUnits="userSpaceOnUse"><stop offset="0" stop-color="#d08b78"/><stop offset="0.48" stop-color="#c6735d"/><stop offset="1" stop-color="#bd5e44"/></linearGradient><linearGradient id="linear-gradient-30" x1="4812.98" y1="2423.09" x2="4955.95" y2="2470.5" xlink:href="#linear-gradient-26"/><linearGradient id="linear-gradient-31" x1="5957.04" y1="2151.11" x2="6175.72" y2="2378.26" gradientTransform="translate(-593.47 -202.25) scale(0.11)" gradientUnits="userSpaceOnUse"><stop offset="0" stop-color="#fff"/><stop offset="0.26" stop-color="#ecd0c8"/><stop offset="1" stop-color="#aa533c"/></linearGradient><linearGradient id="linear-gradient-32" x1="6046.55" y1="2230.25" x2="6046.55" y2="2388.66" xlink:href="#linear-gradient-31"/><linearGradient id="linear-gradient-33" x1="5573.28" y1="2779.7" x2="5668.73" y2="2714.93" xlink:href="#linear-gradient-26"/><linearGradient id="linear-gradient-34" x1="5454.81" y1="2667.19" x2="5454.81" y2="2709.03" xlink:href="#linear-gradient-29"/><linearGradient id="linear-gradient-35" x1="5703.16" y1="3005.36" x2="5703.16" y2="3173.53" gradientTransform="translate(-438.87 -202.25) scale(0.11)" xlink:href="#linear-gradient-27"/><linearGradient id="linear-gradient-36" x1="5633.32" y1="3005.36" x2="5633.32" y2="3173.53" gradientTransform="translate(-438.87 -202.25) scale(0.11)" xlink:href="#linear-gradient-27"/><linearGradient id="linear-gradient-37" x1="5539.65" y1="2780.63" x2="5571.68" y2="2972.84" xlink:href="#linear-gradient-29"/><linearGradient id="linear-gradient-38" x1="5540.4" y1="2686.93" x2="5540.4" y2="2726.07" xlink:href="#linear-gradient-29"/><linearGradient id="linear-gradient-39" x1="5514.21" y1="2686.93" x2="5514.21" y2="2726.07" xlink:href="#linear-gradient-29"/><linearGradient id="linear-gradient-40" x1="14774.88" y1="2885.34" x2="14774.88" y2="3028.9" gradientTransform="translate(-1486.32 -202.25) scale(0.11)" xlink:href="#linear-gradient-10"/><linearGradient id="linear-gradient-41" x1="3676.82" y1="2919.31" x2="3676.82" y2="2975.91" gradientTransform="matrix(-0.11, 0, 0, 0.11, 627.15, -202.25)" gradientUnits="userSpaceOnUse"><stop offset="0" stop-color="#fff"/><stop offset="0.01" stop-color="#fefcfc"/><stop offset="0.49" stop-color="#d29180"/><stop offset="0.83" stop-color="#ad553d"/><stop offset="1" stop-color="#904632"/></linearGradient><linearGradient id="linear-gradient-42" x1="3952.31" y1="2919.31" x2="3952.31" y2="2975.91" xlink:href="#linear-gradient-41"/><linearGradient id="linear-gradient-43" x1="3605.88" y1="2931.33" x2="3605.88" y2="2957.16" xlink:href="#linear-gradient-41"/><linearGradient id="linear-gradient-44" x1="4038.64" y1="2931.33" x2="4038.64" y2="2957.16" xlink:href="#linear-gradient-41"/><linearGradient id="linear-gradient-45" x1="3828.58" y1="2912.48" x2="3828.58" y2="3038.55" gradientTransform="matrix(-0.11, 0, 0, 0.11, 627.15, -202.25)" xlink:href="#linear-gradient-10"/><linearGradient id="linear-gradient-46" x1="3534.86" y1="2690.53" x2="3534.86" y2="3016.76" gradientTransform="matrix(-0.11, 0, 0, 0.11, 627.15, -202.25)" xlink:href="#linear-gradient-10"/><linearGradient id="linear-gradient-47" x1="5510.39" y1="2760.76" x2="5395.74" y2="2856.94" xlink:href="#linear-gradient-26"/></defs><g id="SvgjsG1008"><path d="M288,236a3.19,3.19,0,0,0-3.12-3.23H3.12A3.19,3.19,0,0,0,0,236H0a3.19,3.19,0,0,0,3.12,3.22H284.88A3.19,3.19,0,0,0,288,236Z" transform="translate(0 -48.76)" fill="#fcf7f6"/><path d="M275.4,220.5c-3.21-3.62-2.5-7.86-.16-8C278.75,212.35,278.13,217.9,275.4,220.5Z" transform="translate(0 -48.76)" fill="#bd5d43"/><path d="M32.66,48.76" transform="translate(0 -48.76)" fill="#bd5d43"/><path d="M265.79,225.52c-4.83.15-7.71,5.61-5.44,10.11a4.11,4.11,0,0,0,.24.39h18c3.37-2.5,8.85-8.54,5.55-10.5s-9.78.95-13.26,4.33C270.13,227.63,268.81,225.43,265.79,225.52Z" transform="translate(0 -48.76)" fill="#d08b78"/><path d="M253.45,225.57c3.24-1,9.2-.54,9.61-1.95s-2.82-4-1.92-7.4,3.14-4.26,3.14-4.26a28.3,28.3,0,0,1-9.74-.66c-4.6-1.3-7.39-2.64-9.13,1.06s-2.39,5.54-5,7-5.41,1.22-3.09-2.85a21,21,0,0,1,6.16-6.55A31.2,31.2,0,0,0,231,210c-7.43,1.37-10.41,3.37-9.86,7.48s5.07,10.69,1.57,12.14-5.71-4.62-6-8a17,17,0,0,1,.39-5.78,11,11,0,0,0-8.8,8.75c-1.27,5.74,1.07,9.36,5.65,11.43h46.51a11.4,11.4,0,0,0,1.59-3.89s-5.46,3.61-11,2.81-9.41-3.81-2.54-3.43,8.5,2.9,12.4-.27,3.38-5.09,3.38-5.09a55.4,55.4,0,0,1-8.06,1.59C252.22,228.17,250.21,226.61,253.45,225.57Z" transform="translate(0 -48.76)" fill="#6c3526"/><path d="M211.57,227.31c-2.07.89,1.75,4.61,3.46,3.62S213.86,226.32,211.57,227.31Zm12.89,5.19c1.5,2,5.63-.91,4.21-2.05C227,229.1,223,230.51,224.46,232.5Zm6.39-17.63c-1,.14-3.21.56-3,3s3.66,1.84,4.16-.23A2.3,2.3,0,0,0,230.85,214.87Zm1.73,6.61c-3-.15-3.93,4.38-.65,4.48S235.47,221.63,232.58,221.48Zm24.06.43c2.43-.12,2.91-1.25,1.62-2-.93-.57-1.24-1.46-3.44-.31S254.21,222,256.64,221.91ZM245.15,226c-3.13-.08-2.92,1.07-1.18,2s4-.66,3.7-1.29S245.15,226,245.15,226Zm6.48-12.89h.08c-.84-.35-3-1.07-3.86,2.13s1.94,3.18,3.47,1.57S253.23,213.91,251.63,213.15Z" transform="translate(0 -48.76)" fill="#faf2f0"/><path d="M252.92,217.7c-1.5.91-3.2,2.05-5,3.35-.9.64-1.81,1.33-2.74,2s-1.88,1.48-2.86,2.23c-2,1.49-4,3-6.1,4.4s-4.19,2.73-6.21,3.89c-1.6.9-3.14,1.71-4.57,2.4h-2.84l1-.44c1.69-.74,3.63-1.67,5.66-2.76s4.17-2.35,6.28-3.69,4.23-2.79,6.24-4.22c1-.72,2-1.44,2.95-2.15s1.92-1.36,2.84-2c1.86-1.25,3.63-2.34,5.17-3.21s2.85-1.54,3.79-2,1.48-.64,1.48-.64-.54.23-1.45.68S254.41,216.78,252.92,217.7Z" transform="translate(0 -48.76)" fill="url(#linear-gradient-7)"/><path d="M41.88,236c-2-3.62-5.88-8-13.52-11.62C14.57,218.31,0,223.56,0,223.56S-.18,229.75,6.42,236Z" transform="translate(0 -48.76)" fill="#a14f38"/><path d="M28.36,224.4A33.16,33.16,0,0,0,22,222.34c.22,2.89,2.11,7,9.35,11.26a37.37,37.37,0,0,0,5,2.42h5.55C39.89,232.4,36,228,28.36,224.4Z" transform="translate(0 -48.76)" fill="url(#linear-gradient-8)"/><path d="M39.61,232.69a12.4,12.4,0,0,0-1.3,3.33h.9a12,12,0,0,1,1-2.61C40,233.17,39.81,232.93,39.61,232.69Zm-12.08-8.64-.78-.31a15.78,15.78,0,0,0-2.28,10.47l-6.13-2.73a15.19,15.19,0,0,1,1.53-9.54l-.87-.13a15.68,15.68,0,0,0-1.61,9.24l-6.32-2.85a10.9,10.9,0,0,1,1.16-6.73l-1,.05a11.37,11.37,0,0,0-1.13,6.26l-5.35-2.43a6.66,6.66,0,0,1,.2-3.07l-.94.19a7,7,0,0,0-.19,2.46L.5,223.39l-.5.16s0,.15,0,.41l5.26,2.4a11.52,11.52,0,0,0-4,2.57c.12.25.23.51.36.77a10.79,10.79,0,0,1,4.52-2.93l5.43,2.46a17.28,17.28,0,0,0-7,4.82c.1.13.21.25.32.38l.28.14a16.61,16.61,0,0,1,7.38-4.92l6.23,2.8A25.88,25.88,0,0,0,12.2,236h1.29a26,26,0,0,1,6.23-3.14c2,.9,4.06,1.82,6.11,2.72-.3.11-.68.25-1.08.42h3.82l-3.14-1.38A15.1,15.1,0,0,1,27.53,224.05Zm5.85,3.15A15.84,15.84,0,0,0,31.23,236h.88a15.37,15.37,0,0,1,2-8.34l-.68-.46Z" transform="translate(0 -48.76)" fill="url(#linear-gradient-9)"/><path d="M36.33,236H60.41c.23-4.23-1-11.27-9.35-18.43C39.5,208.18,22.76,210,22.76,210s-4.61,11.08,8.6,22.42A34.16,34.16,0,0,0,36.33,236Z" transform="translate(0 -48.76)" fill="#6c3526"/><path d="M22.06,216.61a13.36,13.36,0,0,1,5.71-1.88l4.56,3.8a21.53,21.53,0,0,0-9,3.2l.18.44.21.19a20.73,20.73,0,0,1,9.37-3.22l5.26,4.33a30.65,30.65,0,0,0-11.83,3.88l.46.59a30,30,0,0,1,12.12-3.85c1.7,1.39,3.43,2.81,5.16,4.21a30.14,30.14,0,0,0-12.6,4.38c.19.17.39.34.6.5A30,30,0,0,1,45,228.92c1.71,1.39,3.41,2.76,5.06,4.07a31,31,0,0,0-10.26,3H41.5a31,31,0,0,1,9.31-2.42l3,2.42h1.8a14.33,14.33,0,0,1,3.86-6.57l-.28-.81a14.82,14.82,0,0,0-4.41,7.17c-1.55-1.22-3.21-2.53-4.92-3.9a18.16,18.16,0,0,1,5.65-9.69l-.48-.59a18.83,18.83,0,0,0-5.93,9.67l-5-4.06A18.18,18.18,0,0,1,50.35,217l-.63-.46a18.88,18.88,0,0,0-6.34,10.05l-5.18-4.24a18,18,0,0,1,5.24-9.29l-.79-.31a18.78,18.78,0,0,0-5.2,9l-5.32-4.4a13.08,13.08,0,0,1,3.77-6.54l-.94-.17a13.59,13.59,0,0,0-3.57,6.09L26.89,213a7.72,7.72,0,0,1,1.38-3.06l-1,0a8.41,8.41,0,0,0-1.14,2.47L23.3,210l-.54,0s-.05.13-.13.38l4.42,3.7a14.48,14.48,0,0,0-5,1.67A7.67,7.67,0,0,0,22.06,216.61Z" transform="translate(0 -48.76)" fill="#faf2f0" opacity="0.5" style="isolation:isolate"/><path d="M91.69,113.1h-12a1.11,1.11,0,0,0-1.21,1v40.51H92.9V114.05A1.11,1.11,0,0,0,91.69,113.1ZM71.3,100.55h-12a1.11,1.11,0,0,0-1.21,1v53.06H72.51V101.5C72.52,101,72,100.56,71.3,100.55Zm62.38,31.92a1.11,1.11,0,0,0-1.21-.94h-12c-.69,0-1.22.43-1.21.94v22.09h14.39Zm-21.6-10.93h-12c-.68,0-1.22.43-1.21.94v32.08h14.39V122.48C113.3,122,112.76,121.55,112.08,121.54Z" transform="translate(0 -48.76)" fill="#733828"/><path d="M53.89,156.31c-2.57,0-4.67-1.64-4.67-3.66v-65c0-.47.46-.86,1.08-.88a1,1,0,0,1,1.16.81v65.05a2.22,2.22,0,0,0,2.43,1.91h90.54c.63,0,1.15.39,1.15.87a1.05,1.05,0,0,1-1.15.88Z" transform="translate(0 -48.76)" fill="#ba5b42"/><path d="M32.66,48.76" transform="translate(0 -48.76)" fill="#ba5b42"/><path d="M91.69,113.1H90.37a1.11,1.11,0,0,1,1.21,1v40.51h1.31V114.05A1.1,1.1,0,0,0,91.69,113.1Zm40.78,18.43h-1.33c.68,0,1.22.43,1.21.94v22.09h1.32V132.47C133.68,132,133.14,131.54,132.47,131.53Zm-61.17-31H70a1.11,1.11,0,0,1,1.21,1v53.06h1.32V101.5A1.11,1.11,0,0,0,71.3,100.55Zm40.78,21h-1.32a1.11,1.11,0,0,1,1.21.94v32.08h1.31V122.48C113.29,122,112.75,121.55,112.08,121.54Z" transform="translate(0 -48.76)" opacity="0.5" fill="url(#linear-gradient-10)" style="isolation:isolate"/><path d="M234.16,232.63c0,1.86-1.95,3.39-4.32,3.39H50.56c-2.38,0-4.32-1.53-4.32-3.39v-64c0-1.86,1.94-3.38,4.32-3.38H229.84c2.38,0,4.32,1.52,4.32,3.38Z" transform="translate(0 -48.76)" fill="#c6735c"/><path d="M227,214.28V187c-11.36,0-20.57-7.21-20.57-16.1H74c0,8.9-9.21,16.1-20.57,16.1v27.27c11.36,0,20.57,7.21,20.57,16.1H206.39C206.39,221.49,215.6,214.28,227,214.28Z" transform="translate(0 -48.76)" fill="#e8c6bc"/><path d="M197.14,187.19c-9.12,0-16.6,5.59-17.15,12.62H165.28C164.72,189.34,153.71,181,140.2,181s-24.53,8.35-25.09,18.82h-14.7c-.55-7-8-12.62-17.15-12.62-9.48,0-17.19,6-17.19,13.46s7.71,13.45,17.19,13.45c9.12,0,16.6-5.59,17.15-12.62h14.7c.56,10.47,11.58,18.82,25.09,18.82s24.52-8.35,25.08-18.82H180c.55,7,8,12.62,17.15,12.62,9.47,0,17.18-6,17.18-13.45S206.61,187.19,197.14,187.19Z" transform="translate(0 -48.76)" fill="#733828"/><path d="M162.18,200.65c0-9.51-9.84-17.22-22-17.22s-22,7.71-22,17.22,9.85,17.21,22,17.21S162.18,210.15,162.18,200.65Z" transform="translate(0 -48.76)" fill="#dfb1a5"/><path d="M140.36,215.45H140a.15.15,0,0,0-.16.13V217c0,.07.07.12.16.12h.33a.14.14,0,0,0,.16-.12v-1.46A.15.15,0,0,0,140.36,215.45Zm0-31.32H140a.14.14,0,0,0-.16.12v1.46c0,.07.07.12.16.13h.33a.15.15,0,0,0,.16-.13v-1.46a.14.14,0,0,0-.16-.12Zm5.35,31.64a.18.18,0,0,0-.2-.09h0l-.31.07c-.08,0-.14.09-.11.15l.22.65a.16.16,0,0,0,.19.09h0l.31-.07c.09,0,.14-.09.12-.15Zm4.31-2.31a.18.18,0,0,0-.2-.06h0l-.28.12a.12.12,0,0,0-.08.15l0,0,.93,1.26a.19.19,0,0,0,.21.05h0l.28-.13a.11.11,0,0,0,.07-.14v0Zm-20-27.14a.18.18,0,0,0-.22,0h0l-.28.12a.12.12,0,0,0-.07.15s0,0,0,0l.93,1.26a.17.17,0,0,0,.2,0h0l.29-.12a.12.12,0,0,0,.07-.15s0,0,0,0Zm5.09-1.57a.18.18,0,0,0-.2-.09h0l-.31.06c-.08,0-.14.09-.11.16l.22.64a.18.18,0,0,0,.2.09h0l.31-.07c.09,0,.14-.08.12-.15ZM123.84,193l-1.61-.73a.19.19,0,0,0-.21.05h0l-.17.21a.12.12,0,0,0,0,.16l0,0,1.61.72a.2.2,0,0,0,.22,0h0l.16-.22a.11.11,0,0,0,0-.16l0,0Zm1.79-4.08a.2.2,0,0,0-.23,0h0l-.22.17a.11.11,0,0,0,0,.16l0,0,.6.47a.18.18,0,0,0,.22,0h0l.23-.17a.11.11,0,0,0,0-.16s0,0,0,0Zm29,22.71a.2.2,0,0,0-.23,0h0l-.22.18a.11.11,0,0,0,0,.15l0,0,.59.46a.2.2,0,0,0,.23,0h0l.22-.17a.1.1,0,0,0,0-.15l0,0Zm3.85-3-1.61-.73a.22.22,0,0,0-.22,0h0l-.16.22a.12.12,0,0,0,0,.16h0l1.61.73a.2.2,0,0,0,.22,0h0l.16-.22a.11.11,0,0,0,0-.16h0Zm2-4-.82-.17a.18.18,0,0,0-.2.09h0l-.08.24c0,.07,0,.14.11.16l.82.17a.17.17,0,0,0,.2-.09h0l.08-.24a.12.12,0,0,0-.12-.15h0Zm-40.62-8,.82.17a.18.18,0,0,0,.2-.09h0l.08-.24a.13.13,0,0,0-.11-.16l-.82-.17a.18.18,0,0,0-.2.09h0l-.09.25a.13.13,0,0,0,.11.15Zm41.25,3.74h-1.87a.15.15,0,0,0-.16.12v.26c0,.07.07.12.16.12h1.86c.09,0,.17,0,.16-.12h0v-.26a.15.15,0,0,0-.16-.12Zm-40,0h-1.86a.15.15,0,0,0-.16.12v.26c0,.07.07.12.16.12h1.85c.09,0,.17,0,.17-.12h0v-.26a.16.16,0,0,0-.17-.12Zm-.21,4.17a.16.16,0,0,0-.2-.09h0l-.82.17c-.09,0-.14.09-.11.15l.08.25a.18.18,0,0,0,.2.09h0l.82-.17a.13.13,0,0,0,.11-.16Zm2.82,3.38a.17.17,0,0,0-.21-.06h0l-1.61.73a.11.11,0,0,0-.07.14s0,0,0,0l.17.22a.17.17,0,0,0,.21,0h0l1.61-.72a.12.12,0,0,0,.08-.15l0,0Zm35.77-11.22a.16.16,0,0,0,.19.09h0l.82-.17c.09,0,.14-.09.12-.15l-.09-.25a.16.16,0,0,0-.19-.09h0l-.82.17c-.09,0-.14.09-.11.16Zm-1.1-4.45a.19.19,0,0,0-.21-.05h0l-1.61.73a.11.11,0,0,0-.07.14v0l.16.22a.19.19,0,0,0,.2.06h0l1.62-.73a.11.11,0,0,0,.07-.14s0,0,0,0Zm-4-2.58a.18.18,0,0,0,.22,0h0l.6-.47a.1.1,0,0,0,0-.14l0,0-.23-.17a.18.18,0,0,0-.22,0h0l-.6.47a.11.11,0,0,0,0,.16l0,0Zm-4.89-1.94.28.12a.17.17,0,0,0,.21,0h0l.93-1.26a.12.12,0,0,0,0-.16l0,0-.28-.12a.19.19,0,0,0-.22,0h0l-.93,1.26a.11.11,0,0,0,0,.16l0,0ZM126,211.58a.18.18,0,0,0-.22,0h0l-.6.47a.11.11,0,0,0,0,.16l0,0,.22.18a.2.2,0,0,0,.23,0h0l.6-.47a.11.11,0,0,0,0-.16l0,0Zm4.89,1.94-.28-.12a.18.18,0,0,0-.21,0v0l-.93,1.26a.11.11,0,0,0,0,.15l0,0,.28.13a.2.2,0,0,0,.22,0h0l.93-1.26a.11.11,0,0,0,0-.15l0,0Zm14.94-28.81-.31-.06a.17.17,0,0,0-.2.09h0l-.22.64c0,.06,0,.13.11.15l.32.07a.17.17,0,0,0,.19-.09h0l.22-.64c0-.07,0-.14-.13-.15Zm-10.63,31-.31-.07a.18.18,0,0,0-.2.09l-.22.64c0,.07,0,.14.11.16l.31.07a.18.18,0,0,0,.2-.09h0l.22-.64a.14.14,0,0,0-.12-.16Z" transform="translate(0 -48.76)" fill="#733828"/><path d="M140.2,183.43c-12.14,0-22,7.71-22,17.22s9.85,17.21,22,17.21c-6.14,0-11.11-7.71-11.11-17.21S134.06,183.43,140.2,183.43Z" transform="translate(0 -48.76)" opacity="0.75" fill="url(#linear-gradient-11)" style="isolation:isolate"/><path d="M140.2,201.14H129.83c-.36,0-.65-.22-.65-.49a.59.59,0,0,1,.65-.5h9.74V188.41c0-.26.25-.48.6-.5a.6.6,0,0,1,.66.46v12.28c0,.26-.28.48-.63.49Z" transform="translate(0 -48.76)" fill="#733828"/><path d="M143.49,200.65c0-1.43-1.48-2.58-3.29-2.58s-3.29,1.15-3.29,2.58,1.48,2.57,3.29,2.57S143.49,202.07,143.49,200.65Z" transform="translate(0 -48.76)" fill="#733828"/><path d="M142.07,200.65a1.73,1.73,0,0,0-1.93-1.38c-1,0-1.85.68-1.82,1.47a1.73,1.73,0,0,0,1.88,1.37C141.25,202.1,142.09,201.44,142.07,200.65Zm-43.76,0c0-6.51-6.73-11.79-15-11.79s-15.05,5.28-15.05,11.79S75,212.43,83.26,212.43,98.31,207.16,98.31,200.65Z" transform="translate(0 -48.76)" fill="#dfb1a5"/><path d="M83.19,194.23c-.88,0-1.58.55-1.57,1.21a1.44,1.44,0,0,0,1.6,1.19c.88,0,1.57-.54,1.57-1.2S84.07,194.23,83.19,194.23Zm0,1.76a.65.65,0,0,1-.72-.57.67.67,0,0,1,.74-.55c.41,0,.73.26.73.56a.68.68,0,0,1-.74.56Z" transform="translate(0 -48.76)" fill="#6c3526"/><path d="M83,196.63h.2a1.93,1.93,0,0,0,1.09-.34,3.67,3.67,0,0,0-2.2,0A1.94,1.94,0,0,0,83,196.63Z" transform="translate(0 -48.76)" opacity="0.75" fill="url(#linear-gradient-12)" style="isolation:isolate"/><path d="M87.17,200c0-2.33-1.48-3.63-3.91-3.63s-3.91,1.3-3.91,3.63c0,3.13-1.79,4.13-1.79,4.13H89S87.17,203.09,87.17,200Z" transform="translate(0 -48.76)" fill="#ba5b42"/><g mask="url(#mask)"><path d="M86.59,198.78c.11,0,.18-.12.15-.21a5.05,5.05,0,0,0-.24-.53.25.25,0,0,0-.29-.09h0a.16.16,0,0,0-.11.23,2.62,2.62,0,0,1,.22.48.23.23,0,0,0,.2.13Z" transform="translate(0 -48.76)" fill="url(#linear-gradient-13)"/></g><g mask="url(#mask-2)"><path d="M86.13,197.54a2.93,2.93,0,0,0-1-.71.25.25,0,0,0-.29.06h0a.16.16,0,0,0,0,.21h0a2.51,2.51,0,0,1,.89.62.23.23,0,0,0,.18.06.18.18,0,0,0,.12,0,.14.14,0,0,0,.07-.19Z" transform="translate(0 -48.76)" fill="url(#linear-gradient-14)"/></g><g mask="url(#mask-3)"><path d="M86.9,199.24l0-.11a.21.21,0,0,0-.24-.15h0c-.12,0-.2.1-.19.19s0,.08,0,.12a.23.23,0,0,0,.22.15h0c.12,0,.21-.1.19-.19Z" transform="translate(0 -48.76)" fill="url(#linear-gradient-15)"/></g><path d="M90,204.51a.49.49,0,0,1-.54.42H77c-.3,0-.54-.21-.52-.44a.48.48,0,0,1,.52-.4H89.49A.49.49,0,0,1,90,204.51Z" transform="translate(0 -48.76)" fill="#6c3526"/><path d="M79.35,200c0,3.13-1.79,4.13-1.79,4.13H77c-.3,0-.54.21-.52.44a.48.48,0,0,0,.52.4h2.79c-.16,0-.3-.19-.3-.42s.14-.42.3-.42h.3s1-1,1-4.13c0-2.33.81-3.63,2.15-3.63C80.82,196.33,79.35,197.63,79.35,200Z" transform="translate(0 -48.76)" opacity="0.75" fill="url(#linear-gradient-16)" style="isolation:isolate"/><path d="M83.26,205.84a2.54,2.54,0,0,0,2-.91h-4.1A2.54,2.54,0,0,0,83.26,205.84Z" transform="translate(0 -48.76)" fill="#ba5b42"/><path d="M83.26,205.84a2.54,2.54,0,0,0,2-.91h-4.1A2.54,2.54,0,0,0,83.26,205.84Z" transform="translate(0 -48.76)" opacity="0.75" fill="url(#linear-gradient-17)" style="isolation:isolate"/><path d="M74.88,200.65c0-6.51,3.75-11.79,8.38-11.79-8.31,0-15.05,5.28-15.05,11.79S75,212.43,83.26,212.43C78.63,212.43,74.88,207.16,74.88,200.65Z" transform="translate(0 -48.76)" opacity="0.75" fill="url(#linear-gradient-18)" style="isolation:isolate"/><path d="M212.19,200.65c0-6.51-6.73-11.79-15.05-11.79s-15,5.28-15,11.79,6.73,11.78,15,11.78S212.19,207.16,212.19,200.65Z" transform="translate(0 -48.76)" fill="#dfb1a5"/><path d="M197.06,194.23c-.87,0-1.57.55-1.56,1.21s.72,1.2,1.6,1.19,1.57-.54,1.56-1.2S198,194.23,197.06,194.23Zm0,1.76a.66.66,0,0,1-.72-.57.68.68,0,0,1,.75-.55c.41,0,.72.26.72.56a.68.68,0,0,1-.74.56Z" transform="translate(0 -48.76)" fill="#6c3526"/><path d="M196.89,196.63h.2a1.93,1.93,0,0,0,1.1-.34,3.67,3.67,0,0,0-2.2,0A1.94,1.94,0,0,0,196.89,196.63Z" transform="translate(0 -48.76)" opacity="0.75" fill="url(#linear-gradient-19)" style="isolation:isolate"/><path d="M201,200c0-2.33-1.46-3.63-3.9-3.63s-3.91,1.3-3.91,3.63c0,3.13-1.8,4.13-1.8,4.13h11.42S201,203.09,201,200Z" transform="translate(0 -48.76)" fill="#ba5b42"/><g mask="url(#mask-4)"><path d="M200.47,198.78c.11,0,.18-.12.15-.21a5.05,5.05,0,0,0-.24-.53.25.25,0,0,0-.29-.09h0a.16.16,0,0,0-.11.23,2.62,2.62,0,0,1,.22.48.23.23,0,0,0,.21.13Z" transform="translate(0 -48.76)" fill="url(#linear-gradient-20)"/></g><g mask="url(#mask-5)"><path d="M200,197.54a2.93,2.93,0,0,0-1-.71.24.24,0,0,0-.29,0v0a.16.16,0,0,0,0,.21h0a2.51,2.51,0,0,1,.89.62.24.24,0,0,0,.29,0h0a.14.14,0,0,0,.09-.19Z" transform="translate(0 -48.76)" fill="url(#linear-gradient-21)"/></g><g mask="url(#mask-6)"><path d="M200.78,199.24s0-.08,0-.11a.21.21,0,0,0-.24-.15h0c-.12,0-.2.1-.19.19a.5.5,0,0,1,0,.12.23.23,0,0,0,.21.15h0c.12,0,.21-.1.19-.19Z" transform="translate(0 -48.76)" fill="url(#linear-gradient-22)"/></g><path d="M203.9,204.51a.48.48,0,0,1-.53.42H190.91c-.31,0-.54-.21-.53-.44a.5.5,0,0,1,.53-.4h12.46C203.67,204.09,203.91,204.28,203.9,204.51Z" transform="translate(0 -48.76)" fill="#6c3526"/><path d="M193.23,200c0,3.13-1.8,4.13-1.8,4.13h-.52c-.31,0-.54.21-.52.44a.48.48,0,0,0,.52.4h2.79c-.16,0-.3-.19-.3-.42s.14-.42.3-.42H194s1-1,1-4.13c0-2.33.8-3.63,2.15-3.63C194.7,196.33,193.23,197.63,193.23,200Z" transform="translate(0 -48.76)" opacity="0.75" fill="url(#linear-gradient-23)" style="isolation:isolate"/><path d="M197.14,205.84a2.5,2.5,0,0,0,2-.91h-4.1A2.56,2.56,0,0,0,197.14,205.84Z" transform="translate(0 -48.76)" fill="#ba5b42"/><path d="M197.14,205.84a2.5,2.5,0,0,0,2-.91h-4.1A2.56,2.56,0,0,0,197.14,205.84Z" transform="translate(0 -48.76)" opacity="0.75" fill="url(#linear-gradient-24)" style="isolation:isolate"/><path d="M188.76,200.65c0-6.51,3.75-11.79,8.38-11.79-8.32,0-15.06,5.28-15.06,11.79s6.74,11.78,15.06,11.78C192.51,212.43,188.76,207.16,188.76,200.65Z" transform="translate(0 -48.76)" opacity="0.75" fill="url(#linear-gradient-25)" style="isolation:isolate"/><path d="M98.08,68s-4.29-.56-5.6-.54c-.94,0-.82,1-.75,1.66S94.34,71,96.8,71.41C98.69,71.76,98.37,68.18,98.08,68Z" transform="translate(0 -48.76)" fill="#e1b4a8"/><path d="M110.26,70.38C106,69,95.91,67.06,95.91,67.06a5.05,5.05,0,0,0-1.67,2.33,12.63,12.63,0,0,0-1.07,4.4s7.27,1.84,11.68,3.09c2,.55,2.23.16,4.87-1.93C111.69,73.39,112.61,71.16,110.26,70.38Z" transform="translate(0 -48.76)" fill="url(#linear-gradient-26)"/><path d="M94.79,67.6c-1.1-3.29-7.5-9.72-7.75-11.31-.16-1-2.4-.54-1.84.55.44.85,4.26,8.56,5.44,10.71.84,1.65,1.76,2.5,2.73,2.51C94.06,70.07,94.82,67.88,94.79,67.6Z" transform="translate(0 -48.76)" fill="#e1b4a8"/><path d="M92.06,85.35a3.67,3.67,0,0,0-2.63,6.72,64.59,64.59,0,0,0,13.47,7.3c6,2.09,15.88.41,17.35-7C107.32,89.19,95.51,86.11,92.06,85.35Z" transform="translate(0 -48.76)" fill="url(#linear-gradient-27)"/><path d="M82.32,112s5.3-1.1,5.68-1.19,1.11-.3,1.2.79.15,1.44.15,1.44-6.15,0-6.81,0S81.35,112.63,82.32,112Z" transform="translate(0 -48.76)" fill="#29140f"/><path d="M91.91,85.35c-3.55-.4-5.46.76-5.48,2.27,0,3.43.26,3.45.37,7.6,0,2,0,5.6,0,9l4.13-.09c1.48-4.16,3.83-12.08,4.38-14C96,87.71,95.47,85.74,91.91,85.35Z" transform="translate(0 -48.76)" fill="url(#linear-gradient-28)"/><path d="M87.12,111.34a1.17,1.17,0,0,0,.79.31c.67,0,.78-.31.78-.31a18.82,18.82,0,0,1,1.14-4.86c.18-.4.5-1.21.89-2.38l-3.74.07C87.06,107.92,87.12,111.34,87.12,111.34Z" transform="translate(0 -48.76)" fill="#e1b4a8"/><path d="M128.84,128.08c.16-.33.39-.89,1.55-.26s1.52.86,1.52.86-1.58,1.56-2.84,2.85H127C127.61,130.24,128.75,128.29,128.84,128.08Z" transform="translate(0 -48.76)" fill="#29140f"/><path d="M127.57,131.53c-1.07,0-2,0-2.21,0-.67-.05-1.21-.42-.25-1,0,0,2.4-.56,3-.65Z" transform="translate(0 -48.76)" fill="#29140f"/><path d="M114.19,105.19c-3.23,1.23-4.94,2.22-3.88,3.48,2.41,2.86,3.63,3.55,6.68,7,1.43,1.59,4,4.66,6.4,7.41l3.38-1.87c-1.75-4.1-5.45-11.69-6.35-13.51C119.28,105.35,117.41,104,114.19,105.19Z" transform="translate(0 -48.76)" fill="#3a1d15"/><path d="M128.76,128.85a1.06,1.06,0,0,0,.86-.2c.41-.42.26-.74.26-.74a19.29,19.29,0,0,1-2.35-4.28c-.14-.41-.45-1.22-1-2.37l-3,1.7Z" transform="translate(0 -48.76)" fill="#e1b4a8"/><path d="M108.93,89.63s.13,14.24.8,18c.48,2.72,7.33,3.69,9.09.12s5.68-9.84,5-16.4C123.17,85.78,108.74,85.94,108.93,89.63Z" transform="translate(0 -48.76)" fill="#3a1d15"/><path d="M118.52,70.4c3.92,1.18,4.82,3.48,5,6,.9,11.7.47,12,1,17,0,0-1.42,1.89-8.51,1.89-9,0-9.46-6.42-14.72-7.68.53-1.31.91-3.11,4.71-13.94,1.13-3.2,4.23-3.65,8.83-3.58A12.59,12.59,0,0,1,118.52,70.4Z" transform="translate(0 -48.76)" fill="url(#linear-gradient-29)"/><path d="M110.72,70c-.46,1.27-2,4,2,4.16,4.64.15,6.07-3.52,5.86-4-.48-1-2.37-.61-3.55-.63S111.11,69,110.72,70Z" transform="translate(0 -48.76)" fill="#3a1d15"/><path d="M117.38,70.07,116.7,70a29,29,0,0,0-3.75-.07,9.87,9.87,0,0,0-1.21.1c-.24.83-1.58,3.08,1.39,3.24A3.93,3.93,0,0,0,117.38,70.07Z" transform="translate(0 -48.76)" fill="#e1b4a8"/><path d="M111.61,64.25c-1.36-1.48-.24-5.59,2-5.53,5,.13,4.69,2.42,7,3.24,1.16.42,2.15,1.85.7,4-1,1.52-2.43,2.18-4.61,2.7-.79.18-.16-2-1.86-3.21A6.25,6.25,0,0,0,111.61,64.25Z" transform="translate(0 -48.76)" fill="#3a1d15"/><path d="M116.47,69.9c.41-2.6,0-3.09,0-5.16,0-.07-3.69-.63-3.93-2.29A13,13,0,0,0,111,65.78c-.38,1.5-.21,2.43,1.88,2.28-.33.69-.42,1.56-.73,2.16-.61,1.22.34,1.81,1.12,2A2.55,2.55,0,0,0,116.47,69.9Z" transform="translate(0 -48.76)" fill="#e1b4a8"/><path d="M118.1,65.83c.1.42-.45.85-1.24,1s-1.12-.19-1.22-.6.07-.78.86-.9S118,65.42,118.1,65.83Zm-9.42,5.35s-4.36-.1-5.65,0c-.93.12-.63,1.11-.45,1.72s2.9,1.58,5.42,1.77C109.92,74.87,109,71.35,108.68,71.18Z" transform="translate(0 -48.76)" fill="#e1b4a8"/><path d="M119.54,72c-5.34-.86-12.32-1.43-12.32-1.43a4.44,4.44,0,0,0-1.09,2.36,9.8,9.8,0,0,0-.35,3.92s7.21,1.64,11.37,2.45c2,.4,4.27,0,4.93-2.9A3.64,3.64,0,0,0,119.54,72Z" transform="translate(0 -48.76)" fill="url(#linear-gradient-30)"/><path d="M105.37,56.14c0-4.08-4.22-7.38-9.44-7.38s-9.43,3.3-9.43,7.38,4.22,7.39,9.43,7.39S105.37,60.22,105.37,56.14Z" transform="translate(0 -48.76)" fill="#be6046"/><path d="M103.56,56.14c0-3.29-3.42-6-7.63-6s-7.62,2.67-7.62,6,3.42,6,7.62,6S103.56,59.44,103.56,56.14Z" transform="translate(0 -48.76)" fill="#fff" opacity="0.3" style="isolation:isolate"/><path d="M95.31,59.75v-.82a5.66,5.66,0,0,1-1.9-.38l.35-1a5,5,0,0,0,1.87.39c.65,0,1.1-.2,1.1-.55s-.36-.54-1.2-.77c-1.21-.31-2-.75-2-1.61s.62-1.38,2-1.57v-.88h1v.82a4.71,4.71,0,0,1,1.66.29l-.32,1a4.42,4.42,0,0,0-1.61-.3c-.74,0-1,.24-1,.49s.4.48,1.35.76c1.35.37,1.89.85,1.89,1.65s-.7,1.45-2,1.63v.88Z" transform="translate(0 -48.76)" fill="#733828"/><path d="M91,49.83l.92,1.24.38-.18-.91-1.23Zm.19,1.63L90,50.38l-.34.22,1.17,1.09Zm-2.9,4.68V56H86.5v.35h1.81A1.08,1.08,0,0,0,88.31,56.14Zm1.93-4-1.39-.92-.28.27,1.39.91a3.45,3.45,0,0,1,.28-.26Zm3.83-3.28.32,1.4.44-.06-.31-1.4-.44.06Zm-5.6,6-1.8-.25c0,.11,0,.23-.07.34l1.79.25C88.42,55.16,88.44,55.05,88.47,54.94Zm.38-1-1.7-.49-.15.33,1.71.49C88.75,54.16,88.8,54.05,88.85,53.94Zm.6-.93-1.58-.71-.22.3,1.57.71.23-.3Zm3-3.74.62,1.33.42-.11-.62-1.35-.42.12Zm10.14,4,1.58-.71-.23-.3-1.58.7a3.55,3.55,0,0,1,.23.31Zm.53,1,1.71-.48-.15-.33-1.72.48c.06.11.11.22.16.33Zm.3,1,1.8-.24c0-.12,0-.23-.08-.34l-1.8.24a1.4,1.4,0,0,1,.08.34Zm-1.56-2.83,1.38-.91a3.57,3.57,0,0,0-.28-.27l-1.39.91.29.27ZM97.79,48.9l-.44-.06L97,50.24l.44.06Zm-2.08-.14v1.42h.45V48.76Zm5.13,1.07-.38-.17-.91,1.23.39.17Zm.15,1.85,1.17-1.08-.34-.23-1.17,1.09.35.22Zm-2.66-1.2.42.12.62-1.34L99,49.14Zm3.29,9.63L103,61l.29-.26-1.39-.92-.29.27ZM99.55,61.4l.91,1.23.39-.18-.91-1.23-.38.18Zm1.11-.57,1.16,1.09.34-.23L101,60.6l-.34.22Zm-2.33,1L99,63.15l.42-.11-.62-1.34-.42.11ZM88.39,57l-1.8.25c0,.11,0,.23.08.34l1.8-.25c0-.11,0-.22-.08-.34Zm14,2.27L104,60l.23-.3L102.64,59l-.22.3Zm1-1.93,1.8.25c0-.11.06-.23.08-.34l-1.8-.25a1.86,1.86,0,0,1-.07.34Zm2-1.38h-1.81v.35h1.81V56ZM103,58.35l1.71.49c0-.12.11-.22.15-.33L103.16,58a2.41,2.41,0,0,1-.15.33Zm-6,3.7.31,1.4.44-.06L97.47,62l-.43.06Zm-1.33.06v1.42h.45V62.1H95.7ZM90,59.84l-1.4.91.29.27,1.39-.91L90,59.84ZM88.69,58,87,58.51l.15.33,1.71-.49c-.06-.11-.11-.22-.16-.33Zm2.17,2.58-1.17,1.08.34.23,1.17-1.09a4,4,0,0,1-.34-.23ZM89.21,59l-1.57.71c.07.11.15.21.22.31l1.58-.71L89.23,59ZM91,62.45l.38.18.91-1.23-.38-.18Zm3,.93.45.06.32-1.4a3.11,3.11,0,0,1-.44-.06ZM92.48,63l.42.12.62-1.34-.42-.11Z" transform="translate(0 -48.76)" fill="url(#linear-gradient-31)"/><path d="M95.93,50.18c-4.21,0-7.62,2.67-7.62,6s3.41,6,7.62,6c-2.06,0-3.74-2.67-3.74-6S93.87,50.18,95.93,50.18Z" transform="translate(0 -48.76)" fill="url(#linear-gradient-32)"/><path d="M85.35,54.45c.17-.41,1-1.15,1.41-1,.78.33-.3.77-.37,1.81,0,.66-1.3.94-1.3.94A4.22,4.22,0,0,1,85.35,54.45Z" transform="translate(0 -48.76)" fill="#e1b4a8"/><path d="M87.1,58c-1.31.27-1.83.06-1.92-.92a6.06,6.06,0,0,1-.11-1.86c.24-.78.06-1,2.51-.55C88.77,54.9,88.29,57.74,87.1,58ZM106,72.91c1.06-3.3.07-12.54-.13-14.71-.1-1-1.4-.05-1.59,1.12-.14.9-1.62,8.55-1.91,10.88-.29,1.77-.07,3,.83,3.24C104.46,73.84,105.57,74.14,106,72.91Z" transform="translate(0 -48.76)" fill="#e1b4a8"/><path d="M106.67,57c0-.44-.48-1.35-.91-1.3-.87.11,0,.81-.4,1.8-.24.64.83,1.23.83,1.23A4.39,4.39,0,0,0,106.67,57Z" transform="translate(0 -48.76)" fill="#e1b4a8"/><path d="M103.53,59.87c1.13.59,1.7.53,2.2-.37a6.89,6.89,0,0,0,.88-1.73c.1-.8.39-1-2.14-1.17C103.25,56.52,102.51,59.33,103.53,59.87Z" transform="translate(0 -48.76)" fill="#e1b4a8"/><path d="M213.58,92c.52-.5,1-1.69.55-2-.32-.21-.88.48-1,.77s-1,1.91-1,1.91A4.07,4.07,0,0,0,213.58,92Z" transform="translate(0 -48.76)" fill="#daa597"/><path d="M205.87,101.4c.64-1.64,4.25-7.62,4.73-9.21.22-.75-1-1.74.4-3.78,1.18-1.71,3.16-1.11,2.31-.19-2,2.15,1.71,3.41-.88,4.37a53,53,0,0,0-1.86,5.09l-2.25,6.66s-.74,1.65-2.2,1.21C204.93,105.19,205.39,102.63,205.87,101.4Z" transform="translate(0 -48.76)" fill="#daa597"/><path d="M204.69,108a26.68,26.68,0,0,0,2.93-2.63c.49-.61,0-1.76-.72-2s-3.34.68-5.13,2C200.4,106.36,204.33,108.06,204.69,108Z" transform="translate(0 -48.76)" fill="#d89f90"/><path d="M196.35,112.87a60,60,0,0,0,11-3.76,5.47,5.47,0,0,0-1.71-4.17,4.24,4.24,0,0,0-2.59-1.31,89.61,89.61,0,0,1-9.07,3.1c-1.23.34-4.57,2.27-3.95,4.23C190.82,113.41,192.77,113.73,196.35,112.87Z" transform="translate(0 -48.76)" fill="url(#linear-gradient-33)"/><path d="M178.55,99.78c.41-1.84-5.74-2.75-5.4.48.64,6,1.8,12.33-.53,11.8-1.6-.35-7.2-5-10.56.32-5,7.91,12.32,11.71,16.34,5.86C182,113,177.25,105.64,178.55,99.78Z" transform="translate(0 -48.76)" fill="#3a1d15"/><path d="M180.32,99.82l-2,0c-.34,0-1.12.89-1,2.13s.9,2.1,1.41,2.13,2,0,2,0a2.13,2.13,0,0,0,1.21-2.09A3.22,3.22,0,0,0,180.32,99.82Z" transform="translate(0 -48.76)" fill="url(#linear-gradient-34)"/><path d="M219.89,162.64s-5.48.18-5.88.18-1.17,0-.84,1,.41,1.41.41,1.41,5.89-1.39,6.51-1.59S221.05,163,219.89,162.64Z" transform="translate(0 -48.76)" fill="#29140f"/><path d="M215.2,163.16a1.14,1.14,0,0,1-.72.4c-.67.05-.84-.22-.84-.22a20.23,20.23,0,0,0-2-4.67c-.54-.79-2.08-3.52-3.72-6.5l5.07-1.12C213.82,156.16,215.2,163.16,215.2,163.16Z" transform="translate(0 -48.76)" fill="#d89f90"/><path d="M205.49,138c3.44-.81,5.54.11,5.85,1.6.7,3.39.4,3.44,1.09,7.56.16.95.46,2.58.75,3.91l-5.55,1.36c-2-3.69-4-8-4.61-9.32C201.87,140.83,202.05,138.83,205.49,138Z" transform="translate(0 -48.76)" fill="url(#linear-gradient-35)"/><path d="M200.62,124s9.32,11.66,10.55,15.09c1,2.65-3.73,5.18-7.78,3s-9.56-5.22-12.12-8.23-3.56-5.78-2.28-9S198.1,120.87,200.62,124Z" transform="translate(0 -48.76)" fill="url(#linear-gradient-36)"/><path d="M192.88,125.71s3.32,13.46,3.84,16.17-5.92,4.37-8.67,1.19-6.46-7.59-7.43-11.12-.61-6.41,2.08-9S192,122.08,192.88,125.71Z" transform="translate(0 -48.76)" fill="#3a1d15"/><path d="M185.24,164.22s-5.29-1.11-5.68-1.21-1.1-.31-1.2.79-.15,1.45-.15,1.45,6.15.06,6.82,0S186.21,164.81,185.24,164.22Z" transform="translate(0 -48.76)" fill="#29140f"/><path d="M180.71,163.82a1.38,1.38,0,0,1-.88,0c-.56-.29-.47-.58-.47-.58a20.6,20.6,0,0,0,2.1-4.65c.21-.89,1.17-3.77,2.25-6.9l4.85,1.59C185.19,157.67,180.71,163.82,180.71,163.82Z" transform="translate(0 -48.76)" fill="#d89f90"/><path d="M193.1,139.41c3.33,1,4.25,2.79,3.31,4.1-2.15,3-2.42,2.9-5.16,6.46-.63.82-1.69,2.24-2.52,3.42l-5.42-1.64c1.34-3.88,3.28-8.23,3.79-9.54C188,139.85,189.76,138.37,193.1,139.41Zm-1.83-36.36c.63-.94-.08-2.94-1-3.85-1.19-1.21-2.77-3.15-7.73-1.37-3.4,1.23-5.19,5-.57,8.58C184.67,108.5,190.14,104.74,191.27,103.05Z" transform="translate(0 -48.76)" fill="#3a1d15"/><path d="M195.79,108.73c-.28-1.59-.64-2.3-1.51-2.09a9.06,9.06,0,0,1-2.13.43c-1.36.08-4.32.55-5.59.72-4.39.6-5.71,2-6.59,5.73-1.63,7,.3,17.49.3,17.49s.78,1.32,12.57-.29c8.61-1.18,10.77-3.27,10.77-3.27s-3.55-3.73-4.61-7.09c2.92-.83,2.94-1.75,2.87-3C201.74,115.43,196.74,114.07,195.79,108.73Z" transform="translate(0 -48.76)" fill="url(#linear-gradient-37)"/><path d="M188.64,107.17c-1.93.29-4.24-.2-4.23.88s2.14,4.85,5.4,5.63,5.48-.49,5.06-1.75a23.41,23.41,0,0,0-1.85-3.51c-.51-1-.18-2-1.54-1.84S189.71,107,188.64,107.17Z" transform="translate(0 -48.76)" fill="#3a1d15"/><path d="M190.16,107.3c-1.35.12-2.34.34-3.6.51-.38,0-.73.1-1.06.16.61,1.46,2.73,6,6.94,5,3.21-.73.81-1.29-.74-5.84Z" transform="translate(0 -48.76)" fill="#d89f90"/><path d="M186.16,108.11a31.81,31.81,0,0,1-.34-5.62c0-.07,3.7-1,3.89-2.68a13.4,13.4,0,0,1,1.57,3.24c.4,1.47.26,2.38-1.8,2.26,0,.89.48,1.16.93,1.87a1.46,1.46,0,0,1-.72,2.25C189,109.71,186.55,110.47,186.16,108.11Z" transform="translate(0 -48.76)" fill="#d89f90"/><path d="M186.16,108.11a31.81,31.81,0,0,1-.34-5.62c0-.07,3.7-1,3.89-2.68a13.4,13.4,0,0,1,1.57,3.24c.4,1.47.26,2.38-1.8,2.26,0,.89.61,1.41,1.06,2.11.71,1.15-.17,1.72-.85,2S186.55,110.47,186.16,108.11Z" transform="translate(0 -48.76)" fill="#d89f90"/><path d="M186.88,103a3.14,3.14,0,0,1,.34,1.23c.06.61.1.93.1.93a7.4,7.4,0,0,0,3,.27c1.25-.26,1.64-1,1.47-1.69a4.52,4.52,0,0,0-.9-1.93S190,102.66,186.88,103Z" transform="translate(0 -48.76)" fill="url(#linear-gradient-38)"/><path d="M189.69,103.11a7.56,7.56,0,0,0,1.59-.64l0-.06a8.33,8.33,0,0,1-3.55,1s0,0,0,0,0,0,0,0A7.81,7.81,0,0,0,189.69,103.11Zm1,.41a9,9,0,0,0,.92-.31.25.25,0,0,0,0-.07,9.2,9.2,0,0,1-3.8.67.05.05,0,0,0-.05,0h0s0,0,0,0a9,9,0,0,0,2.91-.36Zm-2.84.8a9.84,9.84,0,0,0,3.95-.24V104a9.87,9.87,0,0,1-3.93.25,0,0,0,0,0-.05,0s0,0,0,0h0Zm.06.45a8.12,8.12,0,0,0,3.29.3l.1-.07a8.31,8.31,0,0,1-3.36-.29,0,0,0,0,0-.06,0h0s0,0,0,0h0Z" transform="translate(0 -48.76)" fill="#faf2f0"/><path d="M187.63,105.18c-1.83-.07-2.6-.54-2.55-1.56a.83.83,0,0,1,.48-.78h0a2,2,0,0,1,1.54.13l-.15.23a1.69,1.69,0,0,0-1.22-.14h0a.62.62,0,0,0-.33.57c0,.72.34,1.22,2.24,1.29Z" transform="translate(0 -48.76)" fill="url(#linear-gradient-39)"/><path d="M184.37,103.53c-.09.41.46.82,1.23.92s1.48-.14,1.56-.55-.46-.82-1.24-.93S184.46,103.12,184.37,103.53Z" transform="translate(0 -48.76)" fill="#d89f90"/><path d="M227.47,120.45c0-.57-.58-1-1.33-1H160c-.76,0-1.35.48-1.34,1h0v21.67c0,.56.58,1,1.34,1h66.19c.75,0,1.35-.48,1.33-1Z" transform="translate(0 -48.76)" fill="#be6046"/><path d="M162,134.31v-6.09c4.42,0,7.92-2.75,7.92-6.2h46.31c0,3.45,3.54,6.2,7.95,6.2v6.09c-4.41,0-7.95,2.78-7.95,6.23H169.87C169.87,137.09,166.37,134.31,162,134.31Z" transform="translate(0 -48.76)" fill="#fff" opacity="0.3" style="isolation:isolate"/><path d="M201.19,131.26c0-3.53-3.65-6.39-8.16-6.39s-8.17,2.86-8.17,6.39,3.66,6.4,8.17,6.4S201.19,134.8,201.19,131.26Z" transform="translate(0 -48.76)" fill="#be6046"/><path d="M174.19,131.26c0-1.39,1.44-2.52,3.22-2.52s3.22,1.13,3.22,2.52-1.45,2.53-3.22,2.53S174.19,132.66,174.19,131.26Zm31.23,0c0-1.39,1.44-2.52,3.22-2.52s3.22,1.13,3.22,2.52-1.44,2.53-3.22,2.53S205.42,132.66,205.42,131.26Zm-38.4,0c0-.61.7-1.09,1.52-1.07s1.44.53,1.42,1.15a1.36,1.36,0,0,1-1.48,1.08C167.66,132.4,167,131.89,167,131.26Zm49.07,0a1.36,1.36,0,0,1,1.52-1.07c.81,0,1.45.53,1.42,1.15a1.34,1.34,0,0,1-1.47,1.08C216.74,132.4,216.08,131.89,216.09,131.26Z" transform="translate(0 -48.76)" fill="#fff" opacity="0.5" style="isolation:isolate"/><path d="M188.43,131.26c0-3.53,2.06-6.39,4.6-6.39-4.52,0-8.17,2.86-8.17,6.39s3.65,6.4,8.17,6.4C190.49,137.66,188.43,134.8,188.43,131.26Z" transform="translate(0 -48.76)" opacity="0.5" fill="url(#linear-gradient-40)" style="isolation:isolate"/><path d="M210.45,131.26c0-1.39-.81-2.52-1.81-2.52,1.78,0,3.22,1.13,3.22,2.52s-1.44,2.53-3.22,2.53C209.64,133.79,210.45,132.66,210.45,131.26Z" transform="translate(0 -48.76)" opacity="0.5" fill="url(#linear-gradient-41)" style="isolation:isolate"/><path d="M179.22,131.26c0-1.39-.81-2.52-1.82-2.52,1.78,0,3.22,1.13,3.22,2.52s-1.44,2.53-3.22,2.53C178.41,133.79,179.22,132.66,179.22,131.26Z" transform="translate(0 -48.76)" opacity="0.5" fill="url(#linear-gradient-42)" style="isolation:isolate"/><path d="M218.38,131.26c0-.63-.37-1.15-.82-1.15.83,0,1.49.56,1.47,1.19a1.38,1.38,0,0,1-1.47,1.12C218,132.42,218.38,131.9,218.38,131.26Z" transform="translate(0 -48.76)" opacity="0.5" fill="url(#linear-gradient-43)" style="isolation:isolate"/><path d="M169.31,131.26c0-.63-.37-1.15-.82-1.15.84,0,1.49.56,1.47,1.19a1.37,1.37,0,0,1-1.47,1.12C168.94,132.42,169.31,131.9,169.31,131.26Z" transform="translate(0 -48.76)" opacity="0.5" fill="url(#linear-gradient-44)" style="isolation:isolate"/><path d="M227.47,127.36V142.1a1.25,1.25,0,0,1-1.34,1.07h-66.2a1.22,1.22,0,0,1-1.32-1.07V127.36Z" transform="translate(0 -48.76)" opacity="0.5" fill="url(#linear-gradient-45)" style="isolation:isolate"/><path d="M225.22,119.4h.9a1.23,1.23,0,0,1,1.35,1v21.66a1.25,1.25,0,0,1-1.35,1.07h-.9a1.23,1.23,0,0,0,1.32-1.07V120.43C226.55,119.87,226,119.41,225.22,119.4Z" transform="translate(0 -48.76)" opacity="0.5" fill="url(#linear-gradient-46)" style="isolation:isolate"/><path d="M192.29,135.5v-1a7.21,7.21,0,0,1-2.22-.44l.41-1.21a5.73,5.73,0,0,0,2.2.45c.74,0,1.26-.22,1.26-.64s-.42-.64-1.39-.89c-1.41-.37-2.33-.89-2.33-1.89s.72-1.62,2.26-1.83v-1h1.16v1a6,6,0,0,1,1.94.34l-.37,1.17a5.28,5.28,0,0,0-1.89-.35c-.86,0-1.13.29-1.13.57s.46.56,1.58.89c1.57.43,2.21,1,2.21,1.93s-.8,1.7-2.34,1.91v1Z" transform="translate(0 -48.76)" fill="#733828"/><path d="M177,121a34.48,34.48,0,0,1-4,1.47,2.32,2.32,0,0,1-2.32-1.11c-.16-.6,1.78-2.33,3.92-3.29C176.24,117.34,177.23,120.77,177,121Z" transform="translate(0 -48.76)" fill="#d89f90"/><path d="M183.41,117.88c-4.74,3.86-6,4.92-6,4.92a8.75,8.75,0,0,1-4.38-1.9c-1.41-1.22-.88-2.31-.88-2.31s8.66-9.24,9.88-9.21C182.92,109.4,186.29,115.54,183.41,117.88Z" transform="translate(0 -48.76)" fill="url(#linear-gradient-47)"/><path d="M179.56,125.5l-6.31-4.44s-1.37-1.36-2.25-.4c-.72.79-.53,1.94,2.26,3.78,1.61,1.07,8.62,4.35,10,5.47h0l1.15-1.12C182.88,127.91,179.56,125.5,179.56,125.5Z" transform="translate(0 -48.76)" fill="#d89f90"/><path d="M184.4,127.19c1.15-.25,2.49,0,2.52.24.07.54-1.15.29-1.38.72s-2.38-.12-2.38-.12A3.13,3.13,0,0,1,184.4,127.19Z" transform="translate(0 -48.76)" fill="#d89f90"/><path d="M185.7,128c-1,.15-.93-1.61-2.65.19H183l0,1.44a3.38,3.38,0,0,0,4.21,1.42C187.82,130.65,188.25,127.55,185.7,128Z" transform="translate(0 -48.76)" fill="#d89f90"/></g></svg>