<svg id="SvgjsSvg1719" width="360" height="360" xmlns="http://www.w3.org/2000/svg" version="1.1" xmlnsXlink="http://www.w3.org/1999/xlink"><g id="SvgjsG1821" fill="#cc8673" transform="matrix(0.9167,0,0,0.9167,14.994,14.994)"><circle id="SvgjsCircle1822" r="180" cx="180" cy="180"></circle><rect id="SvgjsRect1823" width="202" height="202" x="158" y="158" rx="22" ry="22"></rect></g><defs id="SvgjsDefs1720"></defs><g id="SvgjsG1721" transform="matrix(0.74,0,0,0.74,47.10797737121581,46.53429702758788)"><svg xmlns="http://www.w3.org/2000/svg" enable-background="new 0 0 3100 3000" viewBox="0 0 3100 3000" width="360" height="360"><g transform="translate(-1255 -315)" fill="#000000" class="color000 svgShape"><ellipse cx="2437.5" cy="3092.7" fill="#abcad9" rx="525.2" ry="76.7" class="colorc39de8 svgShape"></ellipse><rect width="70.8" height="660.9" x="2278.2" y="2355" fill="#3c6d87" class="color27479c svgShape"></rect><path fill="#447b98" d="M2018.5,2213.4h684.5c39.1,0,70.8,31.7,70.8,70.8v47.2c0,39.1-31.7,70.8-70.8,70.8
			h-684.5c-39.1,0-70.8-31.7-70.8-70.8v-47.2C1947.7,2245.1,1979.4,2213.4,2018.5,2213.4z" class="color167cc6 svgShape"></path><path fill="#ffffff" d="M1988.2,2220.7c0,0,134.8,81.7,135,125.4c-1.4,43.6-22.7,47.1-45,55.3
			c-43.5,0.8-118.2,13.7-127.9-50c-4.6-32.4-9.3-83.1,7.5-104.4C1974,2222.7,1988.2,2220.7,1988.2,2220.7z" enable-background="new" opacity=".2" class="colorfff svgShape"></path><rect width="554.7" height="59" x="2030.3" y="2980.5" fill="#3c6c85" class="color24469d svgShape"></rect><path fill="#c2d8e3" d="M2810.5,1055.7c0,0-2.1,175.1,0,235.9c-2.1,118.6-141,81-155.5,55v118.6c0,0-138.9,73.8-193.9-11.6
			c-55-85.4-27.5-114.3-27.5-130.2s60.8,13,118.6-31.9c57.9-44.8,21.7-149,28.9-199.7s13-82.5,104.2-83.9
			C2776.6,1006.4,2810.5,1055.7,2810.5,1055.7z" class="colorffd0a6 svgShape"></path><path fill="#457c99" d="M2489.5,1312.8c0,0-33.9-56.4-182.4-45.1c-148.6,11.3-248.3,135.4-295.3,184.3
			s-158.4,140.5-156.1,238.9c-2.3,91.2,11.3,265.2,56.4,285.9c35.7,24.5,1.9-88.4,43.3-139.2c35.1-41.7,88.8-62.9,143-56.4
			c37.6,5.6-37.6,148.6,63.9,182.5s229.5,35.7,257.7,0s126-127.9,161.8-182.5c28.2,60.2,84.6,127.9,150.5,141.1
			c65.8,13.2,218.2,18.8,233.2,0c15.1-18.8,103.5-116.6,110.9-152.4c7.5-35.7-122.2,47-244.5,32c-122.3-18.8-37.6-248.3-63.9-295.3
			c-35.7-60.2-83.5-80-117.4-81.9C2578.1,1420.3,2507.2,1429,2489.5,1312.8" class="color1f5ebf svgShape"></path><path fill="#b0ccdb" d="M2645.6,2798.7c0,0-30.1,54.6-33.9,101.6s3.8,79,33.9,75.2c67.7-11.3,67.7-159.9,90.3-195.6
			C2745.3,2761.1,2645.6,2798.7,2645.6,2798.7z" class="colorf2c399 svgShape"></path><path fill="#c2d8e3" d="M2502.6,2890.9c0,0,50.9,149.3,97.5,129.3c95.3-33.5-14.7-213.9-14.7-213.9L2502.6,2890.9z" class="colorffd0a6 svgShape"></path><path fill="#335c71" d="M1961.4,1976.5c0,0-31.8,155.8,44.5,219.3c90.2,84.2,265.5,160.2,306.9,249.2
			s116,450.1,208.2,491.4s95.4-44.5,89-111.3c0-28.6-114.5-457.7-165.3-530.9c-111.2-158.9,193.9,47.7,235.2,130.3
			c41.3,82.7,12.7,257.5-44.5,381.5c-22.2,44.5,66.8,50.9,89,38.1c22.3-12.7,168.5-308.3,162.1-448.2
			c-12.7-190.7-289.3-254.3-416.4-365.6C2428.7,1976.5,1961.4,1976.5,1961.4,1976.5z" class="color543173 svgShape"></path><path fill="#366279" d="M2582.6,3021.3c0,0,55.6-1.1,56.8-86.8c67.9-20.1,178.1,80.1,162.5,179.2
			C2793,3163.8,2667.2,3144.8,2582.6,3021.3" class="color5c347b svgShape"></path><path fill="none" stroke="#37647b" stroke-width="1.5" d="M2066.3,1615.6c-24.1,17.8-36.4,47.5-32,77.1c7.5,50.8,20.7,80.9,148.6,127.9" class="colorStroke184b9b svgStroke"></path><path fill="none" stroke="#457d9b" d="M1927.1,1159.9" class="colorStroke707070 svgStroke"></path><path fill="#437995" d="M2509.6,1041c0,0-26.9,95.4,95.4,173.6c50.7,32.7,32-116.3,32-116.3s230.7,36.9,248-47
			c14.5-76.7-38.2-123.2-70.5-129.1c-78.4-15.8-86.3,33.6-104.7,33.6c-21.1-0.7-24.7-25.7-83.6-25.7
			C2567.2,930.2,2518.1,992.1,2509.6,1041" class="color1f53b9 svgShape"></path><path fill="#c2d8e3" d="M1932.3,1942.5c-8.6-113.9,59.9-159.2,129.3-161.9c70.2-7.6,70.1,36,162.7,28.8
			c92.6-7.2,177.4-54.8,258.4-50.5c111.4,5.8,159.1,115.7,124.4,140.3c-34.7,24.6-94-63.7-140.3-72.3
			c-79.6-15.9-249.1,112.6-285.3,115.7C2145.3,1945.6,1932.3,1942.5,1932.3,1942.5z" class="colorffd0a6 svgShape"></path><g fill="#000000" class="color000 svgShape"><path fill="#457d9b" d="M3104.4,773.5h578.3c26.1,0,47.2,21.1,47.2,47.2v236.1c0,26.1-21.1,47.2-47.2,47.2
			h-578.3c-26.1,0-47.2-21.1-47.2-47.2V820.7C3057.2,794.6,3078.3,773.5,3104.4,773.5z" class="color7439a7 svgShape"></path><path fill="#457d9b" d="M3322.5,1096.9l76,101.4l69.4-101.4H3322.5z" class="color7439a7 svgShape"></path><path fill="#ffffff" d="M3139.8 820.7h531.1c6.5 0 11.8 5.3 11.8 11.8v0c0 6.5-5.3 11.8-11.8 11.8h-531.1c-6.5 0-11.8-5.3-11.8-11.8v0C3128 826 3133.3 820.7 3139.8 820.7zM3139.8 856.1h247.9c6.5 0 11.8 5.3 11.8 11.8l0 0c0 6.5-5.3 11.8-11.8 11.8h-247.9c-6.5 0-11.8-5.3-11.8-11.8l0 0C3128 861.4 3133.3 856.1 3139.8 856.1zM3139.8 926.9h318.7c6.5 0 11.8 5.3 11.8 11.8l0 0c0 6.5-5.3 11.8-11.8 11.8h-318.7c-6.5 0-11.8-5.3-11.8-11.8l0 0C3128 932.2 3133.3 926.9 3139.8 926.9zM3139.8 962.3h247.9c6.5 0 11.8 5.3 11.8 11.8l0 0c0 6.5-5.3 11.8-11.8 11.8h-247.9c-6.5 0-11.8-5.3-11.8-11.8l0 0C3128 967.6 3133.3 962.3 3139.8 962.3zM3139.8 997.7h460.3c6.5 0 11.8 5.3 11.8 11.8v0c0 6.5-5.3 11.8-11.8 11.8h-460.3c-6.5 0-11.8-5.3-11.8-11.8v0C3128 1003 3133.3 997.7 3139.8 997.7zM3139.8 1033.1h436.7c6.5 0 11.8 5.3 11.8 11.8l0 0c0 6.5-5.3 11.8-11.8 11.8h-436.7c-6.5 0-11.8-5.3-11.8-11.8l0 0C3128 1038.4 3133.3 1033.1 3139.8 1033.1zM3139.8 891.5h519.3c6.5 0 11.8 5.3 11.8 11.8l0 0c0 6.5-5.3 11.8-11.8 11.8h-519.3c-6.5 0-11.8-5.3-11.8-11.8l0 0C3128 896.8 3133.3 891.5 3139.8 891.5z" enable-background="new" opacity=".2" class="colorfff svgShape"></path></g><g fill="#000000" class="color000 svgShape"><path fill="#3e718b" d="M2540.2,1935.2v-28.6h340.1l216.2-457.8h562.6l-206.6,486.4H2540.2z" class="color693693 svgShape"></path><circle cx="3305" cy="1682.3" r="59" fill="#ffffff" enable-background="new" opacity=".4" class="colorfff svgShape"></circle><path fill="#325a6e" d="M2896.1,1873.3c0,0,343.5-367.2,737.7-367.2c44.5-89,22.2-50.9,22.2-50.9h-559.4
			L2896.1,1873.3z" class="color51326e svgShape"></path></g><g fill="#000000" class="color000 svgShape"><rect width="2266.1" height="118" x="1393" y="1941.9" fill="#437995" class="color166ac2 svgShape"></rect><path fill="#88b3ca" d="M1475.6,2059.9h94.4l0,0v1062.2c0,26.1-21.1,47.2-47.2,47.2l0,0
				c-26.1,0-47.2-21.1-47.2-47.2V2059.9L1475.6,2059.9z" class="colorf67e5c svgShape"></path><path fill="#4f8eaf" d="M1534.6,2059.9h23.6l0,0v1085.8c0,13-10.6,23.6-23.6,23.6l0,0l0,0V2059.9
				L1534.6,2059.9z" class="colorb86346 svgShape"></path><g transform="translate(171)" fill="#000000" class="color000 svgShape"><path fill="#88b3ca" d="M3322.9,2059.9h94.4l0,0v1062.2c0,26.1-21.1,47.2-47.2,47.2l0,0
				c-26.1,0-47.2-21.1-47.2-47.2V2059.9L3322.9,2059.9z" class="colorf67e5c svgShape"></path><path fill="#4f8eaf" d="M3381.9,2059.9h23.6l0,0v1085.8c0,13-10.6,23.6-23.6,23.6l0,0l0,0V2059.9
				L3381.9,2059.9z" class="colorb86346 svgShape"></path></g><rect width="2266.1" height="23.6" x="1393" y="2036.3" fill="#335d73" class="color125194 svgShape"></rect></g><g fill="#000000" class="color000 svgShape"><path fill="#457d9b" d="M1959.5,950.5H2349c26.1,0,47.2,21.1,47.2,47.2v129.8c0,26.1-21.1,47.2-47.2,47.2
			h-389.5c-26.1,0-47.2-21.1-47.2-47.2V997.7C1912.3,971.6,1933.4,950.5,1959.5,950.5z" class="color7439a7 svgShape"></path><path fill="#457d9b" d="M2106.8,1167.7l48.8,65.1l44.5-65.1H2106.8z" class="color7439a7 svgShape"></path><path fill="#ffffff" d="M2037 1090.5c-9.7-9.5-14.6-21.6-14.6-36.3 0-14.6 4.9-26.7 14.7-36.3 9.8-9.5 21.7-14.3 35.9-14.3 10.8 0 20.3 2.7 28.7 8.2 8.4 5.5 14.3 13.2 17.9 23.1h-23.9c-4.4-8.7-12-13-22.7-13-9 0-16.3 3-21.9 8.9-5.6 5.9-8.4 13.7-8.4 23.5s2.8 17.6 8.4 23.5c5.6 5.9 12.9 8.9 21.9 8.9 10.6 0 18.1-4.3 22.7-13h23.9c-3.6 9.9-9.6 17.6-17.9 23-8.4 5.4-17.9 8.1-28.7 8.1C2058.7 1104.8 2046.7 1100 2037 1090.5zM2168.9 1019.7c-4 0-7.2 1-9.7 3-2.5 2-3.8 4.8-3.8 8.4 0 3.6.9 6.4 2.8 8.4 1.8 2 4.3 3.6 7.3 4.7 3 1.1 6.3 2.1 9.9 2.9 3.6.8 7.2 1.9 10.8 3.1 3.6 1.2 6.9 2.7 9.9 4.5 3 1.8 5.5 4.4 7.3 7.9 1.8 3.4 2.8 7.6 2.8 12.5 0 8.1-3.2 15.1-9.7 21-6.5 5.9-15.1 8.8-25.8 8.8-10.7 0-19.4-2.5-26-7.6-6.6-5-9.9-12.2-9.9-21.3h21.2c.8 8.7 5.7 13 14.9 13 4.5 0 8.1-1.2 10.8-3.5 2.6-2.4 4-5.5 4-9.4 0-3.9-1.7-7-5.2-9.3-3.5-2.3-7.7-4-12.7-5.1-5-1.1-9.9-2.5-14.9-4.1-5-1.6-9.3-4.4-12.7-8.4-3.5-4-5.2-9.3-5.2-15.9 0-9 3.3-16.1 9.8-21.5 6.5-5.4 14.9-8.1 25.1-8.1 10.2 0 18.5 2.3 24.7 7 6.2 4.7 9.6 11.8 10.2 21.3h-21.8c-.4-3.8-1.8-6.8-4.2-9C2176.1 1020.8 2172.8 1019.7 2168.9 1019.7zM2257.3 1019.7c-4 0-7.2 1-9.7 3-2.5 2-3.8 4.8-3.8 8.4 0 3.6.9 6.4 2.8 8.4 1.8 2 4.3 3.6 7.3 4.7 3 1.1 6.3 2.1 9.9 2.9 3.6.8 7.2 1.9 10.8 3.1 3.6 1.2 6.9 2.7 9.9 4.5 3 1.8 5.5 4.4 7.3 7.9 1.8 3.4 2.8 7.6 2.8 12.5 0 8.1-3.2 15.1-9.7 21-6.5 5.9-15.1 8.8-25.8 8.8-10.7 0-19.4-2.5-26-7.6-6.6-5-9.9-12.2-9.9-21.3h21.2c.8 8.7 5.7 13 14.9 13 4.5 0 8.1-1.2 10.8-3.5 2.6-2.4 4-5.5 4-9.4 0-3.9-1.7-7-5.2-9.3-3.5-2.3-7.7-4-12.7-5.1-5-1.1-9.9-2.5-14.9-4.1-5-1.6-9.3-4.4-12.7-8.4-3.5-4-5.2-9.3-5.2-15.9 0-9 3.3-16.1 9.8-21.5 6.5-5.4 14.9-8.1 25.1-8.1 10.2 0 18.5 2.3 24.7 7 6.2 4.7 9.6 11.8 10.2 21.3h-21.8c-.4-3.8-1.8-6.8-4.2-9C2264.4 1020.8 2261.2 1019.7 2257.3 1019.7z" class="colorfff svgShape"></path></g><g fill="#000000" class="color000 svgShape"><circle cx="3783" cy="1263.3" r="135.7" fill="#457d9a" class="color723aa5 svgShape"></circle><path fill="#ffffff" d="M3839.4,1245.7h-19.9l-4.5,21.3h16.4v16.2h-19.9l-4.5,21.4h-17.1l4.5-21.4h-23.8l-4.5,21.4h-17.1l4.5-21.4
				h-19.9v-16.2h23.4l4.5-21.3h-19.9v-16.2h23.4l4.4-20.9h17.1l-4.4,20.9h23.8l4.4-20.9h17.1l-4.4,20.9h16.4V1245.7z M3797.9,1266.9
				l4.5-21.3h-23.8l-4.5,21.3H3797.9z" class="colorfff svgShape"></path></g><g fill="#000000" class="color000 svgShape"><rect width="224.2" height="35.4" x="3623.7" y="537.4" fill="#3f718b" class="color683793 svgShape"></rect><rect width="224.2" height="35.4" x="3623.7" y="537.4" fill="#3f718b" transform="rotate(-48 3736.046 555.143)" class="color683793 svgShape"></rect><rect width="35.4" height="224.2" x="3718.1" y="443" fill="#3f718b" transform="rotate(-42 3735.97 555.167)" class="color683793 svgShape"></rect><rect width="35.4" height="224.2" x="3718.1" y="443" fill="#3f718b" class="color683793 svgShape"></rect><g fill="#000000" class="color000 svgShape"><circle cx="3735.8" cy="555.1" r="88.5" fill="#3f718b" class="color683793 svgShape"></circle><g transform="translate(1449 320)" fill="#000000" class="color000 svgShape"><circle cx="2286.8" cy="235.1" r="53.1" fill="#3f718b" class="color683793 svgShape"></circle><circle cx="2286.8" cy="235.1" r="47.2" fill="none" stroke="#ffffff" stroke-width="6" class="colorStrokefff svgStroke"></circle></g></g></g><g transform="translate(22 11)" fill="#000000" class="color000 svgShape"><g transform="translate(1444 315)" fill="#000000" class="color000 svgShape"><rect width="354.1" height="59" x="2417.3" y="388.5" fill="#3f718b" class="color683793 svgShape"></rect><rect width="349.6" height="55.2" x="2417.3" y="394" fill="#3f718b" transform="rotate(-48 2592.317 421.66)" class="color683793 svgShape"></rect><rect width="55.2" height="349.6" x="2564.5" y="246.8" fill="#3f718b" transform="rotate(-42 2592.26 421.666)" class="color683793 svgShape"></rect><rect width="59" height="354.1" x="2559" y="246.8" fill="#3f718b" class="color683793 svgShape"></rect></g><g transform="translate(1447.118 318.118)" fill="#000000" class="color000 svgShape"><circle cx="2591.3" cy="420.7" r="141.6" fill="#3f718b" class="color683793 svgShape"></circle><g transform="translate(4.882 4.882)" fill="#000000" class="color000 svgShape"><circle cx="2586.4" cy="415.9" r="82.6" fill="#3f718b" class="color683793 svgShape"></circle><circle cx="2586.4" cy="415.9" r="76.7" fill="none" stroke="#ffffff" stroke-width="6" class="colorStrokefff svgStroke"></circle></g></g></g><g fill="#000000" class="color000 svgShape"><path fill="#3e718b" d="M1645,1738.6c-1.5-21.7-102.7-98.4,7.2-99.8s-65.1-128.8-65.1-128.8s39.1,60.8,7.2,79.6
			c-31.8,18.8-89.7,11.6-72.3,56.4c17.4,44.8,108.5,85.4,115.7,114.3S1645,1770.1,1645,1738.6z" enable-background="new" opacity=".2" class="color693693 svgShape"></path><g transform="translate(1278 429)" fill="#000000" class="color000 svgShape"><path fill="none" d="M386.5,1359.5h82.6c13,0,23.6,10.6,23.6,23.6v47.2c0,13-10.6,23.6-23.6,23.6h-82.6l0,0V1359.5L386.5,1359.5
				z"></path><path fill="none" stroke="#78a9c3" d="M398.3,1365.4h70.8c9.8,0,17.7,7.9,17.7,17.7v47.2c0,9.8-7.9,17.7-17.7,17.7h-70.8c-3.3,0-5.9-2.6-5.9-5.9
				v-70.8C392.4,1368,395,1365.4,398.3,1365.4z" class="colorStroke5a98e1 svgStroke"></path></g><path fill="#78a9c3" d="M1534.6,1729.5h188.8l0,0v188.8c0,13-10.6,23.6-23.6,23.6h-141.6
			c-13,0-23.6-10.6-23.6-23.6V1729.5L1534.6,1729.5z" class="color5a98e1 svgShape"></path></g><g fill="#000000" class="color000 svgShape"><circle cx="2968.6" cy="637.7" r="123.9" fill="#437894" class="color71389f svgShape"></circle><path fill="#ffffff" d="M2907.8 637l25.8 26.4h-20.9L2887 637l25.7-26.4h20.9L2907.8 637zM2950.8 700.4l31.9-133.1h16.2l-31.9 133.1H2950.8zM3014.4 663.5l25.7-26.4-25.7-26.4h20.8l25.7 26.4-25.7 26.4H3014.4z" class="colorfff svgShape"></path></g><g transform="translate(291.183 -1360.437)" fill="#000000" class="color000 svgShape"><g transform="translate(1157.237 1826.709)" fill="#000000" class="color000 svgShape"><path fill="#88b3ca" d="M2309.1,2099.8c0,0-27.1,29.9-81.7-31.9c0,0,71-14,83.3,27.7L2309.1,2099.8z" class="colorf67e5c svgShape"></path><path fill="#88b3ca" d="M2312.1,2095.6c0,0,40.4,0.4,32.2-81.5c0,0-58.5,42.5-36.3,79.9L2312.1,2095.6z" class="colorf67e5c svgShape"></path><path fill="#abc9d9" d="M2475.2,1902.1c0,0-37,16.1-61.3-62.7c0,0,70.4,16.5,64.5,59.6L2475.2,1902.1z" class="colorf193bd svgShape"></path><path fill="#abc9d9" d="M2482.1 1897c0 0 36.6 17.1 63-61 0 0-70.8 14.6-66.1 57.8L2482.1 1897zM2474.3 1968.5c0 0-39.4 17.1-65.2-66.6 0 0 74.9 17.5 68.5 63.3L2474.3 1968.5z" class="colorf193bd svgShape"></path><path fill="#abc9d9" d="M2481.5 1963c0 0 38.9 18.1 66.9-64.9 0 0-75.3 15.5-70.2 61.5L2481.5 1963zM2473 2043.9c0 0-43.6 18.9-72.1-73.7 0 0 82.9 19.4 75.8 70L2473 2043.9z" class="colorf193bd svgShape"></path><path fill="#abc9d9" d="M2481 2037.8c0 0 43.1 20.1 74-71.7 0 0-83.3 17.1-77.7 68L2481 2037.8zM2473 2123.3c0 0-43.7 18.9-72.2-73.9 0 0 83 19.4 76 70.2L2473 2123.3z" class="colorf193bd svgShape"></path><path fill="#abc9d9" d="M2481 2117.3c0 0 43.2 20.1 74.2-71.9 0 0-83.5 17.2-77.9 68.1L2481 2117.3zM2466.1 2182.6c0 0-31.4 13.6-51.9-53.1 0 0 59.6 14 54.6 50.4L2466.1 2182.6z" class="colorf193bd svgShape"></path><path fill="#abc9d9" d="M2472.2 2180.2c0 0 28.8 18.4 59.7-44.1 0 0-61.1 4.3-62 41.1L2472.2 2180.2zM2468.3 2231c0 0 23.7 15.1 49-36.2 0 0-50.2 3.5-50.9 33.8L2468.3 2231z" class="colorf193bd svgShape"></path><path fill="#abc9d9" d="M2467.3,2231c0,0-23.7,15.1-49-36.2c0,0,50.2,3.5,50.9,33.8L2467.3,2231z" class="colorf193bd svgShape"></path><path fill="#88b3ca" d="M2337.4,2163.2c0,0-31.2,34.4-93.9-36.6c0,0,81.5-16.1,95.7,31.9L2337.4,2163.2z" class="colorf67e5c svgShape"></path><path fill="#88b3ca" d="M2340.8 2158.3c0 0 46.4.5 37-93.7 0 0-67.3 48.8-41.8 91.8L2340.8 2158.3zM2362.4 2231.2c0 0-34.9 38.4-104.9-40.9 0 0 91.1-18 107 35.6L2362.4 2231.2z" class="colorf67e5c svgShape"></path><path fill="#88b3ca" d="M2366.3 2225.8c0 0 51.9.6 41.4-104.7 0 0-75.2 54.6-46.7 102.7L2366.3 2225.8zM2384.4 2310.1c0 0-37.8 35.5-101.3-49.1 0 0 92.3-10.7 103.9 43.9L2384.4 2310.1z" class="colorf67e5c svgShape"></path><path fill="#88b3ca" d="M2388.7,2305c0,0,51.7,4.7,49.6-101.1c0,0-79.3,48.5-54.7,98.6L2388.7,2305z" class="colorf67e5c svgShape"></path><g transform="translate(22.986 18.992)" fill="#000000" class="color000 svgShape"><path fill="#457c99" d="M2600.4,2095.7c0,0,28.3,28.8,80.3-35.2c0,0-71.5-11-82,31.2L2600.4,2095.7z" class="color1f5ebf svgShape"></path><path fill="#457c99" d="M2597.2 2091.6c0 0-40.3 2.1-35.6-80.1 0 0 60.3 40 39.7 78.3L2597.2 2091.6zM2574.8 2160.1c0 0 32.6 33 92.2-40.5 0 0-82.1-12.7-94.3 35.8L2574.8 2160.1z" class="color1f5ebf svgShape"></path><path fill="#457c99" d="M2571.1 2155.3c0 0-46.4 2.5-40.9-92.1 0 0 69.3 46 45.6 90L2571.1 2155.3zM2552.7 2229.2c0 0 36.5 36.9 103.1-45.3 0 0-91.8-14.2-105.4 40L2552.7 2229.2z" class="color1f5ebf svgShape"></path><path fill="#457c99" d="M2548.6 2223.9c0 0-51.8 2.8-45.7-102.9 0 0 77.4 51.4 51 100.6L2548.6 2223.9zM2534 2308.9c0 0 39.3 33.9 99.2-53.3 0 0-92.7-6.8-101.9 48.2L2534 2308.9z" class="color1f5ebf svgShape"></path><path fill="#457c99" d="M2529.5 2304c0 0-51.4 6.8-53.7-99 0 0 81.2 45.1 58.8 96.2L2529.5 2304zM2614.7 2044.5c0 0-26.4-30.6 41.6-77.2 0 0 5.3 72.1-37.7 79.3L2614.7 2044.5z" class="color1f5ebf svgShape"></path><path fill="none" stroke="#0b1317" stroke-miterlimit="10" stroke-width="4" d="M2507.7,2422.7c0,0,14.5-155.8,111.8-380.2" class="colorStroke002 svgStroke"></path></g><path fill="none" stroke="#0b1317" stroke-miterlimit="10" stroke-width="4" d="M2451.8,2429.7c0,0,39.6-453.8,22.9-583.6" class="colorStroke002 svgStroke"></path><path fill="#abc9d9" d="M2475.4,1849.2c0,0,35.9-18.5-9.7-87.1c0,0-31.9,64.9,5.3,87.6L2475.4,1849.2z" class="colorf193bd svgShape"></path><path fill="none" stroke="#0b1317" stroke-miterlimit="10" stroke-width="4" d="M2415.4,2422.7c0,0-21.1-155-127.7-375.1" class="colorStroke002 svgStroke"></path><path fill="#3e718b" d="M2616.1,2694.4c0,3.7-3,6.7-6.6,6.7c0,0,0,0,0,0h-261.3c-3.7,0-6.6-3-6.6-6.7l-13.3-316.2
				c0-3.7,3-6.7,6.7-6.7h288c3.7,0,6.7,3,6.7,6.7L2616.1,2694.4z" class="color693693 svgShape"></path></g></g></g></svg></g></svg>