<?xml version="1.0" encoding="utf-8"?>
<!-- Generator: Adobe Illustrator 19.0.0, SVG Export Plug-In . SVG Version: 6.00 Build 0)  -->
<svg version="1.1" id="Layer_1" xmlns="http://www.w3.org/2000/svg" xmlns:xlink="http://www.w3.org/1999/xlink" x="0px" y="0px"
	 viewBox="0 0 500 500" style="enable-background:new 0 0 500 500;" xml:space="preserve">
<style type="text/css">
	.st0{fill:url(#base_x27_s_outline_1_);}
	.st1{fill:url(#base_1_);}
	.st2{filter:url(#Adobe_OpacityMaskFilter);}
	.st3{fill:url(#XMLID_49_);}
	.st4{fill:url(#XMLID_50_);}
	.st5{fill:url(#SVGID_1_);}
	.st6{opacity:0.8;mask:url(#SHINING_3_);fill:#FFFFFF;enable-background:new    ;}
	.st7{fill:url(#XMLID_51_);}
	.st8{fill:url(#SVGID_2_);}
	.st9{filter:url(#Adobe_OpacityMaskFilter_1_);}
	.st10{filter:url(#Adobe_OpacityMaskFilter_2_);}
	.st11{mask:url(#XMLID_52_);fill:url(#XMLID_53_);}
	.st12{opacity:0.8;fill:url(#XMLID_54_);enable-background:new    ;}
	.st13{fill:url(#XMLID_55_);}
</style>
<g id="_x3C_Grupo_x3E___x2F__BODY">
	
		<linearGradient id="base_x27_s_outline_1_" gradientUnits="userSpaceOnUse" x1="336.8189" y1="284.4693" x2="336.8189" y2="186.6329" gradientTransform="matrix(1 0 0 -1 0 502)">
		<stop  offset="0" style="stop-color:#666666"/>
		<stop  offset="0.5" style="stop-color:#CCCCCC"/>
		<stop  offset="0.5897" style="stop-color:#C0C0C0"/>
		<stop  offset="0.75" style="stop-color:#A2A2A2"/>
		<stop  offset="0.9613" style="stop-color:#707070"/>
		<stop  offset="1" style="stop-color:#666666"/>
	</linearGradient>
	<path id="base_x27_s_outline" class="st0" d="M396,315.4c-9.3,0-19.8-2.5-25.5-6l-0.8-0.5l0.2-0.9l3.8-13.9l0.4-1.5l1.4,0.8
		c4.7,2.8,12.8,5.7,21.6,5.7c9.6,0,15.4-4.2,15.4-11.3c0-6.2-4.2-10-15.4-14.1c-17.3-6.2-25.7-15.3-25.7-27.8
		c0-16.3,13.9-27.6,33.7-27.6c10.9,0,18.2,2.6,22.5,4.8l0.9,0.5l-0.3,1l-3.9,13.5l-0.4,1.4l-1.3-0.7c-3.7-1.9-9.8-4.2-17.8-4.2
		c-10.3,0-13.9,5.3-13.9,9.8c0,6.4,5,9.4,16.8,14c16.8,6.3,24.3,15.1,24.3,28.3C431.9,299.8,422.5,315.4,396,315.4L396,315.4z
		 M316.9,315.4c-25.6,0-43.5-19.7-43.5-47.9c0-29.1,18.5-49.4,44.9-49.4c26.1,0,43.7,19.2,43.7,47.8
		C362,295.9,344.3,315.4,316.9,315.4L316.9,315.4z M317.8,234c-14.7,0-24.2,13-24.2,33.1c0,19.4,9.7,32.4,24.2,32.4
		c14.4,0,24.1-13.3,24.1-33.1C341.9,250.8,334.3,234,317.8,234L317.8,234z M261.8,313.9h-1.2h-16.7h-1.2v-1.2v-66.3v-1.2h1.2h16.7
		h1.2v1.2v66.3V313.9L261.8,313.9z M252.2,238.1c-6,0-10.5-4.4-10.5-10.2c0-6,4.5-10.3,10.6-10.3c6.1,0,10.4,4.2,10.6,10.3
		C262.9,233.8,258.4,238.1,252.2,238.1L252.2,238.1z"/>
	
		<linearGradient id="base_1_" gradientUnits="userSpaceOnUse" x1="336.8162" y1="187.8417" x2="336.8162" y2="283.2599" gradientTransform="matrix(1 0 0 -1 0 502)">
		<stop  offset="5.000000e-002" style="stop-color:#CCCCCC"/>
		<stop  offset="6.140000e-002" style="stop-color:#C4C4C4"/>
		<stop  offset="0.1294" style="stop-color:#9C9C9C"/>
		<stop  offset="0.2016" style="stop-color:#797979"/>
		<stop  offset="0.2777" style="stop-color:#5D5D5D"/>
		<stop  offset="0.3588" style="stop-color:#474747"/>
		<stop  offset="0.4476" style="stop-color:#373737"/>
		<stop  offset="0.5495" style="stop-color:#2E2E2E"/>
		<stop  offset="0.6946" style="stop-color:#2B2B2B"/>
	</linearGradient>
	<path id="base" class="st1" d="M252.3,218.7c-5.6,0-9.4,3.9-9.4,9.1c0,4.9,3.7,9,9.3,9c5.9,0,9.5-4.1,9.5-9
		C261.5,222.7,258,218.7,252.3,218.7z M243.9,312.7h16.7v-66.3h-16.7V312.7z M318.3,219.3c-25.9,0-43.7,19.9-43.7,48.2
		c0,26.8,16.3,46.7,42.3,46.7c25.2,0,43.8-17.6,43.8-48.3C360.8,239.6,345,219.3,318.3,219.3z M317.8,300.7
		c-16.1,0-25.5-14.8-25.5-33.6c0-18.9,8.8-34.3,25.5-34.3c16.7,0,25.3,16.3,25.3,33.6C343.1,285.6,334,300.7,317.8,300.7z
		 M407.2,259.3c-12.2-4.8-17.6-8-17.6-15.1c0-5.4,4.5-11,15.1-11c8.6,0,15,2.6,18.4,4.4l3.9-13.5c-4.8-2.4-12-4.6-21.9-4.6
		c-20,0-32.5,11.3-32.5,26.4c0,13.2,9.7,21.2,24.9,26.7c11.6,4.2,16.2,8.3,16.2,15.2c0,7.5-6,12.5-16.6,12.5
		c-8.6,0-16.9-2.7-22.2-5.9l-3.8,13.9c5,3.1,15.1,5.9,24.9,5.9c23.5,0,34.7-12.8,34.7-27.6C430.7,273.3,423.1,265.3,407.2,259.3z"/>
</g>
<defs>
	<filter id="Adobe_OpacityMaskFilter" filterUnits="userSpaceOnUse" x="242.9" y="218.7" width="184.2" height="71.3">
		<feColorMatrix  type="matrix" values="1 0 0 0 0  0 1 0 0 0  0 0 1 0 0  0 0 0 1 0"/>
	</filter>
</defs>
<mask maskUnits="userSpaceOnUse" x="242.9" y="218.7" width="184.2" height="71.3" id="SHINING_3_">
	<g id="XMLID_5_" class="st2">
		
			<linearGradient id="XMLID_49_" gradientUnits="userSpaceOnUse" x1="399.8375" y1="242.168" x2="399.8375" y2="282.5804" gradientTransform="matrix(1 0 0 -1 0 502)">
			<stop  offset="0.2" style="stop-color:#FFFFFF"/>
			<stop  offset="1" style="stop-color:#000000"/>
		</linearGradient>
		<path id="XMLID_9_" class="st3" d="M405.1,219.4c-20,0-32.5,11.3-32.5,26.4c0,5.5,1.7,10.1,4.8,14c8.3-0.9,16.7-1.7,25.2-2.4
			c-9-3.9-13-7.1-13-13.2c0-5.4,4.5-11,15.1-11c8.6,0,15,2.6,18.4,4.4l3.9-13.5C422.3,221.6,415.1,219.4,405.1,219.4z"/>
		
			<linearGradient id="XMLID_50_" gradientUnits="userSpaceOnUse" x1="317.6275" y1="222.5476" x2="317.6275" y2="282.716" gradientTransform="matrix(1 0 0 -1 0 502)">
			<stop  offset="0.2" style="stop-color:#FFFFFF"/>
			<stop  offset="1" style="stop-color:#000000"/>
		</linearGradient>
		<path id="XMLID_8_" class="st4" d="M318.3,219.3c-25.9,0-43.7,19.9-43.7,48.2c0,4.2,0.4,8.2,1.2,12c5.6-1.6,11.3-3.2,17.1-4.6
			c-0.4-2.5-0.6-5.1-0.6-7.8c0-18.9,8.8-34.3,25.5-34.3c16.1,0,24.7,15.2,25.3,31.8c5.8-0.9,11.7-1.8,17.6-2.6
			C359.1,237.6,343.6,219.3,318.3,219.3z"/>
		<g id="XMLID_6_">
			<g id="XMLID_7_">
				
					<linearGradient id="SVGID_1_" gradientUnits="userSpaceOnUse" x1="242.2889" y1="221.9345" x2="242.2889" y2="293.2599" gradientTransform="matrix(1 0 0 -1 10 512)">
					<stop  offset="0.2" style="stop-color:#FFFFFF"/>
					<stop  offset="1" style="stop-color:#000000"/>
				</linearGradient>
				<path class="st5" d="M243.9,290.1c5.4-2,11-4,16.7-5.9v-37.8h-16.7V290.1z M252.2,236.8c5.9,0,9.5-4.1,9.5-9
					c-0.1-5.2-3.7-9.1-9.4-9.1c-5.6,0-9.4,3.9-9.4,9.1C242.9,232.8,246.6,236.8,252.2,236.8z"/>
			</g>
		</g>
	</g>
</mask>
<path id="SHINING" class="st6" d="M243.9,290.1c5.4-2,11-4,16.7-5.9v-37.8h-16.7V290.1z M405.1,219.4c-20,0-32.5,11.3-32.5,26.4
	c0,5.5,1.7,10.1,4.8,14c8.3-0.9,16.7-1.7,25.2-2.4c-9-3.9-13-7.1-13-13.2c0-5.4,4.5-11,15.1-11c8.6,0,15,2.6,18.4,4.4l3.9-13.5
	C422.3,221.6,415.1,219.4,405.1,219.4z M318.3,219.3c-25.9,0-43.7,19.9-43.7,48.2c0,4.2,0.4,8.2,1.2,12c5.6-1.6,11.3-3.2,17.1-4.6
	c-0.4-2.5-0.6-5.1-0.6-7.8c0-18.9,8.8-34.3,25.5-34.3c16.1,0,24.7,15.2,25.3,31.8c5.8-0.9,11.7-1.8,17.6-2.6
	C359.1,237.6,343.6,219.3,318.3,219.3z M252.3,218.7c-5.6,0-9.4,3.9-9.4,9.1c0,4.9,3.7,9,9.3,9c5.9,0,9.5-4.1,9.5-9
	C261.5,222.7,258,218.7,252.3,218.7z"/>
<linearGradient id="XMLID_51_" gradientUnits="userSpaceOnUse" x1="146.2865" y1="323.9364" x2="146.2865" y2="-80.7836" gradientTransform="matrix(1 0 0 -1 0 502)">
	<stop  offset="0" style="stop-color:#666666"/>
	<stop  offset="0.5" style="stop-color:#CCCCCC"/>
	<stop  offset="0.5897" style="stop-color:#C0C0C0"/>
	<stop  offset="0.75" style="stop-color:#A2A2A2"/>
	<stop  offset="0.9613" style="stop-color:#707070"/>
	<stop  offset="1" style="stop-color:#666666"/>
</linearGradient>
<path id="XMLID_1_" class="st7" d="M118.6,344.6c-12.2,0-23.7-9.7-35.2-29.7c-10.9-19.4-16.5-38.4-16.5-56.5
	c0-17.2,4.4-31.5,12.9-42.6C88.6,204.6,99.7,199,113,199c5.6,0,12.1,1.1,20.1,3.4c3.8,1.1,6.7,1.9,8.9,2.3l0-1.1
	c0.2-11.4,3.3-21.3,9-29.6c5.8-8.3,15.5-14.1,28.9-17.3l2.4-0.5l0.5,2.4c0.1,0.4,0.2,0.7,0.2,1c0.1,0.5,0.3,1,0.3,1.5l0,0.2v0.2
	c0,0.3,0,0.6,0,0.9c0,0.4,0.1,0.8,0.1,1.3c0,4.8-1.1,10.1-3.4,15.8c-2.3,5.8-5.9,11.2-10.8,16c-3.5,3.5-7,6-10.6,7.6
	c1.1-0.4,2.4-0.8,3.7-1.2c7.8-2.6,14.3-3.9,19.8-3.9c9.2,0,17.5,2.5,24.8,7.6c4,2.7,8,6.6,11.9,11.5l1.5,1.8l-1.8,1.5
	c-5.7,4.8-9.6,8.9-12.1,12.5c-4.5,6.4-6.7,13.7-6.7,21.4c0,8.6,2.4,16.4,7.2,23.2c4.7,6.8,10.1,11.1,16.1,12.9l2.3,0.7l-0.7,2.3
	c-2.9,9.3-7.6,18.8-13.8,28.1c-9.9,15-20,22.6-30.3,22.6c-3.9,0-9.1-1.2-16.2-3.7c-6-2.2-11.4-3.4-15.8-3.4c-4.1,0-9.1,1.2-14.7,3.5
	C127.9,343.3,122.7,344.6,118.6,344.6z"/>
<linearGradient id="SVGID_2_" gradientUnits="userSpaceOnUse" x1="145.978" y1="158.5502" x2="145.978" y2="380.9899" gradientTransform="matrix(1 0 0 -1 0 502)">
	<stop  offset="5.000000e-002" style="stop-color:#CCCCCC"/>
	<stop  offset="6.140000e-002" style="stop-color:#C4C4C4"/>
	<stop  offset="0.1294" style="stop-color:#9C9C9C"/>
	<stop  offset="0.2016" style="stop-color:#797979"/>
	<stop  offset="0.2777" style="stop-color:#5D5D5D"/>
	<stop  offset="0.3588" style="stop-color:#474747"/>
	<stop  offset="0.4476" style="stop-color:#373737"/>
	<stop  offset="0.5495" style="stop-color:#2E2E2E"/>
	<stop  offset="0.6946" style="stop-color:#2B2B2B"/>
</linearGradient>
<path class="st8" d="M209.1,320.3c-9.5,14.4-18.9,21.6-28.3,21.6c-3.7,0-8.8-1.2-15.4-3.5c-6.5-2.4-12.1-3.5-16.6-3.5
	c-4.4,0-9.7,1.2-15.6,3.6c-6.1,2.5-10.9,3.7-14.5,3.7c-11.3,0-22.2-9.6-33.1-28.5c-10.7-18.9-16.2-37.3-16.2-55.3
	c0-16.8,4.2-30.5,12.4-41.2c8.3-10.6,18.6-15.8,31.2-15.8c5.4,0,11.8,1.1,19.5,3.3c7.6,2.2,12.7,3.3,15.2,3.3
	c3.2,0,8.5-1.2,15.7-3.7c7.3-2.4,13.6-3.7,19-3.7c8.8,0,16.6,2.4,23.4,7.2c3.9,2.6,7.7,6.4,11.4,11c-5.7,4.8-9.9,9.1-12.5,13
	c-4.7,6.8-7.2,14.4-7.2,22.8c0,9,2.5,17.3,7.6,24.5c5.1,7.3,10.9,11.9,17.4,13.9C219.9,301.5,215.5,310.8,209.1,320.3z M178.1,178.7
	c-2.2,5.5-5.6,10.6-10.2,15.2c-4,4-7.9,6.6-11.9,7.9c-2.5,0.8-6.3,1.4-11.4,1.9c0.2-10.9,3.1-20.4,8.6-28.3
	c5.5-7.9,14.7-13.3,27.5-16.3c0.2,1,0.4,1.8,0.6,2.4c0,0.8,0.1,1.4,0.1,2.2C181.2,168.3,180.1,173.3,178.1,178.7z"/>
<defs>
	<filter id="Adobe_OpacityMaskFilter_1_" filterUnits="userSpaceOnUse" x="69.3" y="200.5" width="148" height="107.8">
		<feFlood  style="flood-color:white;flood-opacity:1" result="back"/>
		<feBlend  in="SourceGraphic" in2="back" mode="normal"/>
	</filter>
</defs>
<mask maskUnits="userSpaceOnUse" x="69.3" y="200.5" width="148" height="107.8" id="XMLID_52_">
	<g id="XMLID_29_" class="st9">
		<defs>
			<filter id="Adobe_OpacityMaskFilter_2_" filterUnits="userSpaceOnUse" x="69.3" y="200.5" width="148" height="107.8">
				<feFlood  style="flood-color:white;flood-opacity:1" result="back"/>
				<feBlend  in="SourceGraphic" in2="back" mode="normal"/>
			</filter>
		</defs>
		<mask maskUnits="userSpaceOnUse" x="69.3" y="200.5" width="148" height="107.8" id="XMLID_52_">
			<g id="XMLID_33_" class="st10">
			</g>
		</mask>
		
			<linearGradient id="XMLID_53_" gradientUnits="userSpaceOnUse" x1="157.9893" y1="223.9326" x2="73.1437" y2="378.1029" gradientTransform="matrix(1 0 0 -1 0 502)">
			<stop  offset="0.232" style="stop-color:#FFFFFF"/>
			<stop  offset="0.2419" style="stop-color:#FCFCFC"/>
			<stop  offset="0.3889" style="stop-color:#CBCBCB"/>
			<stop  offset="0.55" style="stop-color:#959595"/>
			<stop  offset="0.7357" style="stop-color:#585858"/>
			<stop  offset="1" style="stop-color:#000000"/>
		</linearGradient>
		<path id="XMLID_30_" class="st11" d="M199.9,224.1c3.7,0,7.3,0.2,10.9,0.5c1.9-1.9,4.1-3.9,6.6-6c-3.7-4.6-7.6-8.4-11.4-11
			c-6.8-4.7-14.6-7.2-23.4-7.2c-5.4,0-11.8,1.3-19,3.7c-7.3,2.5-12.5,3.7-15.7,3.7c-2.5,0-7.6-1.1-15.2-3.3
			c-7.7-2.2-14.1-3.3-19.5-3.3c-12.7,0-23,5.3-31.2,15.8c-8.3,10.7-12.4,24.3-12.4,41.2c0,16.3,4.5,32.9,13.3,49.9
			C99.1,259.4,145.4,224.1,199.9,224.1z"/>
	</g>
</mask>
<linearGradient id="XMLID_54_" gradientUnits="userSpaceOnUse" x1="157.9893" y1="223.9326" x2="73.1437" y2="378.1029" gradientTransform="matrix(1 0 0 -1 0 502)">
	<stop  offset="0.232" style="stop-color:#CCCCCC"/>
	<stop  offset="0.2419" style="stop-color:#CECECE"/>
	<stop  offset="0.3889" style="stop-color:#E4E4E4"/>
	<stop  offset="0.55" style="stop-color:#F3F3F3"/>
	<stop  offset="0.7357" style="stop-color:#FCFCFC"/>
	<stop  offset="1" style="stop-color:#FFFFFF"/>
</linearGradient>
<path id="XMLID_2_" class="st12" d="M199.9,224.1c3.7,0,7.3,0.2,10.9,0.5c1.9-1.9,4.1-3.9,6.6-6c-3.7-4.6-7.6-8.4-11.4-11
	c-6.8-4.7-14.6-7.2-23.4-7.2c-5.4,0-11.8,1.3-19,3.7c-7.3,2.5-12.5,3.7-15.7,3.7c-2.5,0-7.6-1.1-15.2-3.3
	c-7.7-2.2-14.1-3.3-19.5-3.3c-12.7,0-23,5.3-31.2,15.8c-8.3,10.7-12.4,24.3-12.4,41.2c0,16.3,4.5,32.9,13.3,49.9
	C99.1,259.4,145.4,224.1,199.9,224.1z"/>
<linearGradient id="XMLID_55_" gradientUnits="userSpaceOnUse" x1="152.6037" y1="158.5504" x2="152.6037" y2="380.9896" gradientTransform="matrix(1 0 0 -1 0 502)">
	<stop  offset="5.000000e-002" style="stop-color:#CCCCCC"/>
	<stop  offset="6.140000e-002" style="stop-color:#C4C4C4"/>
	<stop  offset="0.1294" style="stop-color:#9C9C9C"/>
	<stop  offset="0.2016" style="stop-color:#797979"/>
	<stop  offset="0.2777" style="stop-color:#5D5D5D"/>
	<stop  offset="0.3588" style="stop-color:#474747"/>
	<stop  offset="0.4476" style="stop-color:#373737"/>
	<stop  offset="0.5495" style="stop-color:#2E2E2E"/>
	<stop  offset="0.6946" style="stop-color:#2B2B2B"/>
</linearGradient>
<path id="XMLID_27_" class="st13" d="M118.6,342.2c3.6,0,8.5-1.2,14.5-3.7c5.9-2.4,11.2-3.6,15.6-3.6c4.5,0,10.1,1.1,16.6,3.5
	c6.6,2.3,11.7,3.5,15.4,3.5c9.4,0,18.8-7.2,28.3-21.6c6.4-9.6,10.8-18.8,13.5-27.5c-6.5-2-12.3-6.6-17.4-13.9
	c-5.1-7.3-7.6-15.5-7.6-24.5c0-8.4,2.4-16,7.2-22.8c1.5-2.2,3.5-4.5,6-7c-3.6-0.3-7.2-0.5-10.9-0.5c-54.5,0-100.8,35.2-117.3,84.2
	c0.9,1.8,1.9,3.6,2.9,5.4C96.4,332.7,107.3,342.2,118.6,342.2z"/>
</svg>
