<?xml version="1.0" encoding="utf-8"?>
<!-- Generator: Adobe Illustrator 24.1.1, SVG Export Plug-In . SVG Version: 6.00 Build 0)  -->
<svg version="1.1" id="Layer_1" xmlns="http://www.w3.org/2000/svg" xmlns:xlink="http://www.w3.org/1999/xlink" x="0px" y="0px"
	 viewBox="0 0 512 512" style="enable-background:new 0 0 512 512;" xml:space="preserve">
<g id="XMLID_1_">
	<path id="XMLID_7_" d="M367.5,0h-223c-26,0-48.3,21.4-48.3,48.3v415.4c0,26,21.4,48.3,48.3,48.3h223c26,0,48.3-21.4,48.3-48.3V48.3
		C415.8,21.4,394.5,0,367.5,0z M191.9,24.2h128.2V40H191.9V24.2z M256,479.5c-17.7,0-31.6-13.9-31.6-31.6
		c0-17.7,13.9-31.6,31.6-31.6s31.6,13.9,31.6,31.6C287.6,465.5,273.7,479.5,256,479.5z M384.2,383.8H128.7V64.1h255.5V383.8z"/>
</g>
</svg>
