<?xml version="1.0" encoding="utf-8"?>
<!-- Generator: Adobe Illustrator 24.1.1, SVG Export Plug-In . SVG Version: 6.00 Build 0)  -->
<svg version="1.1" id="Layer_1" xmlns="http://www.w3.org/2000/svg" xmlns:xlink="http://www.w3.org/1999/xlink" x="0px" y="0px"
	 viewBox="0 0 512 512" style="enable-background:new 0 0 512 512;" xml:space="preserve">
<style type="text/css">
	.st0{fill:#444444;}
</style>
<g>
	<path class="st0" d="M194.6,246.9h122c34,0,61.1-27.9,61.1-62.1V68.5c0-33.1-27.9-58-61.1-63.5c-21-3.5-42.7-5.1-63.6-5
		c-20.9,0.1-40.8,1.9-58.4,5c-51.7,9.1-61.1,28.2-61.1,63.5V115h122.1v15.5h-168c-35.5,0-66.6,21.3-76.3,61.9
		c-11.2,46.5-11.7,75.6,0,124.2c8.7,36.2,29.4,61.9,64.9,61.9h42v-55.8C118.3,282.4,153.2,246.9,194.6,246.9L194.6,246.9z M186.9,84
		C174.3,84,164,73.6,164,60.8c0-12.9,10.2-23.4,22.9-23.4c12.6,0,22.9,10.5,22.9,23.4C209.9,73.6,199.6,84,186.9,84z M499.8,192.5
		c-8.8-35.3-25.5-61.9-61.1-61.9h-45.8v54.2c0,42.1-35.7,77.5-76.3,77.5h-122c-33.4,0-61.1,28.6-61.1,62.1v116.3
		c0,33.1,28.8,52.6,61.1,62.1c38.7,11.4,75.7,13.4,122,0c30.7-8.9,61.1-26.8,61.1-62.1v-46.6h-122v-15.5h183.1
		c35.5,0,48.7-24.8,61.1-61.9C512.6,278.3,512.1,241.5,499.8,192.5L499.8,192.5z M324.3,425.1c12.7,0,22.9,10.4,22.9,23.2
		c0,12.9-10.3,23.3-22.9,23.3c-12.6,0-22.9-10.5-22.9-23.3C301.4,435.5,311.7,425.1,324.3,425.1z"/>
</g>
</svg>
