<?xml version="1.0" encoding="utf-8"?>
<!-- Svg Vector Icons : http://www.onlinewebfonts.com/icon -->
<!DOCTYPE svg PUBLIC "-//W3C//DTD SVG 1.1//EN" "http://www.w3.org/Graphics/SVG/1.1/DTD/svg11.dtd">
<svg version="1.1" xmlns="http://www.w3.org/2000/svg" xmlns:xlink="http://www.w3.org/1999/xlink" x="0px" y="0px" viewBox="0 0 1000 1000" enable-background="new 0 0 1000 1000" xml:space="preserve">
<metadata> Svg Vector Icons : http://www.onlinewebfonts.com/icon </metadata>
<g><g transform="translate(0.000000,511.000000) scale(0.100000,-0.100000)"><path d="M279.7,4986.9c-78.9-34.6-159.7-132.8-173.2-209.7c-5.8-34.6-7.7-2158.8-5.8-4721.7l5.8-4660.1l40.4-51.9c21.2-28.9,63.5-71.2,92.4-92.4l52-40.4h4712h4712l51.9,40.4c28.9,21.2,71.2,63.5,92.4,92.4l40.4,51.9V107.4v4712l-40.4,52c-21.2,28.9-63.5,71.2-92.4,92.3l-51.9,40.4l-4689,3.9C1157,5011.9,327.8,5008,279.7,4986.9z M7825.8,4575.1c173.2-123.1,150.1-402.1-40.4-492.6c-198.2-94.3-415.6,40.4-415.6,257.8c0,103.9,52,196.3,138.5,252.1C7591.1,4642.5,7743.1,4634.8,7825.8,4575.1z M8597.4,4590.5c244.4-150.1,142.4-538.7-140.4-538.7c-161.6,0-279,105.8-292.5,263.6C8143.3,4552,8395.4,4713.6,8597.4,4590.5z M9340.1,4602c100-42.3,155.8-136.6,155.8-261.7s-55.8-219.3-155.8-261.7c-204-84.7-411.8,48.1-411.8,261.7S9136.1,4686.7,9340.1,4602z M3167.7,4078.7c123.1-90.4,132.8-121.2,138.5-423.3l5.8-277.1h3193.9h3192V-566v-3944.4H5003.3H308.5l3.9,3940.5l5.8,3938.6l342.5,5.8l340.6,3.9v250.1c0,259.8,13.5,327.1,82.7,402.1c90.4,98.1,90.4,98.1,1094.8,92.4C3090.7,4119.1,3115.7,4117.2,3167.7,4078.7z"/><path d="M1807.4-310.1c-111.6-17.3-142.4-80.8-290.5-608c-77-271.3-144.3-494.5-150.1-494.5c-5.8,0-75,223.2-153.9,494.5C1053.1-364,1028.1-315.9,905-315.9c-86.6,0-165.5-59.7-182.8-134.7c-7.7-32.7,57.7-248.2,200.1-665.7c115.4-340.5,223.2-644.6,240.5-677.3c44.3-86.6,119.3-128.9,217.4-127c90.4,1.9,144.3,38.5,190.5,128.9c15.4,28.9,88.5,257.8,159.7,508l130.8,456l40.4-134.7c21.2-73.1,84.7-288.6,140.5-479.1c86.6-292.5,111.6-356,163.5-407.9c53.9-53.9,75-63.5,157.8-63.5c121.2,0,175.1,50,242.4,227c127,338.6,396.4,1152.5,396.4,1200.6c0,80.8-32.7,130.8-103.9,159.7c-80.8,34.6-161.6,13.5-205.9-50c-17.3-25-96.2-261.7-171.2-527.2c-77-263.6-146.2-486.8-152-496.4c-7.7-7.7-73.1,192.4-144.3,442.5c-71.2,252.1-142.4,484.8-155.8,519.5C2028.6-342.8,1926.7-292.8,1807.4-310.1z"/><path d="M4231.7-310.1c-111.6-17.3-146.2-86.6-294.4-598.4c-75-265.5-142.4-488.7-148.2-494.5c-5.8-5.8-57.7,148.2-113.5,340.6c-209.7,729.2-217.4,746.5-348.3,746.5c-61.6,0-90.4-13.5-136.6-57.7c-51.9-52-57.7-69.3-46.2-130.8c7.7-38.5,105.8-346.3,221.3-685c242.4-706.1,255.9-731.1,423.3-731.1c103.9,0,157.8,32.7,205.9,127c15.4,28.9,82.7,254,153.9,500.3c69.3,246.3,128.9,450.2,130.8,454.1c3.8,1.9,63.5-198.2,136.6-442.5c71.2-246.3,142.4-471.4,155.8-500.3c50-96.2,103.9-130.8,204-130.8c169.3,0,180.9,19.2,423.3,721.5c115.4,338.6,215.5,646.5,221.3,685c13.5,88.5-19.2,148.2-98.1,180.9c-78.9,34.6-161.6,13.5-205.9-50c-19.2-25-96.2-257.8-173.2-517.6c-75-259.8-144.3-484.9-152-500.3c-11.5-19.2-23.1-1.9-38.5,57.7c-123.1,461.8-257.8,900.5-290.5,944.7C4416.4-325.5,4331.8-294.7,4231.7-310.1z"/><path d="M6648.3-314c-123.2-38.5-140.5-75-296.3-625.3c-75-263.6-138.5-481-140.4-484.9c-3.9-1.9-53.9,155.9-109.7,354c-217.4,746.5-221.3,754.2-365.6,754.2c-61.6,0-84.7-11.6-127-61.6s-50-75-40.4-127c5.8-36.6,103.9-340.6,217.4-675.4c236.7-694.6,259.7-736.9,411.7-740.8c111.6-1.9,182.8,44.2,227.1,148.1c17.3,44.3,88.5,275.1,155.8,511.8l123.1,432.9l42.3-144.3c23.1-78.9,88.5-296.3,144.3-484.8c119.3-409.8,152-456,307.9-456c169.3,0,180.9,19.2,421.4,717.7c115.4,334.8,215.5,640.7,221.3,675.3c34.6,180.9-194.3,290.5-302.1,144.3c-19.2-25-100.1-271.3-180.8-546.4c-80.8-275.1-148.2-502.2-150.1-504.1c-1.9-3.9-63.5,203.9-136.6,457.9c-140.4,498.3-178.9,596.5-246.3,629.2C6765.7-310.1,6692.6-298.6,6648.3-314z"/><path d="M7974-1555c-55.8-55.8-65.4-78.9-65.4-155.8s9.6-98.1,59.6-146.2c48.1-46.2,77-55.8,152-55.8c111.6,0,182.8,50,209.7,146.2c42.3,150.1-59.7,277.1-221.3,277.1C8054.8-1489.6,8024-1505,7974-1555z"/></g></g>
</svg>