<svg id="SvgjsSvg1311" xmlns="http://www.w3.org/2000/svg" viewBox="0 0 360 360"><defs><style>.cls-1{fill:#9dcfe8;}.cls-2{fill:#276d9c;}.cls-3{fill:#167fc6;}.cls-15,.cls-21,.cls-4{fill:#fff;}.cls-25,.cls-4{opacity:0.2;}.cls-15,.cls-25,.cls-4{isolation:isolate;}.cls-5{fill:#246c9d;}.cls-6{fill:#ffbea6;}.cls-7{fill:#1f7ebf;}.cls-8{fill:#f2b199;}.cls-9{fill:#315d73;}.cls-10{fill:#34647b;}.cls-11,.cls-24,.cls-26,.cls-27,.cls-31{fill:none;}.cls-11{stroke:#18669b;stroke-width:1.5px;}.cls-12{fill:#1f7bb9;}.cls-13{fill:#3983a7;}.cls-14,.cls-25{fill:#367493;}.cls-15{opacity:0.4;}.cls-16{fill:#325a6e;}.cls-17{fill:#167cc2;}.cls-18{fill:#f6865c;}.cls-19{fill:#b86546;}.cls-20{fill:#125f94;}.cls-22{fill:#3a82a5;}.cls-23{fill:#377593;}.cls-24{stroke:#fff;stroke-width:6px;}.cls-27{stroke:#5aaae1;}.cls-28{fill:#5aaae1;}.cls-29{fill:#387d9f;}.cls-30{fill:#005689;}.cls-31{stroke:#001422;stroke-miterlimit:10;stroke-width:4px;}</style></defs><title>Artboard 1</title><g id="SvgjsG1313"><ellipse class="cls-1" cx="140.98" cy="315.93" rx="55.91" ry="8.17"/><rect class="cls-2" x="124.02" y="237.4" width="7.54" height="70.36"/><path class="cls-3" d="M96.37,222.33h72.87a7.54,7.54,0,0,1,7.54,7.54v5a7.54,7.54,0,0,1-7.54,7.54H96.37a7.54,7.54,0,0,1-7.54-7.54v-5A7.54,7.54,0,0,1,96.37,222.33Z"/><path class="cls-4" d="M93.15,223.1s14.35,8.7,14.37,13.35c-.15,4.64-2.42,5-4.79,5.89-4.63.09-12.58,1.46-13.62-5.32-.49-3.45-1-8.85.8-11.11C91.63,223.32,93.15,223.1,93.15,223.1Z"/><rect class="cls-5" x="97.63" y="303.99" width="59.05" height="6.28"/><path class="cls-6" d="M180.68,99.08s-.22,18.64,0,25.11c-.22,12.63-15,8.62-16.55,5.86v12.63s-14.79,7.86-20.64-1.23-2.93-12.17-2.93-13.86,6.47,1.38,12.63-3.4,2.31-15.86,3.08-21.26,1.38-8.78,11.09-8.93S180.68,99.08,180.68,99.08Z"/><path class="cls-7" d="M146.51,126.45s-3.61-6-19.42-4.8-26.43,14.41-31.44,19.62S78.8,156.23,79,166.7c-.24,9.71,1.2,28.23,6,30.44,3.8,2.61.2-9.41,4.61-14.82a17.21,17.21,0,0,1,15.22-6c4,.6-4,15.82,6.8,19.43s24.43,3.8,27.43,0,13.41-13.62,17.22-19.43c3,6.41,9,13.62,16,15s23.23,2,24.83,0,11-12.41,11.81-16.22-13,5-26,3.41c-13-2-4-26.43-6.8-31.44-3.8-6.41-8.89-8.52-12.5-8.72-7.72-.47-15.27.46-17.15-11.91"/><path class="cls-8" d="M163.13,284.64s-3.2,5.81-3.61,10.82.4,8.41,3.61,8c7.21-1.2,7.21-17,9.61-20.82C173.74,280.63,163.13,284.64,163.13,284.64Z"/><path class="cls-6" d="M147.91,294.45s5.42,15.89,10.38,13.76c10.15-3.57-1.56-22.77-1.56-22.77Z"/><path class="cls-9" d="M90.29,197.11S86.91,213.69,95,220.45c9.6,9,28.26,17.05,32.67,26.53s12.35,47.92,22.16,52.31,10.16-4.74,9.47-11.85c0-3-12.19-48.72-17.6-56.52-11.84-16.92,20.64,5.08,25,13.87s1.35,27.41-4.74,40.61c-2.36,4.74,7.11,5.42,9.47,4.06s17.94-32.82,17.26-47.71c-1.35-20.3-30.8-27.07-44.33-38.92C140,197.11,90.29,197.11,90.29,197.11Z"/><path class="cls-10" d="M156.42,308.33s5.92-.12,6-9.24c7.23-2.14,19,8.53,17.3,19.08-.95,5.33-14.34,3.31-23.35-9.84"/><path class="cls-11" d="M101.46,158.69a8.63,8.63,0,0,0-3.41,8.21c.8,5.41,2.2,8.61,15.82,13.62"/><path class="cls-12" d="M148.65,97.52s-2.86,10.16,10.16,18.48c5.4,3.48,3.41-12.38,3.41-12.38s24.56,3.93,26.4-5c1.54-8.17-4.07-13.12-7.51-13.74-8.35-1.68-9.19,3.58-11.15,3.58-2.25-.07-2.63-2.74-8.9-2.74s-11.51,6.6-12.41,11.81"/><path class="cls-6" d="M87.19,193.49c-.92-12.13,6.38-16.95,13.76-17.24,7.47-.81,7.46,3.83,17.32,3.07s18.89-5.83,27.51-5.38c11.86.62,16.94,12.32,13.24,14.94s-10-6.78-14.94-7.7c-8.47-1.69-26.52,12-30.37,12.32S87.19,193.49,87.19,193.49Z"/><path class="cls-13" d="M212,69h61.56a5,5,0,0,1,5,5V99.2a5,5,0,0,1-5,5H212a5,5,0,0,1-5-5V74.07A5,5,0,0,1,212,69Z"/><path class="cls-13" d="M235.19,103.47l8.09,10.79,7.39-10.79Z"/><path class="cls-4" d="M215.74,74.07h56.54a1.26,1.26,0,0,1,1.26,1.26h0a1.26,1.26,0,0,1-1.26,1.26H215.74a1.26,1.26,0,0,1-1.26-1.26h0A1.26,1.26,0,0,1,215.74,74.07Zm0,3.77h26.39a1.26,1.26,0,0,1,1.26,1.26h0a1.26,1.26,0,0,1-1.26,1.26H215.74a1.26,1.26,0,0,1-1.26-1.26h0A1.26,1.26,0,0,1,215.74,77.83Zm0,7.54h33.93a1.26,1.26,0,0,1,1.26,1.26h0a1.26,1.26,0,0,1-1.26,1.26H215.74a1.26,1.26,0,0,1-1.26-1.26h0A1.26,1.26,0,0,1,215.74,85.37Zm0,3.77h26.39a1.26,1.26,0,0,1,1.26,1.26h0a1.26,1.26,0,0,1-1.26,1.26H215.74a1.26,1.26,0,0,1-1.26-1.26h0A1.26,1.26,0,0,1,215.74,89.14Zm0,3.77h49A1.26,1.26,0,0,1,266,94.16h0a1.26,1.26,0,0,1-1.26,1.26h-49a1.26,1.26,0,0,1-1.26-1.26h0A1.26,1.26,0,0,1,215.74,92.91Zm0,3.77h46.49a1.26,1.26,0,0,1,1.26,1.26h0a1.26,1.26,0,0,1-1.26,1.26H215.74a1.26,1.26,0,0,1-1.26-1.26h0A1.26,1.26,0,0,1,215.74,96.68Zm0-15.07H271a1.26,1.26,0,0,1,1.26,1.26h0A1.26,1.26,0,0,1,271,84.12H215.74a1.26,1.26,0,0,1-1.26-1.26h0A1.26,1.26,0,0,1,215.74,81.6Z"/><path class="cls-14" d="M151.91,192.71v-3h36.21l23-48.74H271l-22,51.78H151.91Z"/><circle class="cls-15" cx="233.33" cy="165.79" r="6.28"/><path class="cls-16" d="M189.8,186.12S226.36,147,268.33,147c4.74-9.47,2.36-5.42,2.36-5.42H211.14Z"/><rect class="cls-17" x="29.78" y="193.42" width="241.24" height="12.56"/><path class="cls-18" d="M38.58,206h10V319.06a5,5,0,0,1-5,5h0a5,5,0,0,1-5-5V206Z"/><path class="cls-19" d="M44.86,206h2.51V321.58a2.52,2.52,0,0,1-2.51,2.51h0V206Z"/><path class="cls-18" d="M253.44,206h10V319.06a5,5,0,0,1-5,5h0a5,5,0,0,1-5-5V206Z"/><path class="cls-19" d="M259.72,206h2.51V321.58a2.52,2.52,0,0,1-2.51,2.51h0V206Z"/><rect class="cls-20" x="29.78" y="203.47" width="241.24" height="2.51"/><path class="cls-13" d="M90.09,87.88h41.46a5,5,0,0,1,5,5v13.82a5,5,0,0,1-5,5H90.09a5,5,0,0,1-5-5V92.91A5,5,0,0,1,90.09,87.88Z"/><path class="cls-13" d="M105.77,111l5.2,6.93L115.7,111Z"/><path class="cls-21" d="M98.34,102.79a5.57,5.57,0,0,1,0-7.73,5.28,5.28,0,0,1,3.82-1.52,5.43,5.43,0,0,1,3.06.87,4.8,4.8,0,0,1,1.91,2.46h-2.54a2.48,2.48,0,0,0-2.42-1.38,3.07,3.07,0,0,0-2.33.95,3.95,3.95,0,0,0,0,5,3.07,3.07,0,0,0,2.33.95,2.51,2.51,0,0,0,2.42-1.38h2.54a4.78,4.78,0,0,1-1.91,2.45,5.51,5.51,0,0,1-3.06.86A5.27,5.27,0,0,1,98.34,102.79Zm14-7.54a1.6,1.6,0,0,0-1,.32,1.08,1.08,0,0,0-.4.89,1.24,1.24,0,0,0,.3.89,1.93,1.93,0,0,0,.78.5,8.27,8.27,0,0,0,1.05.31,11.66,11.66,0,0,1,1.15.33,5.29,5.29,0,0,1,1.05.48,2.06,2.06,0,0,1,.78.84,2.82,2.82,0,0,1,.3,1.33,2.92,2.92,0,0,1-1,2.24,3.93,3.93,0,0,1-2.75.94,4.41,4.41,0,0,1-2.77-.81,2.69,2.69,0,0,1-1.05-2.27H111a1.39,1.39,0,0,0,1.59,1.38,1.72,1.72,0,0,0,1.15-.37,1.3,1.3,0,0,0,.43-1,1.13,1.13,0,0,0-.55-1,4,4,0,0,0-1.35-.54c-.53-.12-1.05-.27-1.59-.44a2.91,2.91,0,0,1-1.35-.89,2.48,2.48,0,0,1-.55-1.69,2.82,2.82,0,0,1,1-2.29,4,4,0,0,1,2.67-.86,4.26,4.26,0,0,1,2.63.75,2.91,2.91,0,0,1,1.09,2.27h-2.32a1.45,1.45,0,0,0-.45-1A1.61,1.61,0,0,0,112.38,95.25Zm9.41,0a1.6,1.6,0,0,0-1,.32,1.08,1.08,0,0,0-.4.89,1.24,1.24,0,0,0,.3.89,1.93,1.93,0,0,0,.78.5,8.27,8.27,0,0,0,1.05.31,11.66,11.66,0,0,1,1.15.33,5.29,5.29,0,0,1,1.05.48,2.06,2.06,0,0,1,.78.84,2.82,2.82,0,0,1,.3,1.33,2.92,2.92,0,0,1-1,2.24,3.93,3.93,0,0,1-2.75.94,4.41,4.41,0,0,1-2.77-.81,2.69,2.69,0,0,1-1.05-2.27h2.26a1.39,1.39,0,0,0,1.59,1.38,1.72,1.72,0,0,0,1.15-.37,1.3,1.3,0,0,0,.43-1,1.13,1.13,0,0,0-.55-1,4,4,0,0,0-1.35-.54c-.53-.12-1.05-.27-1.59-.44a2.91,2.91,0,0,1-1.35-.89,2.48,2.48,0,0,1-.55-1.69,2.82,2.82,0,0,1,1-2.29,4,4,0,0,1,2.67-.86,4.26,4.26,0,0,1,2.63.75,2.91,2.91,0,0,1,1.09,2.27h-2.32a1.45,1.45,0,0,0-.45-1A1.63,1.63,0,0,0,121.79,95.25Z"/><circle class="cls-22" cx="284.21" cy="121.18" r="14.45"/><path class="cls-21" d="M290.22,119.31H288.1l-.48,2.27h1.75v1.72h-2.12l-.48,2.28h-1.82l.48-2.28h-2.53l-.48,2.28h-1.82l.48-2.28H279v-1.72h2.49l.48-2.27H279.8v-1.72h2.49l.47-2.22h1.82l-.47,2.22h2.53l.47-2.22h1.82l-.47,2.22h1.75Zm-4.42,2.26.48-2.27h-2.53l-.48,2.27Z"/><rect class="cls-23" x="267.25" y="43.91" width="23.87" height="3.77"/><rect class="cls-23" x="267.26" y="43.93" width="23.87" height="3.77" transform="translate(58.33 222.64) rotate(-48)"/><rect class="cls-23" x="277.3" y="33.87" width="3.77" height="23.87" transform="translate(41.06 198.58) rotate(-42)"/><rect class="cls-23" x="277.3" y="33.86" width="3.77" height="23.87"/><circle class="cls-23" cx="279.19" cy="45.79" r="9.42"/><circle class="cls-23" cx="279.19" cy="45.79" r="5.65"/><circle class="cls-24" cx="279.19" cy="45.79" r="5.02"/><rect class="cls-23" x="294.89" y="62.76" width="37.7" height="6.28"/><rect class="cls-23" x="294.89" y="63.37" width="37.22" height="5.88" transform="translate(54.45 254.91) rotate(-48)"/><rect class="cls-23" x="310.56" y="47.69" width="5.88" height="37.22" transform="translate(36.16 226.8) rotate(-42)"/><rect class="cls-23" x="309.97" y="47.68" width="6.28" height="37.7"/><circle class="cls-23" cx="313.74" cy="66.52" r="15.07"/><circle class="cls-23" cx="313.74" cy="66.53" r="8.79"/><circle class="cls-24" cx="313.74" cy="66.53" r="8.17"/><path class="cls-25" d="M56.61,171.78c-.16-2.31-10.93-10.48.77-10.62s-6.93-13.71-6.93-13.71,4.16,6.47.77,8.47-9.55,1.23-7.7,6S55.07,171,55.83,174.09,56.61,175.14,56.61,171.78Z"/><path class="cls-26" d="M58.69,177.09h8.79A2.52,2.52,0,0,1,70,179.61v5a2.52,2.52,0,0,1-2.51,2.51H58.69v-10Z"/><path class="cls-27" d="M59.94,177.72h7.54a1.88,1.88,0,0,1,1.88,1.88v5a1.88,1.88,0,0,1-1.88,1.88H59.94a.62.62,0,0,1-.63-.63v-7.54A.62.62,0,0,1,59.94,177.72Z"/><path class="cls-28" d="M44.86,170.81H65v20.1a2.52,2.52,0,0,1-2.51,2.51H47.37a2.52,2.52,0,0,1-2.51-2.51v-20.1Z"/><circle class="cls-29" cx="197.51" cy="54.58" r="13.19"/><path class="cls-21" d="M191,54.51l2.75,2.81h-2.22l-2.74-2.81,2.74-2.81h2.22Zm4.58,6.75L199,47.09h1.72l-3.4,14.17Zm6.77-3.93,2.74-2.81-2.74-2.81h2.21l2.74,2.81-2.74,2.81Z"/><path class="cls-18" d="M281.5,259.87s-2.88,3.18-8.7-3.4c0,0,7.56-1.49,8.87,2.95Z"/><path class="cls-18" d="M281.82,259.42s4.3,0,3.43-8.68c0,0-6.23,4.52-3.86,8.51Z"/><path class="cls-30" d="M299.18,238.82s-3.94,1.71-6.53-6.67c0,0,7.49,1.76,6.87,6.34Z"/><path class="cls-30" d="M299.92,238.28s3.9,1.82,6.71-6.49c0,0-7.54,1.55-7,6.15Zm-.83,7.61s-4.19,1.82-6.94-7.09c0,0,8,1.86,7.29,6.74Z"/><path class="cls-30" d="M299.85,245.31s4.14,1.93,7.12-6.91c0,0-8,1.65-7.47,6.55Zm-.9,8.61s-4.64,2-7.68-7.85c0,0,8.83,2.07,8.07,7.45Z"/><path class="cls-30" d="M299.8,253.27s4.59,2.14,7.88-7.63c0,0-8.87,1.82-8.27,7.24Zm-.85,9.1s-4.65,2-7.69-7.87c0,0,8.84,2.07,8.09,7.47Z"/><path class="cls-30" d="M299.8,261.73s4.6,2.14,7.9-7.65c0,0-8.89,1.83-8.29,7.25Zm-1.59,7s-3.34,1.45-5.53-5.65c0,0,6.34,1.49,5.81,5.37Z"/><path class="cls-30" d="M298.86,268.43s3.07,2,6.36-4.69c0,0-6.5.46-6.6,4.38Zm-.42,5.41s2.52,1.61,5.22-3.85c0,0-5.34.37-5.42,3.6Z"/><path class="cls-30" d="M298.34,273.84s-2.52,1.61-5.22-3.85c0,0,5.34.37,5.42,3.6Z"/><path class="cls-18" d="M284.51,266.62s-3.32,3.66-10-3.9c0,0,8.68-1.71,10.19,3.4Z"/><path class="cls-18" d="M284.87,266.1s4.94.05,3.94-10c0,0-7.16,5.2-4.45,9.77Zm2.3,7.76s-3.72,4.09-11.17-4.35c0,0,9.7-1.92,11.39,3.79Z"/><path class="cls-18" d="M287.59,273.28s5.53.06,4.41-11.15c0,0-8,5.81-5,10.93Zm1.93,9s-4,3.78-10.78-5.23c0,0,9.83-1.14,11.06,4.67Z"/><path class="cls-18" d="M290,281.72s5.5.5,5.28-10.76c0,0-8.44,5.16-5.82,10.5Z"/><path class="cls-7" d="M315,261.46s3,3.07,8.55-3.75c0,0-7.61-1.17-8.73,3.32Z"/><path class="cls-7" d="M314.62,261s-4.29.22-3.79-8.53c0,0,6.42,4.26,4.23,8.34Zm-2.38,7.29s3.47,3.51,9.82-4.31c0,0-8.74-1.35-10,3.81Z"/><path class="cls-7" d="M311.84,267.8s-4.94.27-4.35-9.8c0,0,7.38,4.9,4.85,9.58Zm-2,7.87s3.89,3.93,11-4.82c0,0-9.77-1.51-11.22,4.26Z"/><path class="cls-7" d="M309.44,275.1s-5.51.3-4.87-11c0,0,8.24,5.47,5.43,10.71Zm-1.55,9s4.18,3.61,10.56-5.67c0,0-9.87-.72-10.85,5.13Z"/><path class="cls-7" d="M307.41,283.63s-5.47.72-5.72-10.54c0,0,8.64,4.8,6.26,10.24ZM316.48,256s-2.81-3.26,4.43-8.22c0,0,.56,7.68-4,8.44Z"/><path class="cls-31" d="M305.09,296.27s1.54-16.59,11.9-40.47"/><path class="cls-31" d="M296.69,295s4.22-48.31,2.44-62.13"/><path class="cls-30" d="M299.2,233.19s3.82-2-1-9.27c0,0-3.4,6.91.56,9.33Z"/><path class="cls-31" d="M292.82,294.25s-2.25-16.5-13.59-39.93"/><path class="cls-14" d="M314.18,323.17a.71.71,0,0,1-.7.71H285.66a.7.7,0,0,1-.7-.71l-1.42-33.66a.71.71,0,0,1,.71-.71h30.66a.71.71,0,0,1,.71.71Z"/></g></svg>