<?xml version="1.0" standalone="no"?>
<!DOCTYPE svg PUBLIC "-//W3C//DTD SVG 20010904//EN"
 "http://www.w3.org/TR/2001/REC-SVG-20010904/DTD/svg10.dtd">
<svg version="1.0" xmlns="http://www.w3.org/2000/svg"
 width="919.000000pt" height="1280.000000pt" viewBox="0 0 919.000000 1280.000000"
 preserveAspectRatio="xMidYMid meet">
<g transform="translate(0.000000,1280.000000) scale(0.100000,-0.100000)"
fill="#000000" stroke="none">
<path d="M5429 12791 c-46 -15 -73 -34 -142 -99 -64 -62 -71 -66 -128 -73 -69
-8 -138 -48 -227 -133 -132 -124 -206 -247 -236 -388 -5 -20 -15 -30 -43 -39
-121 -39 -185 -97 -227 -207 l-27 -71 -167 -126 c-92 -69 -195 -147 -228 -174
-62 -49 -104 -64 -246 -91 -102 -20 -158 -77 -179 -181 -9 -48 -18 -64 -42
-81 -36 -26 -77 -110 -77 -161 0 -79 41 -133 125 -164 52 -19 62 -35 64 -101
1 -26 13 -46 57 -92 65 -68 65 -67 -21 -160 -85 -93 -113 -163 -93 -236 6 -21
10 -79 8 -129 -1 -79 2 -100 30 -175 34 -92 33 -120 -4 -140 -46 -24 -44 -60
5 -81 61 -25 114 -10 161 45 22 25 30 29 44 20 40 -24 37 -84 -8 -146 -9 -13
-9 -20 2 -33 18 -22 82 -15 119 12 70 51 92 185 50 301 -36 99 -38 110 -27
148 12 43 88 123 145 152 75 39 133 125 133 198 0 12 -13 73 -30 135 -22 87
-27 122 -21 149 18 73 18 73 85 66 150 -16 269 -18 338 -7 71 12 75 12 133
-15 33 -15 96 -39 140 -53 93 -30 100 -43 64 -119 -26 -52 -100 -132 -124
-132 -9 0 -22 15 -30 34 -8 19 -19 37 -24 40 -23 15 -81 -96 -81 -155 0 -36 6
-47 40 -79 22 -20 40 -40 40 -44 0 -3 -38 -51 -85 -105 -97 -112 -138 -138
-236 -146 -99 -9 -150 -48 -165 -124 l-7 -34 56 7 c59 8 97 -4 97 -28 0 -7
-18 -25 -39 -40 -54 -38 -152 -142 -190 -202 -18 -27 -37 -69 -43 -92 -10 -39
-21 -51 -102 -111 -175 -130 -228 -217 -251 -414 -4 -31 -11 -60 -16 -62 -4
-3 -24 19 -44 49 -51 77 -152 169 -365 333 -288 221 -358 298 -395 434 -21 81
-43 103 -138 139 -45 17 -126 51 -179 76 -111 50 -159 55 -236 25 -28 -11 -86
-27 -130 -35 -44 -8 -150 -33 -234 -55 -282 -73 -452 -104 -573 -105 -110 -1
-110 -1 -230 49 -119 49 -121 50 -230 50 -102 0 -114 -2 -164 -28 -36 -19 -61
-26 -75 -22 -11 4 -80 13 -153 20 -109 10 -140 17 -179 39 -91 51 -134 27
-134 -77 0 -31 6 -73 14 -92 17 -41 9 -50 -39 -41 -24 5 -38 2 -50 -11 -45
-45 23 -234 115 -316 71 -64 111 -80 213 -85 115 -6 194 10 290 59 43 21 90
39 106 39 16 0 44 13 66 30 40 32 92 40 101 16 3 -8 -4 -33 -16 -56 -28 -55
-23 -81 20 -102 43 -22 137 -24 185 -4 18 8 71 40 116 70 124 85 143 89 429
94 185 2 269 0 345 -12 164 -25 195 -38 279 -116 41 -38 94 -79 118 -91 48
-24 88 -57 88 -73 0 -26 63 -137 118 -211 34 -44 57 -83 53 -88 -11 -11 -141
45 -203 87 -29 20 -86 67 -127 106 -41 39 -86 77 -101 85 -20 10 -76 15 -201
17 -192 3 -194 3 -265 -63 -53 -47 -80 -61 -192 -97 -57 -19 -122 -50 -174
-83 -46 -29 -148 -91 -228 -137 -299 -174 -321 -181 -580 -191 -230 -9 -248
-15 -316 -101 -24 -31 -57 -63 -72 -69 -53 -25 -125 -30 -203 -15 -106 20
-136 18 -164 -11 -20 -19 -25 -34 -25 -75 0 -28 7 -64 15 -79 14 -27 13 -29
-20 -59 -41 -36 -43 -57 -11 -120 45 -88 133 -144 259 -166 154 -27 285 11
406 118 77 67 107 75 181 47 112 -43 170 -23 247 85 60 82 139 136 288 197
241 98 512 187 615 202 48 7 52 5 260 -107 47 -26 119 -55 162 -66 l76 -19
129 -128 c145 -144 316 -290 448 -384 184 -131 211 -158 354 -340 153 -196
183 -225 241 -241 51 -14 51 -27 -2 -130 -40 -75 -43 -88 -43 -158 0 -66 4
-86 30 -136 33 -66 67 -95 89 -77 7 6 16 42 20 81 3 38 13 88 22 110 16 40 59
84 74 75 4 -3 9 -31 12 -63 3 -49 11 -68 46 -119 53 -74 59 -107 37 -212 -21
-106 -12 -118 49 -61 25 23 53 40 62 38 10 -2 42 -45 73 -101 126 -221 324
-441 511 -566 52 -35 181 -105 285 -156 221 -107 303 -165 485 -340 69 -66
153 -146 188 -177 34 -31 62 -64 62 -73 0 -36 32 -88 100 -161 l72 -78 -4 -52
c-8 -97 -88 -223 -283 -449 -231 -268 -299 -440 -298 -755 1 -223 50 -425 156
-635 76 -151 87 -192 87 -310 0 -134 -25 -231 -95 -370 -63 -126 -135 -229
-285 -410 -58 -70 -125 -159 -148 -198 -81 -133 -124 -167 -392 -307 -225
-118 -289 -162 -326 -226 -25 -42 -28 -58 -29 -146 -2 -97 -2 -99 -41 -156
-31 -45 -63 -72 -154 -133 -152 -101 -178 -144 -125 -208 35 -41 85 -70 137
-79 34 -6 47 -15 65 -42 66 -105 95 -120 230 -120 317 0 477 142 524 465 6 46
19 91 30 106 10 15 27 47 38 72 19 43 49 66 71 52 5 -3 10 -13 10 -20 0 -33
37 -37 110 -11 141 49 197 117 215 266 14 111 65 175 383 474 230 217 371 369
449 483 61 89 66 93 169 133 95 37 127 69 144 141 7 30 34 95 61 146 43 80 49
99 49 150 0 47 -7 69 -32 113 -78 137 -88 161 -88 219 0 73 31 139 99 214 76
82 92 79 174 -28 58 -77 171 -186 322 -312 190 -159 252 -237 302 -380 23 -66
27 -99 31 -218 5 -174 -11 -269 -77 -449 -26 -72 -65 -183 -85 -246 -47 -144
-113 -281 -165 -343 -53 -64 -107 -108 -226 -185 -135 -87 -180 -125 -211
-179 -24 -39 -28 -60 -34 -167 -10 -157 -22 -181 -156 -310 -61 -58 -112 -116
-124 -142 -21 -42 -21 -44 -4 -79 25 -54 75 -82 167 -96 74 -11 78 -13 92 -44
23 -57 55 -70 170 -70 164 1 312 61 411 167 92 100 141 222 151 378 4 65 12
104 25 125 12 20 18 49 18 86 0 53 2 59 40 93 40 36 91 49 105 26 18 -29 154
16 221 73 40 34 43 53 33 198 -11 145 1 212 66 385 55 144 73 211 120 433 68
326 122 455 272 656 92 125 105 192 54 293 -18 37 -31 81 -35 127 -8 81 -31
138 -74 181 -32 31 -42 37 -183 103 -68 32 -98 53 -146 104 -89 95 -123 183
-123 316 0 108 29 157 83 143 28 -7 57 -78 57 -139 0 -65 18 -87 58 -72 65 25
96 84 94 179 -1 66 -20 125 -63 187 -31 45 -69 146 -69 184 0 17 3 18 21 8 68
-36 129 -28 187 25 38 36 39 66 2 66 -39 0 -78 28 -90 65 -17 51 0 140 61 330
39 121 51 177 53 229 1 40 6 71 12 73 18 6 74 -58 100 -112 31 -65 32 -168 3
-325 -16 -86 -20 -143 -17 -225 3 -102 6 -114 36 -170 18 -33 70 -101 115
-151 103 -114 130 -166 135 -259 3 -61 1 -75 -20 -105 -23 -34 -41 -43 -138
-69 -64 -17 -6 -96 92 -126 65 -19 94 -19 149 0 54 19 65 15 73 -29 15 -82
109 -136 234 -136 89 0 136 14 180 54 48 45 40 61 -38 69 -33 4 -70 12 -81 18
-45 23 -51 120 -17 245 15 57 22 109 22 189 l1 109 42 8 c51 8 91 28 120 60
26 28 73 119 73 142 0 23 -31 20 -81 -9 -24 -14 -54 -25 -67 -25 -60 0 -111
107 -132 275 -5 47 -15 124 -21 171 -19 161 -86 296 -215 433 -90 95 -188 163
-323 222 -164 72 -194 101 -282 272 -85 166 -121 211 -348 437 -287 286 -416
441 -595 714 -131 200 -158 252 -336 641 -128 281 -304 631 -396 790 -48 83
-106 182 -129 222 -34 58 -46 94 -64 185 -12 62 -40 169 -63 238 -36 110 -42
139 -46 241 -6 157 -4 161 93 152 127 -10 198 34 262 165 34 69 24 79 -50 51
-67 -26 -98 -20 -138 22 -55 59 -49 117 28 251 71 124 120 270 132 398 l6 65
59 7 c89 11 141 40 166 94 12 24 24 63 28 86 5 40 4 41 -19 34 -61 -17 -86
-18 -102 -2 -42 43 -47 148 -15 334 17 100 22 170 22 332 1 189 -1 211 -23
280 -12 41 -32 93 -42 114 -10 22 -19 46 -19 55 0 8 26 42 58 75 32 34 65 71
73 83 l16 23 79 -33 c43 -19 108 -46 144 -61 60 -24 67 -31 96 -84 26 -48 29
-62 21 -87 -6 -16 -11 -163 -13 -325 l-2 -295 -37 -79 c-48 -102 -71 -219 -85
-426 -12 -160 -13 -167 -46 -227 -82 -146 -111 -277 -101 -458 5 -96 3 -105
-33 -215 -21 -63 -42 -145 -45 -182 -7 -69 7 -182 31 -251 11 -30 11 -60 2
-149 -16 -165 12 -325 66 -388 8 -8 19 -46 25 -83 16 -96 65 -222 110 -287 43
-62 128 -136 168 -146 63 -16 75 29 42 155 -26 96 -30 205 -15 461 6 119 5
154 -7 194 -15 45 -14 54 4 125 23 86 28 242 10 330 -11 52 -10 55 24 110 71
114 126 316 141 511 6 89 9 99 47 155 78 114 130 273 143 432 5 71 14 105 44
173 50 113 70 173 70 215 0 19 5 35 11 35 5 0 30 -41 53 -91 l43 -90 -5 -182
c-5 -194 6 -343 38 -531 17 -98 19 -128 10 -213 -23 -218 -9 -452 34 -554 11
-27 11 -40 0 -83 -24 -88 -27 -194 -10 -275 17 -80 62 -186 102 -238 22 -28
24 -41 24 -127 0 -52 5 -119 11 -148 13 -62 57 -155 98 -207 18 -23 36 -66 49
-119 12 -45 36 -110 53 -143 56 -105 230 -244 319 -256 38 -5 40 -4 40 21 0
14 -15 63 -34 108 -57 138 -76 215 -87 347 -13 160 -22 200 -65 282 l-35 66
12 69 c17 98 6 347 -20 446 -18 72 -19 82 -6 170 17 110 19 368 4 470 -8 58
-7 97 6 193 34 257 28 471 -19 606 -10 28 -16 81 -16 149 -1 255 -68 534 -165
685 -25 40 -37 75 -49 143 -37 215 -137 380 -297 489 -31 21 -60 55 -87 100
-22 38 -66 95 -97 127 -44 47 -64 78 -92 148 -68 171 -185 318 -311 391 -86
50 -160 74 -273 87 -52 6 -137 17 -189 25 -214 33 -420 10 -573 -63 -45 -21
-116 -47 -157 -57 -99 -23 -175 -62 -247 -127 -152 -138 -136 -129 -211 -126
l-67 3 1 41 c1 56 46 149 142 290 44 66 81 126 82 134 10 66 -28 92 -101 71z"/>
</g>
</svg>
