<?xml version="1.0" encoding="utf-8"?>
<svg viewBox="0 0 192.756 192.756" xmlns="http://www.w3.org/2000/svg">
  <g fill-rule="evenodd" clip-rule="evenodd">
    <path d="M 142.944 39.555 C 156.98 39.555 173.568 40.88 178.67 43.525 L 178.67 62.024 C 178.67 80.522 188.878 83.167 188.878 83.167 L 188.878 100.346 C 188.878 112.238 186.329 120.169 186.329 120.169 C 181.224 121.49 168.467 125.456 154.431 136.027 C 144.224 143.954 135.291 155.846 135.291 167.744 C 135.291 175.671 136.566 180.956 139.12 186.238 C 139.12 186.238 134.017 188.878 125.085 188.878 C 113.602 187.557 100.844 178.305 93.187 163.774 C 82.978 145.275 77.88 122.805 66.393 122.805 C 54.91 122.805 54.91 134.697 45.982 134.697 C 35.776 134.697 29.391 117.52 26.842 109.593 C 20.463 97.701 5.158 93.734 3.878 75.236 L 52.361 75.236 L 52.361 3.878 L 98.295 3.878 L 98.295 34.27 C 99.575 35.589 103.399 36.913 108.502 38.234 L 103.399 62.02 L 89.363 62.02 L 84.259 83.163 L 98.295 83.163 L 93.19 109.593 C 93.19 113.559 91.916 122.805 93.19 126.775 C 95.739 137.348 102.124 141.309 111.056 141.309 C 123.818 141.309 135.297 134.697 135.297 134.697 L 140.399 117.52 L 131.467 117.52 C 128.918 117.52 126.363 117.52 127.637 110.913 L 134.017 83.163 L 148.053 83.163 L 153.156 62.02 L 139.124 62.02 L 142.944 39.555 Z"/>
    <path d="M 114.876 47.486 L 132.737 47.486 L 118.7 116.204 L 100.844 116.204 L 114.876 47.486 Z M 127.634 22.376 C 132.732 22.376 137.84 26.343 137.84 32.949 C 137.84 38.234 132.732 42.201 127.634 42.201 C 122.53 42.201 117.425 38.234 117.425 32.949 C 117.425 26.343 122.53 22.376 127.634 22.376 Z"/>
  </g>
</svg>